<?xml version="1.0" standalone="no"?>
<!DOCTYPE svg PUBLIC "-//W3C//DTD SVG 1.1//EN" "http://www.w3.org/Graphics/SVG/1.1/DTD/svg11.dtd" >
<svg xmlns="http://www.w3.org/2000/svg" xmlns:xlink="http://www.w3.org/1999/xlink" version="1.1">
<metadata>
Created by FontForge 20170731 at Wed Jun 14 21:41:11 2023
 By Aleksey,,,
Copyright (c) 2018 by Fontfabric. All rights reserved.
</metadata>
<defs>
<font id="Gilam-Regular" horiz-adv-x="1269" >
  <font-face 
    font-family="Gilam"
    font-weight="500"
    font-stretch="normal"
    units-per-em="2048"
    panose-1="0 0 6 0 0 0 0 0 0 0"
    ascent="1638"
    descent="-410"
    x-height="1038"
    cap-height="1434"
    bbox="-751 -618 2365 2233"
    underline-thickness="0"
    underline-position="0"
    unicode-range="U+0020-25CA"
  />
<missing-glyph horiz-adv-x="1024" 
d="M840 1577v-2048h-650v2048h650zM682 1440h-338v-68h133v-76h-135v-67h340v67h-135v76h135v68zM547 1176h-205v-213h340v69h-135v144zM477 1106v-74h-67v74h67zM682 907h-340v-67h135v-76h-135v-68h205v144h135v67zM682 784h-68v-135h-272v-69h340v204zM682 535h-205v-115
h70v47h67v-96h-204v164h-68v-232h340v232zM682 180h-340v-231h340v231zM614 113v-97h-204v97h204zM682 -98h-340v-68h143l-143 -96v-68h340v68h-209l143 96h66v68z" />
    <glyph glyph-name="f_f" unicode="ff" horiz-adv-x="1433" 
d="M1088 1070v-32h321v-164h-321v-874h-197v874h-478v-874h-197v874h-170v164h170v32q0 193 90.5 288t255.5 95q98 0 175 -30l10 -173q-65 36 -158 36q-86 0 -131 -51.5t-45 -164.5v-32h478v32q0 193 94 288t264 95q101 0 189 -30l11 -173q-67 36 -175 36q-94 0 -140 -51
t-46 -165z" />
    <glyph glyph-name="f_i" unicode="fi" horiz-adv-x="1245" 
d="M413 1070v-32h675v-1038h-197v874h-478v-874h-197v874h-170v164h170v32q0 193 90.5 288t255.5 95q98 0 175 -30l10 -173q-22 13 -66.5 24.5t-94.5 11.5q-86 0 -129.5 -51t-43.5 -165zM891 1415h197v-220h-197v220z" />
    <glyph glyph-name="f_j" unicode="fj" horiz-adv-x="1245" 
d="M414 1070v-32h675v-1022q0 -215 -93 -319.5t-262 -104.5q-87 0 -158 32l-30 184q74 -43 154 -43q96 0 144 58.5t48 192.5v858h-478v-874h-197v874h-171v164h171v32q0 193 90.5 288t255.5 95q97 0 175 -30l10 -173q-22 13 -67 24.5t-95 11.5q-86 0 -129 -51t-43 -165z
M892 1415h197v-220h-197v220z" />
    <glyph glyph-name=".notdef" horiz-adv-x="1024" 
d="M840 1577v-2048h-650v2048h650zM682 1440h-338v-68h133v-76h-135v-67h340v67h-135v76h135v68zM547 1176h-205v-213h340v69h-135v144zM477 1106v-74h-67v74h67zM682 907h-340v-67h135v-76h-135v-68h205v144h135v67zM682 784h-68v-135h-272v-69h340v204zM682 535h-205v-115
h70v47h67v-96h-204v164h-68v-232h340v232zM682 180h-340v-231h340v231zM614 113v-97h-204v97h204zM682 -98h-340v-68h143l-143 -96v-68h340v68h-209l143 96h66v68z" />
    <glyph glyph-name=".null" horiz-adv-x="0" 
 />
    <glyph glyph-name="nonmarkingreturn" horiz-adv-x="682" 
 />
    <glyph glyph-name="space" unicode=" " horiz-adv-x="475" 
 />
    <glyph glyph-name="exclam" unicode="!" horiz-adv-x="548" 
d="M204 439l-46 995h232l-46 -995h-140zM160 0v258h228v-258h-228z" />
    <glyph glyph-name="quotedbl" unicode="&#x22;" horiz-adv-x="765" 
d="M159 988l-66 528h237l-63 -528h-108zM501 988l-66 528h237l-63 -528h-108z" />
    <glyph glyph-name="numbersign" unicode="#" horiz-adv-x="1273" 
d="M1208 910h-247l-67 -387h222v-134h-245l-66 -389h-152l66 389h-278l-66 -389h-153l67 389h-224v134h247l66 387h-221v133h244l67 391h152l-67 -391h278l67 391h152l-67 -391h225v-133zM742 523l67 387h-279l-66 -387h278z" />
    <glyph glyph-name="dollar" unicode="$" horiz-adv-x="1136" 
d="M1065 386q0 -176 -108.5 -285.5t-316.5 -126.5v-179h-171v179q-91 6 -174.5 22.5t-122.5 29.5l-38 14l-30 204q8 -3 23.5 -9t64.5 -21t99 -26t123 -20.5t142 -9.5q143 0 219 59.5t76 164.5q0 90 -55.5 141t-185.5 88l-190 50q-166 47 -247.5 142.5t-81.5 259.5
q0 160 98 265.5t280 129.5v168h171v-164q92 -4 176.5 -19t122.5 -28l38 -13l11 -198q-7 3 -19.5 8t-54.5 17.5t-86 22t-110.5 17.5t-132.5 8q-137 0 -208.5 -56t-71.5 -152q0 -90 51.5 -140t174.5 -85l196 -51q169 -47 253.5 -142.5t84.5 -264.5z" />
    <glyph glyph-name="percent" unicode="%" horiz-adv-x="1660" 
d="M392 733q-326 0 -326 367q0 364 326 364q328 0 328 -364q0 -367 -328 -367zM252 0l971 1434h180l-970 -1434h-181zM392 879q86 0 128 53.5t42 167.5q0 115 -41.5 167.5t-128.5 52.5q-85 0 -125.5 -52t-40.5 -168q0 -115 40.5 -168t125.5 -53zM1267 -20q-326 0 -326 366
q0 365 326 365q165 0 246 -90.5t81 -274.5q0 -366 -327 -366zM1267 126q87 0 127.5 52.5t40.5 167.5q0 116 -40.5 168t-127.5 52q-86 0 -126.5 -52t-40.5 -168q0 -115 41 -167.5t126 -52.5z" />
    <glyph glyph-name="ampersand" unicode="&#x26;" horiz-adv-x="1378" 
d="M1373 -1h-240l-142 145q-185 -163 -437 -163q-226 0 -345.5 102.5t-119.5 283.5q0 71 19 128.5t59 106t87 86.5t118 82q-105 106 -150 184.5t-45 187.5q0 137 102.5 224.5t277.5 87.5q173 0 275.5 -87t102.5 -225q0 -68 -17.5 -122.5t-57.5 -101.5t-89.5 -85t-126.5 -86
l327 -335q93 166 93 378h193q0 -298 -151 -517zM557 1306q-88 0 -137 -46.5t-49 -123.5q0 -69 38 -128.5t120 -143.5q120 74 165.5 133.5t45.5 138.5q0 76 -50 123t-133 47zM558 148q175 0 306 125l-376 380q-105 -68 -151 -130t-46 -147q0 -105 69 -166.5t198 -61.5z" />
    <glyph glyph-name="quotesingle" unicode="'" horiz-adv-x="423" 
d="M159 988l-66 528h237l-63 -528h-108z" />
    <glyph glyph-name="parenleft" unicode="(" horiz-adv-x="624" 
d="M439 -420q-7 7 -20 21t-49.5 62.5t-69.5 102t-73.5 138.5t-69.5 174t-49 206.5t-20 237.5t19.5 237t50.5 207.5t68.5 172.5t74.5 140t68 100.5t51 63.5l19 21l170 -32q-13 -14 -35.5 -40t-79 -114.5t-100 -186.5t-79 -253t-35.5 -316q0 -118 18 -231.5t47 -201t64 -166.5
t70.5 -134t64.5 -96t47 -61l18 -19z" />
    <glyph glyph-name="parenright" unicode=")" horiz-adv-x="624" 
d="M187 -420l-171 33q7 7 19 20t46 59t65 97.5t69 133t65.5 167.5t46 200t18.5 232t-18 231.5t-47 201.5t-64 166.5t-70.5 134t-64.5 96.5t-47 60l-18 20l171 32q7 -7 20 -21t49 -62.5t69 -102t73.5 -138.5t69.5 -174t49 -206.5t20 -237.5t-19.5 -237t-50 -207.5t-68 -172.5
t-75 -140t-68 -100.5t-50.5 -63.5z" />
    <glyph glyph-name="asterisk" unicode="*" horiz-adv-x="753" 
d="M266 871l-124 84l168 169l-226 48l52 139l200 -111l-35 234h150l-35 -234l200 110l52 -139l-226 -47l169 -168l-124 -85l-110 208z" />
    <glyph glyph-name="plus" unicode="+" horiz-adv-x="1120" 
d="M1050 791v-171h-405v-404h-170v404h-404v171h404v404h170v-404h405z" />
    <glyph glyph-name="comma" unicode="," horiz-adv-x="505" 
d="M67 -270l82 528h238l-208 -528h-112z" />
    <glyph glyph-name="hyphen" unicode="-" horiz-adv-x="786" 
d="M128 502v170h529v-170h-529z" />
    <glyph glyph-name="period" unicode="." horiz-adv-x="487" 
d="M130 0v258h228v-258h-228z" />
    <glyph glyph-name="slash" unicode="/" horiz-adv-x="851" 
d="M230 -184h-182l573 1802h182z" />
    <glyph glyph-name="zero" unicode="0" horiz-adv-x="1234" 
d="M617 -29q-272 0 -390.5 175t-118.5 571t118.5 571t390.5 175q270 0 389 -175t119 -571t-119 -571t-389 -175zM617 154q112 0 176 53t93.5 174.5t29.5 335.5q0 216 -30 337.5t-93.5 173.5t-175.5 52t-176 -52t-94 -174t-30 -337q0 -214 30 -335.5t94 -174.5t176 -53z" />
    <glyph glyph-name="one" unicode="1" horiz-adv-x="755" 
d="M42 1255l530 208v-1463h-204v1192l-326 -130v193z" />
    <glyph glyph-name="two" unicode="2" horiz-adv-x="1069" 
d="M345 186h625v-186h-899v154l429 440q151 157 200.5 251t49.5 200q0 107 -68.5 170t-202.5 63q-104 0 -208.5 -30.5t-168.5 -68.5l13 191q63 35 169 64t220 29q217 0 337.5 -107.5t120.5 -292.5q0 -99 -26.5 -180t-102.5 -185t-217 -243z" />
    <glyph glyph-name="three" unicode="3" horiz-adv-x="1103" 
d="M1002 378q1 -199 -126 -302t-366 -103q-112 0 -211.5 18.5t-142.5 36.5l-44 19l-32 189q6 -3 18 -8.5t52 -19.5t82.5 -24.5t108.5 -19t132 -8.5q157 0 237.5 60t79.5 178q0 119 -64 180t-202 61h-266v178h252q129 0 186.5 60.5t57.5 176.5q0 232 -285 232
q-101 0 -192 -23t-131 -45l-40 -23l13 191l17 8.5t49 19.5t80.5 24.5t110.5 19.5t140 9q218 0 333.5 -98.5t115.5 -291.5q0 -256 -192 -338q227 -75 229 -357z" />
    <glyph glyph-name="four" unicode="4" horiz-adv-x="1150" 
d="M1119 465l-31 -180h-157v-285h-200v285h-689v154l519 995h220l-507 -969h457v346h200v-346h188z" />
    <glyph glyph-name="five" unicode="5" horiz-adv-x="1124" 
d="M569 879q211 0 340.5 -113.5t129.5 -330.5q0 -227 -140 -345.5t-411 -118.5q-115 0 -216 23t-153 47l-31 201q62 -30 162 -58t210 -28q363 0 363 276q0 272 -335 272q-168 0 -361 -67l64 797h804l-29 -187h-589l-33 -401q104 33 225 33z" />
    <glyph glyph-name="six" unicode="6" horiz-adv-x="1181" 
d="M671 904q193 0 316 -118.5t123 -342.5q0 -212 -127.5 -340.5t-348.5 -128.5q-257 0 -393.5 170t-136.5 513q0 206 43.5 361t125.5 251t193.5 143.5t252.5 47.5q62 0 123.5 -10.5t91.5 -21.5l31 -10l13 -194q-11 6 -31 15t-83 24t-127 15q-387 0 -423 -510
q139 136 357 136zM634 157q125 0 196 75t71 211q0 133 -71.5 207t-199.5 74q-188 0 -319 -119q17 -448 323 -448z" />
    <glyph glyph-name="seven" unicode="7" horiz-adv-x="958" 
d="M25 1434h896v-155l-461 -1279h-215l457 1249h-677v185z" />
    <glyph glyph-name="eight" unicode="8" horiz-adv-x="1226" 
d="M819 742q164 -68 236 -152.5t72 -234.5q0 -178 -138 -281t-375 -103q-242 0 -379 100.5t-137 274.5q0 74 26.5 138t72.5 109.5t97.5 77.5t110.5 53q-142 63 -206.5 146t-64.5 220q0 175 128.5 274t351.5 99t350 -97t127 -266q0 -68 -23 -127t-63 -102.5t-86 -75
t-100 -53.5zM341 1087q0 -87 50 -139t173 -101l94 -39q40 16 75 37.5t70 54t56 78t21 99.5q0 95 -74 153t-195 58q-122 0 -196 -55t-74 -146zM613 148q131 0 212 60t81 154q0 92 -51 145.5t-179 105.5l-108 44q-33 -12 -63 -26.5t-66 -40t-61.5 -55t-43 -72.5t-17.5 -91
q0 -101 81.5 -162.5t214.5 -61.5z" />
    <glyph glyph-name="nine" unicode="9" horiz-adv-x="1181" 
d="M549 1463q256 0 392 -171.5t136 -515.5q0 -406 -163.5 -605.5t-451.5 -199.5q-130 0 -238 36l-28 201q32 -18 100 -36.5t148 -18.5q386 0 423 513q-55 -54 -146.5 -95t-210.5 -41q-193 0 -316 118t-123 342q0 213 128.5 343t349.5 130zM280 990q0 -132 72 -206t200 -74
q182 0 318 120q-17 450 -321 450q-125 0 -197 -77t-72 -213z" />
    <glyph glyph-name="colon" unicode=":" horiz-adv-x="485" 
d="M128 765v258h229v-258h-229zM128 0v258h229v-258h-229z" />
    <glyph glyph-name="semicolon" unicode=";" horiz-adv-x="559" 
d="M182 748v257h228v-257h-228zM94 -270l82 528h238l-207 -528h-113z" />
    <glyph glyph-name="less" unicode="&#x3c;" horiz-adv-x="1030" 
d="M907 1177v-190l-606 -270l606 -268v-190l-819 363v189z" />
    <glyph glyph-name="equal" unicode="=" horiz-adv-x="1245" 
d="M133 847v170h980v-170h-980zM133 396v171h980v-171h-980z" />
    <glyph glyph-name="greater" unicode="&#x3e;" horiz-adv-x="1030" 
d="M122 1177l819 -366v-189l-819 -363v190l606 268l-606 270v190z" />
    <glyph glyph-name="question" unicode="?" horiz-adv-x="935" 
d="M323 439q0 60 18 114.5t46.5 97.5t62.5 83.5t68.5 79.5t63 78.5t46.5 87.5t18 100q0 94 -59.5 146t-178.5 52q-95 0 -192 -30t-159 -67l35 201q53 31 143.5 56t185.5 25q209 0 323 -93.5t114 -276.5q0 -65 -18.5 -124t-48 -103.5t-65.5 -85.5t-72 -79.5t-65.5 -77
t-48 -86t-18.5 -98.5h-199zM311 0v258h227v-258h-227z" />
    <glyph glyph-name="at" unicode="@" horiz-adv-x="1628" 
d="M847 1463q155 0 289 -49.5t228.5 -136.5t148.5 -211.5t54 -269.5q0 -129 -35.5 -234t-111 -171.5t-178.5 -66.5q-154 0 -194 126q-79 -124 -281 -124q-134 0 -205 67t-71 187q0 114 74.5 172.5t203.5 58.5h244v24q-1 94 -49 134.5t-154 40.5q-57 0 -119.5 -8.5
t-96.5 -17.5l-34 -8l24 125q103 32 248 32q164 0 242 -76.5t78 -227.5v-263q0 -119 93 -119q61 0 105.5 49t65.5 126.5t21 172.5q0 239 -161.5 393t-428.5 154q-180 0 -323.5 -78t-225.5 -220.5t-82 -323.5q0 -183 81.5 -326t227 -221.5t329.5 -78.5t346 57v-128
q-145 -49 -346 -49q-168 0 -311.5 57t-243.5 156.5t-156.5 236.5t-56.5 294q0 213 100 384t274 266t387 95zM1013 647v56h-234q-149 0 -149 -122q0 -133 155 -133q109 0 168.5 49.5t59.5 149.5z" />
    <glyph glyph-name="A" unicode="A" horiz-adv-x="1331" 
d="M1088 0l-121 337h-610l-121 -337h-218l543 1434h208l544 -1434h-225zM423 519h479l-240 665z" />
    <glyph glyph-name="B" unicode="B" horiz-adv-x="1345" 
d="M184 0v1434h550q237 0 352.5 -96t115.5 -289q0 -230 -180 -313q215 -81 218 -337q2 -200 -119 -299.5t-365 -99.5h-572zM396 812h343q129 0 190 53.5t61 164.5q0 114 -63 167.5t-193 53.5h-338v-439zM396 182h360q138 0 205 55.5t66 174.5q-1 114 -67 168.5t-204 54.5
h-360v-453z" />
    <glyph glyph-name="C" unicode="C" horiz-adv-x="1140" 
d="M699 -29q-301 0 -448 182.5t-147 563.5t147 563.5t448 182.5q96 0 187 -21.5t145 -48.5l11 -196q-55 30 -145 54t-183 24q-205 0 -300 -130t-95 -428t95 -428.5t300 -130.5q96 0 192.5 26t159.5 58l-29 -205q-54 -25 -147 -45.5t-191 -20.5z" />
    <glyph glyph-name="D" unicode="D" horiz-adv-x="1353" 
d="M184 0v1434h500q292 0 427.5 -167t135.5 -550t-135.5 -550t-427.5 -167h-500zM396 188h288q92 0 154.5 25t108 84.5t66.5 162.5t21 257t-21 257t-66.5 162.5t-108 84.5t-154.5 25h-288v-1058z" />
    <glyph glyph-name="E" unicode="E" horiz-adv-x="1226" 
d="M184 0v1434h927l11 -188h-726v-428h649v-188h-649v-442h743l-30 -188h-925z" />
    <glyph glyph-name="F" unicode="F" horiz-adv-x="1187" 
d="M184 0v1434h930l11 -188h-729v-439h649v-188h-649v-619h-212z" />
    <glyph glyph-name="G" unicode="G" horiz-adv-x="1263" 
d="M729 -29q-318 0 -472.5 182t-154.5 564q0 381 154.5 563.5t471.5 182.5q111 0 211 -21t155 -47l11 -198q-59 30 -163.5 54t-213.5 24q-214 0 -312.5 -130t-98.5 -428t99 -428.5t313 -130.5q91 0 201 26v588h210v-724q-19 -9 -54.5 -21.5t-143 -34t-213.5 -21.5z" />
    <glyph glyph-name="H" unicode="H" horiz-adv-x="1404" 
d="M1012 1434h210v-1434h-210v628h-616v-628h-212v1434h212v-615h616v615z" />
    <glyph glyph-name="I" unicode="I" horiz-adv-x="579" 
d="M184 0v1434h212v-1434h-212z" />
    <glyph glyph-name="J" unicode="J" horiz-adv-x="1040" 
d="M352 -29q-86 0 -163.5 15t-121.5 34l-31 202q51 -22 134 -40t169 -18q162 0 241 91.5t79 287.5v891h211v-891q0 -572 -518 -572z" />
    <glyph glyph-name="K" unicode="K" horiz-adv-x="1308" 
d="M1050 0l-463 632h-191v-632h-212v1434h212v-619h191l438 619h239l-499 -701l532 -733h-247z" />
    <glyph glyph-name="L" unicode="L" horiz-adv-x="1134" 
d="M184 0v1434h212v-1243h703l-30 -191h-885z" />
    <glyph glyph-name="M" unicode="M" horiz-adv-x="1701" 
d="M1341 1434h178v-1434h-202v1084l-466 -667l-470 667v-1084h-197v1434h179l489 -699z" />
    <glyph glyph-name="N" unicode="N" horiz-adv-x="1443" 
d="M1063 1434h197v-1434h-181l-696 1067v-1067h-199v1434h183l696 -1066v1066z" />
    <glyph glyph-name="O" unicode="O" horiz-adv-x="1349" 
d="M676 -29q-195 0 -319.5 74t-188 239.5t-63.5 432.5t63.5 432.5t188 239.5t319.5 74t319 -74t187 -239.5t63 -432.5t-63 -432.5t-187 -239.5t-319 -74zM676 158q124 0 199.5 50t115.5 174t40 335q0 212 -40 335.5t-115.5 173t-199.5 49.5q-93 0 -157 -27t-110 -91
t-67.5 -172t-21.5 -268q0 -211 40.5 -335t116 -174t199.5 -50z" />
    <glyph glyph-name="P" unicode="P" horiz-adv-x="1290" 
d="M184 0v1434h541q250 0 375.5 -117.5t125.5 -333.5t-125.5 -333t-375.5 -117h-329v-533h-212zM396 716h329q143 0 215 69t72 198q0 130 -72 199t-215 69h-329v-535z" />
    <glyph glyph-name="Q" unicode="Q" horiz-adv-x="1349" 
d="M1173 -302l-416 278q-33 -5 -81 -5q-195 0 -319.5 74t-188 239.5t-63.5 432.5t63.5 432.5t188 239.5t319.5 74t319 -74t187 -239.5t63 -432.5q0 -274 -65 -438t-200 -237l272 -157zM676 158q124 0 199.5 50t115.5 174t40 335q0 212 -40 335.5t-115.5 173t-199.5 49.5
q-93 0 -157 -27t-110 -91t-67.5 -172t-21.5 -268q0 -211 40.5 -335t116 -174t199.5 -50z" />
    <glyph glyph-name="R" unicode="R" horiz-adv-x="1343" 
d="M1278 0h-238l-341 566h-303v-566h-212v1434h540q252 0 377 -111.5t125 -326.5q0 -335 -308 -406zM396 1251v-506h328q288 0 288 253q0 128 -71 190.5t-217 62.5h-328z" />
    <glyph glyph-name="S" unicode="S" horiz-adv-x="1200" 
d="M599 -29q-139 0 -267 21.5t-200 47.5l-30 204q84 -33 219 -59.5t268 -26.5q328 0 328 224q0 91 -56.5 140.5t-188.5 84.5l-251 64q-167 44 -249.5 137t-82.5 255q0 184 128.5 292t383.5 108q134 0 254.5 -19.5t187.5 -42.5l9 -195q-74 26 -194 47.5t-241 21.5
q-315 0 -315 -206q0 -92 53.5 -141t183.5 -83l246 -63q116 -31 189.5 -77.5t115 -125.5t41.5 -193q0 -193 -132.5 -304t-399.5 -111z" />
    <glyph glyph-name="T" unicode="T" horiz-adv-x="1118" 
d="M1078 1434v-191h-413v-1243h-212v1243h-413v191h1038z" />
    <glyph glyph-name="U" unicode="U" horiz-adv-x="1366" 
d="M683 -29q-261 0 -387.5 130.5t-126.5 404.5v928h210v-928q0 -186 75.5 -266.5t228.5 -80.5q151 0 226.5 80.5t75.5 266.5v928h212v-928q0 -274 -127 -404.5t-387 -130.5z" />
    <glyph glyph-name="V" unicode="V" horiz-adv-x="1271" 
d="M1025 1434h221l-509 -1434h-201l-511 1434h230l383 -1135z" />
    <glyph glyph-name="W" unicode="W" horiz-adv-x="1820" 
d="M1560 1434h206l-297 -1434h-206l-352 961l-351 -961h-206l-299 1434h211l217 -1117l417 1117h29l414 -1118z" />
    <glyph glyph-name="X" unicode="X" horiz-adv-x="1249" 
d="M1232 0h-249l-359 564l-368 -564h-240l486 731l-458 703h247l337 -525l339 525h239l-457 -694z" />
    <glyph glyph-name="Y" unicode="Y" horiz-adv-x="1249" 
d="M1221 1434l-490 -883v-551h-212v551l-493 883h235l367 -665l364 665h229z" />
    <glyph glyph-name="Z" unicode="Z" horiz-adv-x="1148" 
d="M331 191h742l-31 -191h-968v170l730 1073h-704v191h958v-171z" />
    <glyph glyph-name="bracketleft" unicode="[" horiz-adv-x="657" 
d="M177 -408v1861h428v-160h-247v-1542h247v-159h-428z" />
    <glyph glyph-name="backslash" unicode="\" horiz-adv-x="851" 
d="M622 -184l-574 1802h182l574 -1802h-182z" />
    <glyph glyph-name="bracketright" unicode="]" horiz-adv-x="657" 
d="M481 -408h-428v159h247v1542h-247v160h428v-1861z" />
    <glyph glyph-name="asciicircum" unicode="^" horiz-adv-x="1085" 
d="M1008 778h-197l-272 466l-270 -466h-192l398 656h133z" />
    <glyph glyph-name="underscore" unicode="_" horiz-adv-x="806" 
d="M0 -187v136h807v-136h-807z" />
    <glyph glyph-name="grave" unicode="`" horiz-adv-x="526" 
d="M300 1161l-301 301h226l218 -269z" />
    <glyph glyph-name="a" unicode="a" horiz-adv-x="1077" 
d="M419 -19q-169 0 -257.5 84.5t-88.5 235.5q0 142 93.5 221.5t270.5 79.5h301v56q0 118 -57 170t-199 52q-171 0 -326 -41l31 177q146 36 330 36q217 0 317.5 -99.5t100.5 -294.5v-658h-166l-31 140q-74 -159 -319 -159zM463 137q138 0 206.5 59.5t68.5 193.5v72h-268
q-200 0 -200 -159q0 -166 193 -166z" />
    <glyph glyph-name="b" unicode="b" horiz-adv-x="1153" 
d="M659 1058q206 0 302.5 -129t96.5 -410t-96.5 -409.5t-302.5 -128.5q-70 0 -128.5 17.5t-94 44.5t-56.5 51t-29 45l-31 -139h-166v1422l197 31v-554q8 21 29 45.5t56.5 51.5t94 44.5t128.5 17.5zM604 153q135 0 194.5 85t59.5 281t-59.5 281t-194.5 85t-194 -85t-59 -281
t59 -281t194 -85z" />
    <glyph glyph-name="c" unicode="c" horiz-adv-x="925" 
d="M560 -19q-236 0 -352 132t-116 406t116.5 406.5t357.5 132.5q83 0 155 -16t108 -36l10 -176q-45 22 -115.5 38.5t-140.5 16.5q-152 0 -221.5 -86t-69.5 -280q0 -193 68 -279.5t216 -86.5q79 0 157.5 19.5t127.5 43.5l-31 -183q-34 -20 -107 -36t-163 -16z" />
    <glyph glyph-name="d" unicode="d" horiz-adv-x="1155" 
d="M804 1422l196 31v-1453h-167l-29 139q-9 -21 -30 -45t-56.5 -51t-94.5 -44.5t-129 -17.5q-205 0 -302 129t-97 409t97 409.5t302 129.5q57 0 107 -12t83 -30t59.5 -41t40 -41.5t20.5 -34.5v523zM549 153q135 0 195 85t60 281t-60 281t-195 85t-194.5 -85t-59.5 -281
t59.5 -281t194.5 -85z" />
    <glyph glyph-name="e" unicode="e" horiz-adv-x="1083" 
d="M614 -19q-276 0 -399 135t-123 406q0 262 117 399t342 137q219 0 333.5 -130t114.5 -408v-63h-710q4 -154 80.5 -229t250.5 -75q87 0 176.5 16.5t142.5 36.5l-30 -181q-49 -17 -130 -30.5t-165 -13.5zM289 594h522q-8 300 -258 300q-123 0 -190.5 -76t-73.5 -224z" />
    <glyph glyph-name="f" unicode="f" horiz-adv-x="757" 
d="M216 0v874h-170v164h170v35q0 192 95 289.5t264 97.5q107 0 190 -26l10 -168q-74 28 -176 28q-186 0 -186 -221v-35h321v-164h-321v-874h-197z" />
    <glyph glyph-name="g" unicode="g" horiz-adv-x="1155" 
d="M494 -408q-159 0 -286 49l-30 186q52 -24 134 -43.5t165 -19.5q167 0 246 78.5t81 254.5v42q-9 -21 -30 -43.5t-57 -46.5t-94.5 -39t-128.5 -15q-205 0 -302 125.5t-97 398.5q0 280 97 409.5t302 129.5q70 0 129 -17.5t94.5 -44.5t56.5 -51t30 -45l29 138h167v-930
q0 -261 -125.5 -388.5t-380.5 -127.5zM549 167q135 0 195 81.5t60 270.5q0 196 -60 281t-195 85t-194.5 -85t-59.5 -281q0 -189 59.5 -270.5t194.5 -81.5z" />
    <glyph glyph-name="h" unicode="h" horiz-adv-x="1183" 
d="M665 1058q187 0 282 -113t95 -308v-637h-197v590q0 147 -55 220t-182 73q-138 0 -197.5 -73t-59.5 -220v-590h-197v1422l197 31v-549q96 154 314 154z" />
    <glyph glyph-name="i" unicode="i" horiz-adv-x="509" 
d="M157 1194v221h196v-221h-196zM157 0v1038h196v-1038h-196z" />
    <glyph glyph-name="j" unicode="j" horiz-adv-x="524" 
d="M171 1194v221h196v-221h-196zM13 -408q-87 0 -158 32l-31 184q74 -43 154 -43q96 0 144.5 58.5t48.5 192.5v1022h196v-1022q0 -215 -92.5 -319.5t-261.5 -104.5z" />
    <glyph glyph-name="k" unicode="k" horiz-adv-x="1085" 
d="M834 0l-327 447h-156v-447h-197v1422l197 31v-839h153l310 424h226l-375 -500l403 -538h-234z" />
    <glyph glyph-name="l" unicode="l" horiz-adv-x="509" 
d="M157 0v1422l196 31v-1453h-196z" />
    <glyph glyph-name="m" unicode="m" horiz-adv-x="1800" 
d="M1283 1058q185 0 280 -111t95 -310v-637h-197v595q0 146 -53 217t-169 71q-124 0 -179.5 -71t-55.5 -217v-595h-196v595q0 146 -52.5 217t-170.5 71q-124 0 -179 -70.5t-55 -217.5v-595h-197v1038h166l31 -137q85 157 290 157q231 0 307 -180q105 180 335 180z" />
    <glyph glyph-name="n" unicode="n" horiz-adv-x="1183" 
d="M154 0v1038h166l31 -137q90 157 308 157q189 0 286 -112.5t97 -313.5v-632h-197v590q0 149 -57 221t-185 72q-133 0 -192.5 -72t-59.5 -221v-590h-197z" />
    <glyph glyph-name="o" unicode="o" horiz-adv-x="1093" 
d="M546 -19q-235 0 -343.5 129.5t-108.5 408.5t108.5 409t343.5 130t344 -130t109 -409t-109 -408.5t-344 -129.5zM546 153q135 0 194 85t59 281t-59 281t-194 85t-193.5 -84.5t-58.5 -281.5t58.5 -281.5t193.5 -84.5z" />
    <glyph glyph-name="p" unicode="p" horiz-adv-x="1153" 
d="M659 1058q206 0 302.5 -129t96.5 -410t-96.5 -409.5t-302.5 -128.5q-57 0 -106.5 12t-83 30t-59.5 40.5t-39.5 41t-19.5 34.5v-512l-197 -32v1443h166l31 -138q8 21 29 45t56.5 51t94 44.5t128.5 17.5zM604 153q135 0 194.5 85t59.5 281t-59.5 281t-194.5 85t-194 -85
t-59 -281t59 -281t194 -85z" />
    <glyph glyph-name="q" unicode="q" horiz-adv-x="1155" 
d="M833 1038h167v-1411l-196 -32v544q-9 -21 -30 -45t-56.5 -51t-94.5 -44.5t-129 -17.5q-205 0 -302 129t-97 409t97 409.5t302 129.5q70 0 129 -17.5t94.5 -44.5t56.5 -51t30 -45zM549 153q135 0 195 85t60 281t-60 281t-195 85t-194.5 -85t-59.5 -281t59.5 -281
t194.5 -85z" />
    <glyph glyph-name="r" unicode="r" horiz-adv-x="825" 
d="M154 0v1038h166l31 -136q49 80 118.5 118t171.5 38q93 0 143 -26l12 -190q-24 16 -73.5 29.5t-108.5 13.5q-125 0 -194 -69.5t-69 -211.5v-604h-197z" />
    <glyph glyph-name="s" unicode="s" horiz-adv-x="968" 
d="M471 -22q-101 0 -196.5 17.5t-150.5 39.5l-31 182q58 -26 158 -47.5t204 -21.5q245 0 245 137q0 60 -33.5 90t-124.5 48l-173 35q-149 30 -213 100t-64 195q0 145 104 225t316 80q92 0 178 -15t137 -33l11 -179q-45 21 -128 38.5t-178 17.5q-248 0 -248 -128
q0 -56 34.5 -86t123.5 -48l167 -33q154 -31 219 -101t65 -201q0 -150 -103.5 -231t-318.5 -81z" />
    <glyph glyph-name="t" unicode="t" horiz-adv-x="821" 
d="M594 154q106 0 192 38l-30 -172q-24 -15 -77 -27t-119 -12q-169 0 -260 98.5t-91 302.5v492h-172v164h172v205l196 46v-251h363v-164h-363v-492q0 -124 46.5 -176t142.5 -52z" />
    <glyph glyph-name="u" unicode="u" horiz-adv-x="1183" 
d="M525 -19q-189 0 -286 112.5t-97 313.5v631h197v-589q0 -149 57 -221t185 -72q133 0 192.5 72t59.5 221v589h197v-1038h-165l-32 138q-90 -157 -308 -157z" />
    <glyph glyph-name="v" unicode="v" horiz-adv-x="1042" 
d="M812 1038h205l-396 -1038h-199l-396 1038h211l287 -793z" />
    <glyph glyph-name="w" unicode="w" horiz-adv-x="1519" 
d="M1270 1038h190l-243 -1038h-204l-254 637l-253 -637h-204l-241 1038h194l178 -785l318 784h25l316 -779z" />
    <glyph glyph-name="x" unicode="x" horiz-adv-x="1032" 
d="M1010 0h-228l-268 396l-271 -396h-221l374 535l-347 503h227l245 -360l243 360h219l-345 -497z" />
    <glyph glyph-name="y" unicode="y" horiz-adv-x="1040" 
d="M280 -408q-98 0 -148 31l-32 172q58 -29 131 -29q62 0 101 30.5t67 105.5l38 99l-414 1037h213l300 -787l271 787h205l-436 -1190q-50 -136 -122 -196t-174 -60z" />
    <glyph glyph-name="z" unicode="z" horiz-adv-x="954" 
d="M317 170h565l-30 -170h-775v150l545 717h-528v171h768v-150z" />
    <glyph glyph-name="braceleft" unicode="{" horiz-adv-x="675" 
d="M409 764q0 -101 -38.5 -160t-120.5 -81q82 -22 120.5 -81t38.5 -160v-376q0 -83 34 -120t111 -37h65v-157h-65q-169 0 -247.5 75.5t-78.5 238.5v384q0 82 -32.5 116t-110.5 34h-39v166h39q77 0 110 34.5t33 116.5v381q0 163 78.5 239t247.5 76h65v-158h-65
q-77 0 -111 -37t-34 -120v-374z" />
    <glyph glyph-name="bar" unicode="|" horiz-adv-x="516" 
d="M177 -389v2007h161v-2007h-161z" />
    <glyph glyph-name="braceright" unicode="}" horiz-adv-x="675" 
d="M590 606h39v-166h-39q-78 0 -110.5 -34t-32.5 -116v-384q0 -163 -78 -238.5t-247 -75.5h-66v157h66q76 0 110 37t34 120v376q0 101 38.5 160t120.5 81q-82 22 -120.5 81t-38.5 160v374q0 83 -34 120t-110 37h-66v158h66q169 0 247 -76t78 -239v-381q0 -82 33 -116.5
t110 -34.5z" />
    <glyph glyph-name="asciitilde" unicode="~" horiz-adv-x="1251" 
d="M882 535q-66 0 -137.5 26.5t-122.5 57.5t-108 57.5t-96 26.5q-114 0 -114 -155h-167q-2 158 61.5 244.5t184.5 86.5q70 0 141.5 -26.5t120.5 -57.5t105 -57.5t99 -26.5q113 0 113 158h167q1 -158 -60.5 -246t-186.5 -88z" />
    <glyph glyph-name="uni00A0" unicode="&#xa0;" horiz-adv-x="475" 
 />
    <glyph glyph-name="exclamdown" unicode="&#xa1;" horiz-adv-x="524" 
d="M148 1044h229v-257h-229v257zM192 606h141l46 -995h-232z" />
    <glyph glyph-name="cent" unicode="&#xa2;" horiz-adv-x="956" 
d="M867 216l-32 -183q-63 -36 -186 -48v-190h-171v191q-192 23 -286.5 154.5t-94.5 378.5q0 246 94 377.5t287 155.5v177h171v-175q121 -13 186 -48l10 -176q-45 22 -115.5 38.5t-140.5 16.5q-152 0 -221.5 -86t-69.5 -280q0 -193 68 -279.5t216 -86.5q79 0 157.5 19.5
t127.5 43.5z" />
    <glyph glyph-name="sterling" unicode="&#xa3;" horiz-adv-x="1200" 
d="M425 186h702v-186h-1039v186q98 0 144.5 45t46.5 139v265h-191v171h191v189q0 226 119.5 347t338.5 121q87 0 172 -17.5t126 -35.5l41 -17l13 -196q-17 9 -47 22t-118 34.5t-172 21.5q-136 0 -200.5 -69t-64.5 -209v-191h401v-171h-400v-265q0 -125 -63 -184z" />
    <glyph glyph-name="currency" unicode="&#xa4;" horiz-adv-x="1218" 
d="M1037 524q0 -135 -70 -239l157 -157l-121 -121l-159 158q-105 -65 -233 -65q-131 0 -236 65l-159 -158l-121 121l156 157q-69 105 -69 239q0 133 67 237l-156 156l122 121l156 -156q103 66 240 66q132 0 237 -66l157 156l121 -121l-157 -156q68 -106 68 -237zM361 524
q0 -111 70 -182.5t180 -71.5q108 0 178 71.5t70 182.5q0 112 -69.5 183.5t-178.5 71.5q-110 0 -180 -71.5t-70 -183.5z" />
    <glyph glyph-name="yen" unicode="&#xa5;" horiz-adv-x="1257" 
d="M1206 1434l-426 -735h266v-158h-312v-162h312v-159h-312v-220h-206v220h-313v159h313v162h-313v158h265l-428 735h238l344 -626l342 626h230z" />
    <glyph glyph-name="brokenbar" unicode="&#xa6;" horiz-adv-x="516" 
d="M177 778v840h161v-840h-161zM177 -389v840h161v-840h-161z" />
    <glyph glyph-name="section" unicode="&#xa7;" horiz-adv-x="1073" 
d="M741 223q118 -57 169.5 -123.5t51.5 -182.5q0 -156 -104 -243t-318 -87q-94 0 -185.5 15.5t-136.5 31.5l-44 15l-32 190q18 -8 51 -20.5t134.5 -33.5t201.5 -21q227 0 227 148q0 63 -40.5 100.5t-147.5 83.5l-214 96q-151 65 -215 133t-64 189q0 115 74.5 196.5
t180.5 114.5q-100 54 -148 123.5t-48 179.5q0 152 100.5 241t301.5 89q89 0 174.5 -12t126.5 -24l41 -11l11 -183q-14 6 -41 15t-116 24.5t-185 15.5q-207 0 -207 -150q0 -68 38 -106.5t124 -75.5l222 -97q150 -64 210.5 -130t60.5 -187q0 -117 -74 -199t-180 -115zM269 550
q0 -70 39.5 -111t142.5 -86l135 -60q104 29 158.5 81.5t54.5 123.5q0 72 -41 114t-140 84l-133 59q-101 -24 -158.5 -78t-57.5 -127z" />
    <glyph glyph-name="dieresis" unicode="&#xa8;" horiz-adv-x="657" 
d="M0 1194v221h182v-221h-182zM393 1194v221h183v-221h-183z" />
    <glyph glyph-name="copyright" unicode="&#xa9;" horiz-adv-x="1667" 
d="M834 -20q-155 0 -293 57.5t-236.5 156t-156 236.5t-57.5 293t57.5 292.5t156 236t236.5 155.5t293 57t292.5 -57t236 -155.5t156 -236t57.5 -292.5t-57.5 -293t-156 -236.5t-236 -156t-292.5 -57.5zM834 87q177 0 321 83t226 229t82 324t-82 323t-226 227.5t-321 82.5
t-321 -82.5t-226.5 -227.5t-82.5 -323t82.5 -324t227 -229t320.5 -83zM838 283q-176 0 -260 103t-84 335q0 235 83.5 338.5t260.5 103.5q144 0 225 -67t107 -217h-132q-22 94 -70 131t-130 37q-75 0 -119 -26.5t-68 -99t-24 -200.5q0 -126 24 -197.5t68 -98t119 -26.5
q83 0 129.5 34.5t68.5 123.5h132q-27 -144 -107.5 -209t-222.5 -65z" />
    <glyph glyph-name="ordfeminine" unicode="&#xaa;" horiz-adv-x="882" 
d="M428 1452q168 0 245 -78t77 -231v-510h-147l-9 108v2q-56 -125 -242 -125q-130 0 -197 65.5t-67 182.5q0 112 70 174t201 62h235v41q0 89 -44.5 129.5t-149.5 40.5q-113 0 -245 -28l23 141q111 26 250 26zM385 745q104 0 156.5 48t52.5 155v37h-216q-67 0 -101.5 -31
t-34.5 -88q0 -58 36 -89.5t107 -31.5z" />
    <glyph glyph-name="guillemotleft" unicode="&#xab;" horiz-adv-x="1021" 
d="M316 127l-244 393l244 393h185l-212 -393l212 -393h-185zM735 127l-244 393l244 393h185l-212 -393l212 -393h-185z" />
    <glyph glyph-name="logicalnot" unicode="&#xac;" horiz-adv-x="1232" 
d="M1101 813v-602h-170v430h-815v172h985z" />
    <glyph glyph-name="registered" unicode="&#xae;" horiz-adv-x="1667" 
d="M834 -20q-155 0 -293 57.5t-236.5 156t-156 236.5t-57.5 293t57.5 292.5t156 236t236.5 155.5t293 57t292.5 -57t236 -155.5t156 -236t57.5 -292.5t-57.5 -293t-156 -236.5t-236 -156t-292.5 -57.5zM834 87q177 0 321 83t226 229t82 324t-82 323t-226 227.5t-321 82.5
t-321 -82.5t-226.5 -227.5t-82.5 -323t82.5 -324t227 -229t320.5 -83zM539 305v844h326q307 0 307 -260q0 -196 -178 -240l179 -344h-146l-167 328h-191v-328h-130zM669 747h196q90 0 133 34.5t43 107.5q0 75 -42.5 109t-133.5 34h-196v-285z" />
    <glyph glyph-name="macron" unicode="&#xaf;" horiz-adv-x="675" 
d="M0 1261v128h594v-128h-594z" />
    <glyph glyph-name="degree" unicode="&#xb0;" horiz-adv-x="835" 
d="M419 757q-137 0 -234.5 89.5t-97.5 241.5q0 147 98 236.5t234 89.5t232 -89t96 -237q0 -102 -46.5 -179t-120 -114.5t-161.5 -37.5zM419 907q80 0 127 49t47 132q0 80 -47.5 128t-126.5 48q-82 0 -129.5 -48t-47.5 -128q0 -84 47.5 -132.5t129.5 -48.5z" />
    <glyph glyph-name="plusminus" unicode="&#xb1;" horiz-adv-x="1259" 
d="M715 952h404v-171h-404v-281h-171v281h-404v171h404v301h171v-301zM140 183v171h979v-171h-979z" />
    <glyph glyph-name="acute" unicode="&#xb4;" horiz-adv-x="526" 
d="M143 1161l-143 32l218 269h226z" />
    <glyph glyph-name="paragraph" unicode="&#xb6;" horiz-adv-x="1146" 
d="M399 -389v1154q-151 0 -242.5 92t-91.5 243q0 150 91.5 242t242.5 92h551v-1823h-147v1685h-254v-1685h-150z" />
    <glyph glyph-name="periodcentered" unicode="&#xb7;" horiz-adv-x="483" 
d="M128 424v258h228v-258h-228z" />
    <glyph glyph-name="cedilla" unicode="&#xb8;" horiz-adv-x="415" 
d="M121 -404q-32 0 -62 6t-45 12l-14 5v106q49 -25 116 -25q102 0 102 70q0 72 -101 72h-70l63 190h99l-38 -113q84 -4 124 -44t40 -105q0 -84 -56 -129t-158 -45z" />
    <glyph glyph-name="ordmasculine" unicode="&#xba;" horiz-adv-x="899" 
d="M450 616q-185 0 -269.5 100t-84.5 318t84.5 318t269.5 100q184 0 268.5 -100t84.5 -318t-84.5 -318t-268.5 -100zM450 753q106 0 151 64.5t45 216.5t-45 217t-151 65t-151 -65t-45 -217t45 -216.5t151 -64.5z" />
    <glyph glyph-name="guillemotright" unicode="&#xbb;" horiz-adv-x="1021" 
d="M286 127h-185l212 393l-212 393h185l244 -393zM705 127h-185l212 393l-212 393h185l244 -393z" />
    <glyph glyph-name="onequarter" unicode="&#xbc;" horiz-adv-x="1593" 
d="M236 666v577l-187 -60v149l348 112v-778h-161zM142 0l970 1434h172l-970 -1434h-172zM1307 0v134h-402v116l308 518h164l-299 -503h229v189h149v-189h94l-24 -131h-70v-134h-149z" />
    <glyph glyph-name="onehalf" unicode="&#xbd;" horiz-adv-x="1615" 
d="M236 666v577l-187 -60v149l348 112v-778h-161zM1112 1434h172l-970 -1434h-172zM1198 134h336v-134h-556v129l258 203q79 62 106.5 105.5t27.5 98.5q0 50 -35.5 81t-101.5 31q-56 0 -115 -15.5t-90 -30.5l-32 -16l10 138q10 7 30 16.5t87 25.5t139 16q128 -1 198.5 -64
t70.5 -172q0 -85 -46.5 -157.5t-158.5 -157.5z" />
    <glyph glyph-name="threequarters" unicode="&#xbe;" horiz-adv-x="1789" 
d="M643 871q1 -114 -80 -167.5t-225 -54.5q-65 0 -125 11t-85.5 21t-35.5 16l-24 158q14 -10 40.5 -23.5t85.5 -31t115 -17.5q176 0 174 109q0 51 -30 75.5t-96 24.5h-160v122h148q116 0 116 98q0 53 -33.5 79t-108.5 26q-108 0 -228 -60l9 137q104 56 248 56q128 0 201 -53
t73 -159q0 -123 -112 -174q133 -48 133 -193zM1310 1434h172l-971 -1434h-172zM1653 265h94l-24 -131h-70v-134h-149v134h-402v116l308 518h164l-299 -503h229v189h149v-189z" />
    <glyph glyph-name="questiondown" unicode="&#xbf;" horiz-adv-x="921" 
d="M615 1044v-257h-226v257h226zM603 606q0 -69 -24 -132t-59.5 -108.5t-77.5 -95t-77.5 -91.5t-59.5 -98.5t-24 -115.5q0 -95 59 -147t178 -52q95 0 192 30t159 67l-34 -201q-53 -31 -143.5 -55.5t-186.5 -24.5q-209 0 -323 93.5t-114 276.5q0 65 18.5 124t48.5 103.5
t65.5 85.5t71.5 79.5t66 77t48.5 86t18.5 98.5h198z" />
    <glyph glyph-name="Agrave" unicode="&#xc0;" horiz-adv-x="1331" 
d="M812 1588l-144 -32l-300 302h226zM1088 0l-121 337h-610l-121 -337h-218l543 1434h208l544 -1434h-225zM423 519h479l-240 665z" />
    <glyph glyph-name="Aacute" unicode="&#xc1;" horiz-adv-x="1331" 
d="M949 1858l-301 -302l-143 32l218 270h226zM1088 0l-121 337h-610l-121 -337h-218l543 1434h208l544 -1434h-225zM423 519h479l-240 665z" />
    <glyph glyph-name="Acircumflex" unicode="&#xc2;" horiz-adv-x="1331" 
d="M662 1734l-206 -178l-132 32l240 270h196l240 -270l-132 -32zM1088 0l-121 337h-610l-121 -337h-218l543 1434h208l544 -1434h-225zM423 519h479l-240 665z" />
    <glyph glyph-name="Atilde" unicode="&#xc3;" horiz-adv-x="1331" 
d="M554 1692q-31 0 -58 -21.5t-71 -85.5l-104 75q70 99 121 134.5t112 35.5q33 0 68 -17t60 -37.5t53.5 -37.5t49.5 -17q29 0 55 22t71 85l104 -74q-69 -99 -119.5 -135.5t-110.5 -36.5q-33 0 -68 17t-60 38t-53.5 38t-49.5 17zM1088 0l-121 337h-610l-121 -337h-218
l543 1434h208l544 -1434h-225zM423 519h479l-240 665z" />
    <glyph glyph-name="Adieresis" unicode="&#xc4;" horiz-adv-x="1331" 
d="M558 1810v-221h-183v221h183zM951 1810v-221h-182v221h182zM1088 0l-121 337h-610l-121 -337h-218l543 1434h208l544 -1434h-225zM423 519h479l-240 665z" />
    <glyph glyph-name="Aring" unicode="&#xc5;" horiz-adv-x="1331" 
d="M665 1546q-102 0 -168 61.5t-66 164.5q0 104 66 165.5t168 61.5q101 0 166.5 -61.5t65.5 -165.5q0 -103 -65.5 -164.5t-166.5 -61.5zM665 1894q-55 0 -87 -33t-32 -89q0 -55 32 -88t87 -33q54 0 85.5 33t31.5 88q0 56 -31.5 89t-85.5 33zM1088 0l-121 337h-610l-121 -337
h-218l543 1434h208l544 -1434h-225zM423 519h479l-240 665z" />
    <glyph glyph-name="AE" unicode="&#xc6;" horiz-adv-x="1982" 
d="M1151 188h743l-30 -188h-925v360h-516l-217 -360h-219l872 1434h1007l11 -188h-726v-428h649v-188h-649v-442zM532 542h407v678z" />
    <glyph glyph-name="Ccedilla" unicode="&#xc7;" horiz-adv-x="1140" 
d="M1037 37q-53 -25 -141.5 -45t-181.5 -21l-19 -55q87 -4 128.5 -45t41.5 -109q0 -86 -58.5 -133t-163.5 -47q-32 0 -63.5 6t-46.5 12l-15 6v109q52 -25 121 -25q104 0 104 72q0 74 -103 74h-73l46 139q-258 25 -383.5 207t-125.5 535q0 381 147 563.5t448 182.5
q96 0 187 -21.5t145 -48.5l11 -196q-55 30 -145 54t-183 24q-205 0 -300 -130t-95 -428t95 -428.5t300 -130.5q96 0 192.5 26t159.5 58z" />
    <glyph glyph-name="Egrave" unicode="&#xc8;" horiz-adv-x="1226" 
d="M653 1556l-300 302h226l217 -270zM184 0v1434h927l11 -188h-726v-428h649v-188h-649v-442h743l-30 -188h-925z" />
    <glyph glyph-name="Eacute" unicode="&#xc9;" horiz-adv-x="1226" 
d="M633 1556l-143 32l217 270h226zM184 0v1434h927l11 -188h-726v-428h649v-188h-649v-442h743l-30 -188h-925z" />
    <glyph glyph-name="Ecircumflex" unicode="&#xca;" horiz-adv-x="1226" 
d="M441 1556l-133 32l241 270h195l241 -270l-133 -32l-205 178zM184 0v1434h927l11 -188h-726v-428h649v-188h-649v-442h743l-30 -188h-925z" />
    <glyph glyph-name="Edieresis" unicode="&#xcb;" horiz-adv-x="1226" 
d="M360 1589v221h182v-221h-182zM754 1589v221h182v-221h-182zM184 0v1434h927l11 -188h-726v-428h649v-188h-649v-442h743l-30 -188h-925z" />
    <glyph glyph-name="Igrave" unicode="&#xcc;" horiz-adv-x="579" 
d="M293 1556l-301 302h226l218 -270zM184 0v1434h212v-1434h-212z" />
    <glyph glyph-name="Iacute" unicode="&#xcd;" horiz-adv-x="579" 
d="M273 1556l-144 32l218 270h226zM184 0v1434h212v-1434h-212z" />
    <glyph glyph-name="Icircumflex" unicode="&#xce;" horiz-adv-x="579" 
d="M119 1556l-125 32l207 270h177l206 -270l-124 -32l-171 180zM184 0v1434h212v-1434h-212z" />
    <glyph glyph-name="Idieresis" unicode="&#xcf;" horiz-adv-x="579" 
d="M30 1589v221h175v-221h-175zM373 1589v221h176v-221h-176zM184 0v1434h212v-1434h-212z" />
    <glyph glyph-name="Eth" unicode="&#xd0;" horiz-adv-x="1370" 
d="M699 1434q195 0 317.5 -71t185 -229.5t62.5 -416.5t-62.5 -416.5t-185 -229.5t-317.5 -71h-499v657h-157v140h157v637h499zM699 188q123 0 196.5 45.5t113 162.5t39.5 321t-39.5 321t-113 162.5t-196.5 45.5h-289v-449h330v-140h-330v-469h289z" />
    <glyph glyph-name="Ntilde" unicode="&#xd1;" horiz-adv-x="1443" 
d="M477 1585l-104 75q71 99 121 134.5t111 35.5q33 0 68 -17t60 -37.5t53.5 -37.5t49.5 -17q29 0 55.5 22t71.5 85l104 -74q-69 -99 -120 -135.5t-111 -36.5q-33 0 -68 17t-60 38t-53.5 38t-49.5 17q-31 0 -57 -21.5t-71 -85.5zM1063 1434h197v-1434h-181l-696 1067v-1067
h-199v1434h183l696 -1066v1066z" />
    <glyph glyph-name="Ograve" unicode="&#xd2;" horiz-adv-x="1349" 
d="M679 1556l-300 302h226l217 -270zM676 -29q-195 0 -319.5 74t-188 239.5t-63.5 432.5t63.5 432.5t188 239.5t319.5 74t319 -74t187 -239.5t63 -432.5t-63 -432.5t-187 -239.5t-319 -74zM676 158q124 0 199.5 50t115.5 174t40 335q0 212 -40 335.5t-115.5 173t-199.5 49.5
q-93 0 -157 -27t-110 -91t-67.5 -172t-21.5 -268q0 -211 40.5 -335t116 -174t199.5 -50z" />
    <glyph glyph-name="Oacute" unicode="&#xd3;" horiz-adv-x="1349" 
d="M659 1556l-144 32l218 270h226zM676 -29q-195 0 -319.5 74t-188 239.5t-63.5 432.5t63.5 432.5t188 239.5t319.5 74t319 -74t187 -239.5t63 -432.5t-63 -432.5t-187 -239.5t-319 -74zM676 158q124 0 199.5 50t115.5 174t40 335q0 212 -40 335.5t-115.5 173t-199.5 49.5
q-93 0 -157 -27t-110 -91t-67.5 -172t-21.5 -268q0 -211 40.5 -335t116 -174t199.5 -50z" />
    <glyph glyph-name="Ocircumflex" unicode="&#xd4;" horiz-adv-x="1349" 
d="M467 1556l-133 32l241 270h195l241 -270l-133 -32l-205 178zM676 -29q-195 0 -319.5 74t-188 239.5t-63.5 432.5t63.5 432.5t188 239.5t319.5 74t319 -74t187 -239.5t63 -432.5t-63 -432.5t-187 -239.5t-319 -74zM676 158q124 0 199.5 50t115.5 174t40 335
q0 212 -40 335.5t-115.5 173t-199.5 49.5q-93 0 -157 -27t-110 -91t-67.5 -172t-21.5 -268q0 -211 40.5 -335t116 -174t199.5 -50z" />
    <glyph glyph-name="Otilde" unicode="&#xd5;" horiz-adv-x="1349" 
d="M436 1585l-104 75q71 99 121 134.5t111 35.5q33 0 68 -17t60 -37.5t53.5 -37.5t49.5 -17q29 0 55.5 22t71.5 85l104 -74q-69 -99 -120 -135.5t-111 -36.5q-33 0 -68 17t-60 38t-53.5 38t-49.5 17q-31 0 -57 -21.5t-71 -85.5zM676 -29q-195 0 -319.5 74t-188 239.5
t-63.5 432.5t63.5 432.5t188 239.5t319.5 74t319 -74t187 -239.5t63 -432.5t-63 -432.5t-187 -239.5t-319 -74zM676 158q124 0 199.5 50t115.5 174t40 335q0 212 -40 335.5t-115.5 173t-199.5 49.5q-93 0 -157 -27t-110 -91t-67.5 -172t-21.5 -268q0 -211 40.5 -335
t116 -174t199.5 -50z" />
    <glyph glyph-name="Odieresis" unicode="&#xd6;" horiz-adv-x="1349" 
d="M386 1589v221h182v-221h-182zM779 1589v221h182v-221h-182zM676 -29q-195 0 -319.5 74t-188 239.5t-63.5 432.5t63.5 432.5t188 239.5t319.5 74t319 -74t187 -239.5t63 -432.5t-63 -432.5t-187 -239.5t-319 -74zM676 158q124 0 199.5 50t115.5 174t40 335
q0 212 -40 335.5t-115.5 173t-199.5 49.5q-93 0 -157 -27t-110 -91t-67.5 -172t-21.5 -268q0 -211 40.5 -335t116 -174t199.5 -50z" />
    <glyph glyph-name="multiply" unicode="&#xd7;" horiz-adv-x="1079" 
d="M981 1029l-322 -322l322 -323l-120 -119l-322 322l-321 -322l-121 119l323 323l-323 322l121 119l321 -322l322 322z" />
    <glyph glyph-name="Oslash" unicode="&#xd8;" horiz-adv-x="1398" 
d="M1343 1451l-171 -227q96 -174 96 -507q0 -267 -63.5 -432.5t-187.5 -239.5t-319 -74q-261 0 -395 134l-96 -123h-151l172 223q-99 179 -99 512q0 267 63.5 432.5t187 239.5t318.5 74q261 0 397 -136l98 124h150zM698 1275q-124 0 -199.5 -49.5t-115.5 -173t-40 -335.5
q0 -207 38 -332l580 778q-81 112 -263 112zM698 158q124 0 199.5 50t115.5 174t40 335q0 204 -36 327l-579 -777q81 -109 260 -109z" />
    <glyph glyph-name="Ugrave" unicode="&#xd9;" horiz-adv-x="1366" 
d="M687 1556l-301 302h226l218 -270zM683 -29q-261 0 -387.5 130.5t-126.5 404.5v928h210v-928q0 -186 75.5 -266.5t228.5 -80.5q151 0 226.5 80.5t75.5 266.5v928h212v-928q0 -274 -127 -404.5t-387 -130.5z" />
    <glyph glyph-name="Uacute" unicode="&#xda;" horiz-adv-x="1366" 
d="M667 1556l-144 32l218 270h226zM683 -29q-261 0 -387.5 130.5t-126.5 404.5v928h210v-928q0 -186 75.5 -266.5t228.5 -80.5q151 0 226.5 80.5t75.5 266.5v928h212v-928q0 -274 -127 -404.5t-387 -130.5z" />
    <glyph glyph-name="Ucircumflex" unicode="&#xdb;" horiz-adv-x="1366" 
d="M475 1556l-133 32l240 270h196l241 -270l-133 -32l-205 178zM683 -29q-261 0 -387.5 130.5t-126.5 404.5v928h210v-928q0 -186 75.5 -266.5t228.5 -80.5q151 0 226.5 80.5t75.5 266.5v928h212v-928q0 -274 -127 -404.5t-387 -130.5z" />
    <glyph glyph-name="Udieresis" unicode="&#xdc;" horiz-adv-x="1366" 
d="M394 1589v221h182v-221h-182zM787 1589v221h182v-221h-182zM683 -29q-261 0 -387.5 130.5t-126.5 404.5v928h210v-928q0 -186 75.5 -266.5t228.5 -80.5q151 0 226.5 80.5t75.5 266.5v928h212v-928q0 -274 -127 -404.5t-387 -130.5z" />
    <glyph glyph-name="Yacute" unicode="&#xdd;" horiz-adv-x="1249" 
d="M606 1556l-143 32l217 270h226zM1221 1434l-490 -883v-551h-212v551l-493 883h235l367 -665l364 665h229z" />
    <glyph glyph-name="Thorn" unicode="&#xde;" horiz-adv-x="1310" 
d="M725 1176q250 0 375.5 -117.5t125.5 -333.5t-125.5 -333.5t-375.5 -117.5h-329v-274h-212v1434h212v-258h329zM725 458q143 0 215 69t72 198t-72 198t-215 69h-329v-534h329z" />
    <glyph glyph-name="germandbls" unicode="&#xdf;" horiz-adv-x="1159" 
d="M888 824q87 -40 124.5 -123t37.5 -211v-95q0 -211 -99 -313t-278 -102q-140 0 -201 35v177q72 -37 168 -37q104 0 156.5 56t52.5 184v95q0 131 -55 188.5t-172 57.5h-150v171h143q110 0 161.5 46t51.5 144q0 100 -56 146.5t-182 46.5t-182 -62t-56 -200v-1028h-198v1028
q0 435 436 435q439 0 439 -351q0 -107 -32.5 -179t-108.5 -109z" />
    <glyph glyph-name="agrave" unicode="&#xe0;" horiz-adv-x="1077" 
d="M543 1161l-301 301h226l218 -269zM419 -19q-169 0 -257.5 84.5t-88.5 235.5q0 142 93.5 221.5t270.5 79.5h301v56q0 118 -57 170t-199 52q-171 0 -326 -41l31 177q146 36 330 36q217 0 317.5 -99.5t100.5 -294.5v-658h-166l-31 140q-74 -159 -319 -159zM463 137
q138 0 206.5 59.5t68.5 193.5v72h-268q-200 0 -200 -159q0 -166 193 -166z" />
    <glyph glyph-name="aacute" unicode="&#xe1;" horiz-adv-x="1077" 
d="M523 1161l-144 32l218 269h226zM419 -19q-169 0 -257.5 84.5t-88.5 235.5q0 142 93.5 221.5t270.5 79.5h301v56q0 118 -57 170t-199 52q-171 0 -326 -41l31 177q146 36 330 36q217 0 317.5 -99.5t100.5 -294.5v-658h-166l-31 140q-74 -159 -319 -159zM463 137
q138 0 206.5 59.5t68.5 193.5v72h-268q-200 0 -200 -159q0 -166 193 -166z" />
    <glyph glyph-name="acircumflex" unicode="&#xe2;" horiz-adv-x="1077" 
d="M331 1161l-133 32l241 269h195l241 -269l-133 -32l-205 177zM419 -19q-169 0 -257.5 84.5t-88.5 235.5q0 142 93.5 221.5t270.5 79.5h301v56q0 118 -57 170t-199 52q-171 0 -326 -41l31 177q146 36 330 36q217 0 317.5 -99.5t100.5 -294.5v-658h-166l-31 140
q-74 -159 -319 -159zM463 137q138 0 206.5 59.5t68.5 193.5v72h-268q-200 0 -200 -159q0 -166 193 -166z" />
    <glyph glyph-name="atilde" unicode="&#xe3;" horiz-adv-x="1077" 
d="M300 1190l-104 75q71 99 121 134.5t111 35.5q42 0 86 -27.5t81.5 -54.5t63.5 -27q29 0 55.5 21.5t71.5 84.5l104 -73q-69 -99 -120 -135.5t-111 -36.5q-33 0 -68 17t-60 38t-53.5 38t-49.5 17q-31 0 -57 -21.5t-71 -85.5zM419 -19q-169 0 -257.5 84.5t-88.5 235.5
q0 142 93.5 221.5t270.5 79.5h301v56q0 118 -57 170t-199 52q-171 0 -326 -41l31 177q146 36 330 36q217 0 317.5 -99.5t100.5 -294.5v-658h-166l-31 140q-74 -159 -319 -159zM463 137q138 0 206.5 59.5t68.5 193.5v72h-268q-200 0 -200 -159q0 -166 193 -166z" />
    <glyph glyph-name="adieresis" unicode="&#xe4;" horiz-adv-x="1077" 
d="M250 1194v221h182v-221h-182zM643 1194v221h182v-221h-182zM419 -19q-169 0 -257.5 84.5t-88.5 235.5q0 142 93.5 221.5t270.5 79.5h301v56q0 118 -57 170t-199 52q-171 0 -326 -41l31 177q146 36 330 36q217 0 317.5 -99.5t100.5 -294.5v-658h-166l-31 140
q-74 -159 -319 -159zM463 137q138 0 206.5 59.5t68.5 193.5v72h-268q-200 0 -200 -159q0 -166 193 -166z" />
    <glyph glyph-name="aring" unicode="&#xe5;" horiz-adv-x="1077" 
d="M539 1151q-102 0 -168 61.5t-66 164.5q0 104 66 165.5t168 61.5q101 0 166.5 -61.5t65.5 -165.5q0 -103 -65.5 -164.5t-166.5 -61.5zM539 1256q54 0 85.5 33t31.5 88q0 56 -31.5 89t-85.5 33q-55 0 -87 -33t-32 -89q0 -55 32 -88t87 -33zM419 -19q-169 0 -257.5 84.5
t-88.5 235.5q0 142 93.5 221.5t270.5 79.5h301v56q0 118 -57 170t-199 52q-171 0 -326 -41l31 177q146 36 330 36q217 0 317.5 -99.5t100.5 -294.5v-658h-166l-31 140q-74 -159 -319 -159zM463 137q138 0 206.5 59.5t68.5 193.5v72h-268q-200 0 -200 -159q0 -166 193 -166z
" />
    <glyph glyph-name="ae" unicode="&#xe6;" horiz-adv-x="1728" 
d="M447 -19q-193 0 -285 83t-92 235q0 141 92 218.5t264 77.5h312v63q0 118 -57 170t-198 52q-173 0 -319 -37l31 177q148 32 324 32q252 0 335 -161q106 167 344 167q448 0 448 -530v-71h-711q3 -158 79.5 -231t251.5 -73q87 0 176 16.5t142 36.5l-30 -181
q-48 -17 -129 -30.5t-165 -13.5q-297 0 -414 184q-98 -184 -399 -184zM935 595h521q-8 299 -257 299q-123 0 -190.5 -75.5t-73.5 -223.5zM461 137q140 0 208.5 60.5t68.5 192.5v67h-289q-89 0 -135.5 -41.5t-46.5 -116.5q0 -79 49 -120.5t145 -41.5z" />
    <glyph glyph-name="ccedilla" unicode="&#xe7;" horiz-adv-x="925" 
d="M830 33q-31 -18 -95 -33.5t-143 -18.5l-22 -62q84 -4 124 -44t40 -105q0 -84 -56 -129t-158 -45q-32 0 -62 6t-44 12l-15 5v106q50 -25 117 -25q101 0 101 70q0 72 -100 72h-70l46 141q-202 18 -301.5 150t-99.5 386q0 274 116.5 406.5t357.5 132.5q83 0 155 -16t108 -36
l10 -176q-45 22 -115.5 38.5t-140.5 16.5q-152 0 -221.5 -86t-69.5 -280q0 -193 68 -279.5t216 -86.5q79 0 157.5 19.5t127.5 43.5z" />
    <glyph glyph-name="egrave" unicode="&#xe8;" horiz-adv-x="1083" 
d="M556 1161l-301 301h226l218 -269zM614 -19q-276 0 -399 135t-123 406q0 262 117 399t342 137q219 0 333.5 -130t114.5 -408v-63h-710q4 -154 80.5 -229t250.5 -75q87 0 176.5 16.5t142.5 36.5l-30 -181q-49 -17 -130 -30.5t-165 -13.5zM289 594h522q-8 300 -258 300
q-123 0 -190.5 -76t-73.5 -224z" />
    <glyph glyph-name="eacute" unicode="&#xe9;" horiz-adv-x="1083" 
d="M536 1161l-144 32l218 269h226zM614 -19q-276 0 -399 135t-123 406q0 262 117 399t342 137q219 0 333.5 -130t114.5 -408v-63h-710q4 -154 80.5 -229t250.5 -75q87 0 176.5 16.5t142.5 36.5l-30 -181q-49 -17 -130 -30.5t-165 -13.5zM289 594h522q-8 300 -258 300
q-123 0 -190.5 -76t-73.5 -224z" />
    <glyph glyph-name="ecircumflex" unicode="&#xea;" horiz-adv-x="1083" 
d="M344 1161l-133 32l241 269h195l241 -269l-133 -32l-205 177zM614 -19q-276 0 -399 135t-123 406q0 262 117 399t342 137q219 0 333.5 -130t114.5 -408v-63h-710q4 -154 80.5 -229t250.5 -75q87 0 176.5 16.5t142.5 36.5l-30 -181q-49 -17 -130 -30.5t-165 -13.5zM289 594
h522q-8 300 -258 300q-123 0 -190.5 -76t-73.5 -224z" />
    <glyph glyph-name="edieresis" unicode="&#xeb;" horiz-adv-x="1083" 
d="M263 1194v221h182v-221h-182zM656 1194v221h182v-221h-182zM614 -19q-276 0 -399 135t-123 406q0 262 117 399t342 137q219 0 333.5 -130t114.5 -408v-63h-710q4 -154 80.5 -229t250.5 -75q87 0 176.5 16.5t142.5 36.5l-30 -181q-49 -17 -130 -30.5t-165 -13.5zM289 594
h522q-8 300 -258 300q-123 0 -190.5 -76t-73.5 -224z" />
    <glyph glyph-name="igrave" unicode="&#xec;" horiz-adv-x="509" 
d="M258 1161l-300 301h226l218 -269zM157 0v1038h196v-1038h-196z" />
    <glyph glyph-name="iacute" unicode="&#xed;" horiz-adv-x="509" 
d="M238 1161l-143 32l218 269h226zM157 0v1038h196v-1038h-196z" />
    <glyph glyph-name="icircumflex" unicode="&#xee;" horiz-adv-x="509" 
d="M84 1161l-124 32l206 269h177l207 -269l-125 -32l-170 180zM157 0v1038h196v-1038h-196z" />
    <glyph glyph-name="idieresis" unicode="&#xef;" horiz-adv-x="509" 
d="M-5 1194v221h175v-221h-175zM339 1194v221h176v-221h-176zM157 0v1038h196v-1038h-196z" />
    <glyph glyph-name="eth" unicode="&#xf0;" horiz-adv-x="1101" 
d="M623 1256q115 -76 189 -154t115 -173t56.5 -198t15.5 -247q0 -261 -109 -382t-344 -121t-343.5 121t-108.5 382q0 262 96.5 383t302.5 121q180 0 277 -111q-69 143 -298 279l-260 -157l-46 77l216 131q-94 49 -219 105l69 151q178 -80 304 -154l255 154l47 -78zM546 153
q135 0 194 77t59 254t-59 254.5t-194 77.5q-134 0 -193 -77t-59 -255q0 -177 58.5 -254t193.5 -77z" />
    <glyph glyph-name="ntilde" unicode="&#xf1;" horiz-adv-x="1183" 
d="M360 1190l-104 75q71 99 121 134.5t111 35.5q42 0 86 -27.5t81.5 -54.5t63.5 -27q29 0 55.5 21.5t71.5 84.5l104 -73q-69 -99 -120 -135.5t-111 -36.5q-33 0 -68 17t-60 38t-53.5 38t-49.5 17q-31 0 -57 -21.5t-71 -85.5zM154 0v1038h166l31 -137q90 157 308 157
q189 0 286 -112.5t97 -313.5v-632h-197v590q0 149 -57 221t-185 72q-133 0 -192.5 -72t-59.5 -221v-590h-197z" />
    <glyph glyph-name="ograve" unicode="&#xf2;" horiz-adv-x="1093" 
d="M550 1161l-301 301h226l218 -269zM546 -19q-235 0 -343.5 129.5t-108.5 408.5t108.5 409t343.5 130t344 -130t109 -409t-109 -408.5t-344 -129.5zM546 153q135 0 194 85t59 281t-59 281t-194 85t-193.5 -84.5t-58.5 -281.5t58.5 -281.5t193.5 -84.5z" />
    <glyph glyph-name="oacute" unicode="&#xf3;" horiz-adv-x="1093" 
d="M530 1161l-144 32l218 269h226zM546 -19q-235 0 -343.5 129.5t-108.5 408.5t108.5 409t343.5 130t344 -130t109 -409t-109 -408.5t-344 -129.5zM546 153q135 0 194 85t59 281t-59 281t-194 85t-193.5 -84.5t-58.5 -281.5t58.5 -281.5t193.5 -84.5z" />
    <glyph glyph-name="ocircumflex" unicode="&#xf4;" horiz-adv-x="1093" 
d="M338 1161l-133 32l241 269h195l241 -269l-133 -32l-205 177zM546 -19q-235 0 -343.5 129.5t-108.5 408.5t108.5 409t343.5 130t344 -130t109 -409t-109 -408.5t-344 -129.5zM546 153q135 0 194 85t59 281t-59 281t-194 85t-193.5 -84.5t-58.5 -281.5t58.5 -281.5
t193.5 -84.5z" />
    <glyph glyph-name="otilde" unicode="&#xf5;" horiz-adv-x="1093" 
d="M306 1190l-103 75q71 99 121 134.5t111 35.5q42 0 86 -27.5t81.5 -54.5t63.5 -27q29 0 55.5 21.5t71.5 84.5l104 -73q-69 -99 -120 -135.5t-111 -36.5q-33 0 -68 17t-60 38t-53.5 38t-49.5 17q-31 0 -58 -21.5t-71 -85.5zM546 -19q-235 0 -343.5 129.5t-108.5 408.5
t108.5 409t343.5 130t344 -130t109 -409t-109 -408.5t-344 -129.5zM546 153q135 0 194 85t59 281t-59 281t-194 85t-193.5 -84.5t-58.5 -281.5t58.5 -281.5t193.5 -84.5z" />
    <glyph glyph-name="odieresis" unicode="&#xf6;" horiz-adv-x="1093" 
d="M257 1194v221h182v-221h-182zM650 1194v221h182v-221h-182zM546 -19q-235 0 -343.5 129.5t-108.5 408.5t108.5 409t343.5 130t344 -130t109 -409t-109 -408.5t-344 -129.5zM546 153q135 0 194 85t59 281t-59 281t-194 85t-193.5 -84.5t-58.5 -281.5t58.5 -281.5
t193.5 -84.5z" />
    <glyph glyph-name="divide" unicode="&#xf7;" horiz-adv-x="1206" 
d="M510 989v214h185v-214h-185zM113 620v171h979v-171h-979zM510 207v215h185v-215h-185z" />
    <glyph glyph-name="oslash" unicode="&#xf8;" horiz-adv-x="1132" 
d="M1082 1057l-141 -173q77 -126 77 -365q0 -279 -109 -408.5t-342 -129.5q-199 0 -307 92l-76 -92h-134l142 172q-78 128 -78 366q0 279 109 409t344 130q197 0 306 -94l76 93h133zM567 885q-135 0 -194 -85t-59 -281q0 -126 23 -202l411 499q-58 69 -181 69zM567 153
q135 0 193 84.5t58 281.5q0 126 -21 199l-412 -496q59 -69 182 -69z" />
    <glyph glyph-name="ugrave" unicode="&#xf9;" horiz-adv-x="1183" 
d="M584 1161l-300 301h226l217 -269zM525 -19q-189 0 -286 112.5t-97 313.5v631h197v-589q0 -149 57 -221t185 -72q133 0 192.5 72t59.5 221v589h197v-1038h-165l-32 138q-90 -157 -308 -157z" />
    <glyph glyph-name="uacute" unicode="&#xfa;" horiz-adv-x="1183" 
d="M564 1161l-143 32l217 269h226zM525 -19q-189 0 -286 112.5t-97 313.5v631h197v-589q0 -149 57 -221t185 -72q133 0 192.5 72t59.5 221v589h197v-1038h-165l-32 138q-90 -157 -308 -157z" />
    <glyph glyph-name="ucircumflex" unicode="&#xfb;" horiz-adv-x="1183" 
d="M372 1161l-133 32l241 269h195l241 -269l-133 -32l-205 177zM525 -19q-189 0 -286 112.5t-97 313.5v631h197v-589q0 -149 57 -221t185 -72q133 0 192.5 72t59.5 221v589h197v-1038h-165l-32 138q-90 -157 -308 -157z" />
    <glyph glyph-name="udieresis" unicode="&#xfc;" horiz-adv-x="1183" 
d="M291 1194v221h182v-221h-182zM684 1194v221h183v-221h-183zM525 -19q-189 0 -286 112.5t-97 313.5v631h197v-589q0 -149 57 -221t185 -72q133 0 192.5 72t59.5 221v589h197v-1038h-165l-32 138q-90 -157 -308 -157z" />
    <glyph glyph-name="yacute" unicode="&#xfd;" horiz-adv-x="1040" 
d="M512 1161l-143 32l218 269h226zM280 -408q-98 0 -148 31l-32 172q58 -29 131 -29q62 0 101 30.5t67 105.5l38 99l-414 1037h213l300 -787l271 787h205l-436 -1190q-50 -136 -122 -196t-174 -60z" />
    <glyph glyph-name="thorn" unicode="&#xfe;" horiz-adv-x="1148" 
d="M154 -389v1807l197 31v-549q8 21 28.5 45.5t56 51.5t93.5 44.5t127 17.5q205 0 301 -129.5t96 -410.5t-96 -410t-301 -129q-69 0 -127.5 17.5t-93.5 44.5t-56 51.5t-28 45.5v-528h-197zM601 152q134 0 193 85t59 282t-59 282.5t-193 85.5t-192 -85.5t-58 -282.5t58 -282
t192 -85z" />
    <glyph glyph-name="ydieresis" unicode="&#xff;" horiz-adv-x="1040" 
d="M239 1194v221h182v-221h-182zM633 1194v221h182v-221h-182zM280 -408q-98 0 -148 31l-32 172q58 -29 131 -29q62 0 101 30.5t67 105.5l38 99l-414 1037h213l300 -787l271 787h205l-436 -1190q-50 -136 -122 -196t-174 -60z" />
    <glyph glyph-name="Amacron" unicode="&#x100;" horiz-adv-x="1331" 
d="M960 1784v-128h-594v128h594zM1088 0l-121 337h-610l-121 -337h-218l543 1434h208l544 -1434h-225zM423 519h479l-240 665z" />
    <glyph glyph-name="amacron" unicode="&#x101;" horiz-adv-x="1077" 
d="M242 1261v128h594v-128h-594zM419 -19q-169 0 -257.5 84.5t-88.5 235.5q0 142 93.5 221.5t270.5 79.5h301v56q0 118 -57 170t-199 52q-171 0 -326 -41l31 177q146 36 330 36q217 0 317.5 -99.5t100.5 -294.5v-658h-166l-31 140q-74 -159 -319 -159zM463 137
q138 0 206.5 59.5t68.5 193.5v72h-268q-200 0 -200 -159q0 -166 193 -166z" />
    <glyph glyph-name="Abreve" unicode="&#x102;" horiz-adv-x="1331" 
d="M667 1547q-145 0 -223 78t-87 211l161 32q13 -194 149 -194t147 194l161 -32q-9 -132 -86.5 -210.5t-221.5 -78.5zM1088 0l-121 337h-610l-121 -337h-218l543 1434h208l544 -1434h-225zM423 519h479l-240 665z" />
    <glyph glyph-name="abreve" unicode="&#x103;" horiz-adv-x="1077" 
d="M539 1153q-145 0 -222.5 78.5t-86.5 211.5l160 31q13 -193 149 -193t147 193l161 -31q-9 -133 -86.5 -211.5t-221.5 -78.5zM419 -19q-169 0 -257.5 84.5t-88.5 235.5q0 142 93.5 221.5t270.5 79.5h301v56q0 118 -57 170t-199 52q-171 0 -326 -41l31 177q146 36 330 36
q217 0 317.5 -99.5t100.5 -294.5v-658h-166l-31 140q-74 -159 -319 -159zM463 137q138 0 206.5 59.5t68.5 193.5v72h-268q-200 0 -200 -159q0 -166 193 -166z" />
    <glyph glyph-name="Aogonek" unicode="&#x104;" horiz-adv-x="1331" 
d="M1244 -282q21 0 39.5 4.5t26.5 9.5l8 4v-120q-44 -24 -118 -24q-89 0 -134 43.5t-45 120.5q0 68 43.5 132.5t122.5 111.5h-99l-121 337h-610l-121 -337h-218l543 1434h208l544 -1434q-150 -98 -150 -203q0 -39 22 -59t59 -20zM423 519h479l-240 665z" />
    <glyph glyph-name="aogonek" unicode="&#x105;" horiz-adv-x="1077" 
d="M865 -282q21 0 40 4.5t27 9.5l9 4v-120q-46 -24 -120 -24q-89 0 -134 43.5t-45 120.5q0 68 43.5 132.5t124.5 111.5h-41l-31 139v1q-74 -159 -319 -159q-169 0 -257.5 84.5t-88.5 235.5q0 142 93.5 221t270.5 79h301v57q0 118 -57 170t-199 52q-171 0 -326 -41l31 177
q146 36 330 36q217 0 317 -99.5t100 -294.5v-658q-150 -98 -150 -203q0 -39 22 -59t59 -20zM462 137q138 0 207 59.5t69 193.5v72h-268q-200 0 -200 -159q0 -166 192 -166z" />
    <glyph glyph-name="Cacute" unicode="&#x106;" horiz-adv-x="1140" 
d="M643 1556l-144 32l218 270h226zM699 -29q-301 0 -448 182.5t-147 563.5t147 563.5t448 182.5q96 0 187 -21.5t145 -48.5l11 -196q-55 30 -145 54t-183 24q-205 0 -300 -130t-95 -428t95 -428.5t300 -130.5q96 0 192.5 26t159.5 58l-29 -205q-54 -25 -147 -45.5
t-191 -20.5z" />
    <glyph glyph-name="cacute" unicode="&#x107;" horiz-adv-x="925" 
d="M515 1161l-144 32l218 269h226zM560 -19q-236 0 -352 132t-116 406t116.5 406.5t357.5 132.5q83 0 155 -16t108 -36l10 -176q-45 22 -115.5 38.5t-140.5 16.5q-152 0 -221.5 -86t-69.5 -280q0 -193 68 -279.5t216 -86.5q79 0 157.5 19.5t127.5 43.5l-31 -183
q-34 -20 -107 -36t-163 -16z" />
    <glyph glyph-name="Ccircumflex" unicode="&#x108;" horiz-adv-x="1140" 
d="M451 1556l-133 32l241 270h195l241 -270l-133 -32l-205 178zM699 -29q-301 0 -448 182.5t-147 563.5t147 563.5t448 182.5q96 0 187 -21.5t145 -48.5l11 -196q-55 30 -145 54t-183 24q-205 0 -300 -130t-95 -428t95 -428.5t300 -130.5q96 0 192.5 26t159.5 58l-29 -205
q-54 -25 -147 -45.5t-191 -20.5z" />
    <glyph glyph-name="ccircumflex" unicode="&#x109;" horiz-adv-x="925" 
d="M322 1161l-132 32l240 269h196l241 -269l-133 -32l-205 177zM560 -19q-236 0 -352 132t-116 406t116.5 406.5t357.5 132.5q83 0 155 -16t108 -36l10 -176q-45 22 -115.5 38.5t-140.5 16.5q-152 0 -221.5 -86t-69.5 -280q0 -193 68 -279.5t216 -86.5q79 0 157.5 19.5
t127.5 43.5l-31 -183q-34 -20 -107 -36t-163 -16z" />
    <glyph glyph-name="Cdotaccent" unicode="&#x10a;" horiz-adv-x="1140" 
d="M561 1588v221h197v-221h-197zM699 -29q-301 0 -448 182.5t-147 563.5t147 563.5t448 182.5q96 0 187 -21.5t145 -48.5l11 -196q-55 30 -145 54t-183 24q-205 0 -300 -130t-95 -428t95 -428.5t300 -130.5q96 0 192.5 26t159.5 58l-29 -205q-54 -25 -147 -45.5t-191 -20.5z
" />
    <glyph glyph-name="cdotaccent" unicode="&#x10b;" horiz-adv-x="925" 
d="M433 1192v222h197v-222h-197zM560 -19q-236 0 -352 132t-116 406t116.5 406.5t357.5 132.5q83 0 155 -16t108 -36l10 -176q-45 22 -115.5 38.5t-140.5 16.5q-152 0 -221.5 -86t-69.5 -280q0 -193 68 -279.5t216 -86.5q79 0 157.5 19.5t127.5 43.5l-31 -183
q-34 -20 -107 -36t-163 -16z" />
    <glyph glyph-name="Ccaron" unicode="&#x10c;" horiz-adv-x="1140" 
d="M455 1858l206 -178l205 178l133 -32l-241 -270h-195l-241 270zM699 -29q-301 0 -448 182.5t-147 563.5t147 563.5t448 182.5q96 0 187 -21.5t145 -48.5l11 -196q-55 30 -145 54t-183 24q-205 0 -300 -130t-95 -428t95 -428.5t300 -130.5q96 0 192.5 26t159.5 58l-29 -205
q-54 -25 -147 -45.5t-191 -20.5z" />
    <glyph glyph-name="ccaron" unicode="&#x10d;" horiz-adv-x="925" 
d="M738 1466l133 -32l-241 -269h-195l-241 269l133 32l204 -177zM560 -19q-236 0 -352 132t-116 406t116.5 406.5t357.5 132.5q83 0 155 -16t108 -36l10 -176q-45 22 -115.5 38.5t-140.5 16.5q-152 0 -221.5 -86t-69.5 -280q0 -193 68 -279.5t216 -86.5q79 0 157.5 19.5
t127.5 43.5l-31 -183q-34 -20 -107 -36t-163 -16z" />
    <glyph glyph-name="Dcaron" unicode="&#x10e;" horiz-adv-x="1353" 
d="M436 1858l206 -178l205 178l133 -32l-241 -270h-195l-241 270zM184 0v1434h500q292 0 427.5 -167t135.5 -550t-135.5 -550t-427.5 -167h-500zM396 188h288q92 0 154.5 25t108 84.5t66.5 162.5t21 257t-21 257t-66.5 162.5t-108 84.5t-154.5 25h-288v-1058z" />
    <glyph glyph-name="dcaron" unicode="&#x10f;" horiz-adv-x="1196" 
d="M804 1422l196 31v-1453h-167l-29 139q-9 -21 -30 -45t-56.5 -51t-94.5 -44.5t-129 -17.5q-205 0 -302 129t-97 409t97 409.5t302 129.5q57 0 107 -12t83 -30t59.5 -41t40 -41.5t20.5 -34.5v523zM1121 1104l45 330h194l-147 -330h-92zM549 153q135 0 195 85t60 281
t-60 281t-195 85t-194.5 -85t-59.5 -281t59.5 -281t194.5 -85z" />
    <glyph glyph-name="Dcroat" unicode="&#x110;" horiz-adv-x="1370" 
d="M699 1434q195 0 317.5 -71t185 -229.5t62.5 -416.5t-62.5 -416.5t-185 -229.5t-317.5 -71h-499v657h-157v140h157v637h499zM699 188q123 0 196.5 45.5t113 162.5t39.5 321t-39.5 321t-113 162.5t-196.5 45.5h-289v-449h330v-140h-330v-469h289z" />
    <glyph glyph-name="dcroat" unicode="&#x111;" horiz-adv-x="1155" 
d="M1145 1263v-113h-145v-1150h-167l-29 139q-9 -21 -30 -45t-56.5 -51t-94.5 -44.5t-129 -17.5q-205 0 -302 129t-97 409t97 409.5t302 129.5q57 0 107 -12t83 -30t59.5 -41t40 -41.5t20.5 -34.5v251h-383v113h383v159l196 31v-190h145zM549 153q135 0 195 85t60 281
t-60 281t-195 85t-194.5 -85t-59.5 -281t59.5 -281t194.5 -85z" />
    <glyph glyph-name="Emacron" unicode="&#x112;" horiz-adv-x="1226" 
d="M351 1656v128h594v-128h-594zM184 0v1434h927l11 -188h-726v-428h649v-188h-649v-442h743l-30 -188h-925z" />
    <glyph glyph-name="emacron" unicode="&#x113;" horiz-adv-x="1083" 
d="M255 1261v128h594v-128h-594zM614 -19q-276 0 -399 135t-123 406q0 262 117 399t342 137q219 0 333.5 -130t114.5 -408v-63h-710q4 -154 80.5 -229t250.5 -75q87 0 176.5 16.5t142.5 36.5l-30 -181q-49 -17 -130 -30.5t-165 -13.5zM289 594h522q-8 300 -258 300
q-123 0 -190.5 -76t-73.5 -224z" />
    <glyph glyph-name="Ebreve" unicode="&#x114;" horiz-adv-x="1226" 
d="M652 1547q-145 0 -223 78t-87 211l160 32q13 -194 150 -194q136 0 147 194l160 -32q-9 -133 -86 -211t-221 -78zM184 0v1434h927l11 -188h-726v-428h649v-188h-649v-442h743l-30 -188h-925z" />
    <glyph glyph-name="ebreve" unicode="&#x115;" horiz-adv-x="1083" 
d="M553 1153q-145 0 -223 78.5t-87 211.5l160 31q13 -193 150 -193q135 0 146 193l161 -31q-9 -133 -86 -211.5t-221 -78.5zM614 -19q-276 0 -399 135t-123 406q0 262 117 399t342 137q219 0 333.5 -130t114.5 -408v-63h-710q4 -154 80.5 -229t250.5 -75q87 0 176.5 16.5
t142.5 36.5l-30 -181q-49 -17 -130 -30.5t-165 -13.5zM289 594h522q-8 300 -258 300q-123 0 -190.5 -76t-73.5 -224z" />
    <glyph glyph-name="Edotaccent" unicode="&#x116;" horiz-adv-x="1226" 
d="M552 1588v221h196v-221h-196zM184 0v1434h927l11 -188h-726v-428h649v-188h-649v-442h743l-30 -188h-925z" />
    <glyph glyph-name="edotaccent" unicode="&#x117;" horiz-adv-x="1083" 
d="M454 1192v222h197v-222h-197zM614 -19q-276 0 -399 135t-123 406q0 262 117 399t342 137q219 0 333.5 -130t114.5 -408v-63h-710q4 -154 80.5 -229t250.5 -75q87 0 176.5 16.5t142.5 36.5l-30 -181q-49 -17 -130 -30.5t-165 -13.5zM289 594h522q-8 300 -258 300
q-123 0 -190.5 -76t-73.5 -224z" />
    <glyph glyph-name="Eogonek" unicode="&#x118;" horiz-adv-x="1226" 
d="M957 -203q0 -39 22 -59t60 -20q21 0 40 4.5t27 9.5l8 4v-120q-46 -24 -120 -24q-89 0 -134 43.5t-45 120.5q0 67 44 131.5t124 112.5h-799v1434h927l11 -188h-726v-428h649v-188h-649v-442h743l-30 -188q-152 -98 -152 -203z" />
    <glyph glyph-name="eogonek" unicode="&#x119;" horiz-adv-x="1083" 
d="M999 520v-63h-710q4 -154 80.5 -229t250.5 -75q87 0 176.5 16.5t142.5 36.5l-30 -181q-104 -49 -159.5 -108.5t-55.5 -117.5q0 -41 23 -62.5t62 -21.5q23 0 43 4.5t29 8.5l9 5v-117q-49 -24 -126 -24q-90 0 -136 44.5t-46 123.5q0 64 44 124t128 103q-52 -6 -110 -6
q-276 0 -399 135t-123 406q0 262 117 399t342 137q219 0 333.5 -130t114.5 -408zM289 594h522q-8 300 -258 300q-123 0 -190.5 -76t-73.5 -224z" />
    <glyph glyph-name="Ecaron" unicode="&#x11a;" horiz-adv-x="1226" 
d="M445 1858l206 -178l206 178l132 -32l-240 -270h-196l-240 270zM184 0v1434h927l11 -188h-726v-428h649v-188h-649v-442h743l-30 -188h-925z" />
    <glyph glyph-name="ecaron" unicode="&#x11b;" horiz-adv-x="1083" 
d="M759 1466l133 -32l-241 -269h-195l-241 269l133 32l204 -177zM614 -19q-276 0 -399 135t-123 406q0 262 117 399t342 137q219 0 333.5 -130t114.5 -408v-63h-710q4 -154 80.5 -229t250.5 -75q87 0 176.5 16.5t142.5 36.5l-30 -181q-49 -17 -130 -30.5t-165 -13.5z
M289 594h522q-8 300 -258 300q-123 0 -190.5 -76t-73.5 -224z" />
    <glyph glyph-name="Gcircumflex" unicode="&#x11c;" horiz-adv-x="1263" 
d="M460 1556l-133 32l241 270h195l241 -270l-133 -32l-205 178zM729 -29q-318 0 -472.5 182t-154.5 564q0 381 154.5 563.5t471.5 182.5q111 0 211 -21t155 -47l11 -198q-59 30 -163.5 54t-213.5 24q-214 0 -312.5 -130t-98.5 -428t99 -428.5t313 -130.5q91 0 201 26v588
h210v-724q-19 -9 -54.5 -21.5t-143 -34t-213.5 -21.5z" />
    <glyph glyph-name="gcircumflex" unicode="&#x11d;" horiz-adv-x="1155" 
d="M372 1161l-133 32l241 269h195l241 -269l-133 -32l-205 177zM494 -408q-159 0 -286 49l-30 186q52 -24 134 -43.5t165 -19.5q167 0 246 78.5t81 254.5v42q-9 -21 -30 -43.5t-57 -46.5t-94.5 -39t-128.5 -15q-205 0 -302 125.5t-97 398.5q0 280 97 409.5t302 129.5
q70 0 129 -17.5t94.5 -44.5t56.5 -51t30 -45l29 138h167v-930q0 -261 -125.5 -388.5t-380.5 -127.5zM549 167q135 0 195 81.5t60 270.5q0 196 -60 281t-195 85t-194.5 -85t-59.5 -281q0 -189 59.5 -270.5t194.5 -81.5z" />
    <glyph glyph-name="Gbreve" unicode="&#x11e;" horiz-adv-x="1263" 
d="M671 1547q-145 0 -223 78t-87 211l160 32q13 -194 150 -194q136 0 146 194l161 -32q-9 -133 -86 -211t-221 -78zM729 -29q-318 0 -472.5 182t-154.5 564q0 381 154.5 563.5t471.5 182.5q111 0 211 -21t155 -47l11 -198q-59 30 -163.5 54t-213.5 24q-214 0 -312.5 -130
t-98.5 -428t99 -428.5t313 -130.5q91 0 201 26v588h210v-724q-19 -9 -54.5 -21.5t-143 -34t-213.5 -21.5z" />
    <glyph glyph-name="gbreve" unicode="&#x11f;" horiz-adv-x="1155" 
d="M581 1153q-145 0 -223 78.5t-87 211.5l160 31q13 -193 150 -193q136 0 147 193l160 -31q-9 -133 -86 -211.5t-221 -78.5zM494 -408q-159 0 -286 49l-30 186q52 -24 134 -43.5t165 -19.5q167 0 246 78.5t81 254.5v42q-9 -21 -30 -43.5t-57 -46.5t-94.5 -39t-128.5 -15
q-205 0 -302 125.5t-97 398.5q0 280 97 409.5t302 129.5q70 0 129 -17.5t94.5 -44.5t56.5 -51t30 -45l29 138h167v-930q0 -261 -125.5 -388.5t-380.5 -127.5zM549 167q135 0 195 81.5t60 270.5q0 196 -60 281t-195 85t-194.5 -85t-59.5 -281q0 -189 59.5 -270.5t194.5 -81.5
z" />
    <glyph glyph-name="Gdotaccent" unicode="&#x120;" horiz-adv-x="1263" 
d="M570 1588v221h197v-221h-197zM729 -29q-318 0 -472.5 182t-154.5 564q0 381 154.5 563.5t471.5 182.5q111 0 211 -21t155 -47l11 -198q-59 30 -163.5 54t-213.5 24q-214 0 -312.5 -130t-98.5 -428t99 -428.5t313 -130.5q91 0 201 26v588h210v-724q-19 -9 -54.5 -21.5
t-143 -34t-213.5 -21.5z" />
    <glyph glyph-name="gdotaccent" unicode="&#x121;" horiz-adv-x="1155" 
d="M482 1192v222h197v-222h-197zM494 -408q-159 0 -286 49l-30 186q52 -24 134 -43.5t165 -19.5q167 0 246 78.5t81 254.5v42q-9 -21 -30 -43.5t-57 -46.5t-94.5 -39t-128.5 -15q-205 0 -302 125.5t-97 398.5q0 280 97 409.5t302 129.5q70 0 129 -17.5t94.5 -44.5t56.5 -51
t30 -45l29 138h167v-930q0 -261 -125.5 -388.5t-380.5 -127.5zM549 167q135 0 195 81.5t60 270.5q0 196 -60 281t-195 85t-194.5 -85t-59.5 -281q0 -189 59.5 -270.5t194.5 -81.5z" />
    <glyph glyph-name="uni0122" unicode="&#x122;" horiz-adv-x="1263" 
d="M729 -29q-318 0 -472.5 182t-154.5 564q0 381 154.5 563.5t471.5 182.5q111 0 211 -21t155 -47l11 -198q-59 30 -163.5 54t-213.5 24q-214 0 -312.5 -130t-98.5 -428t99 -428.5t313 -130.5q91 0 201 26v588h210v-724q-19 -9 -54.5 -21.5t-143 -34t-213.5 -21.5zM569 -477
l50 354h220l-166 -354h-104z" />
    <glyph glyph-name="uni0123" unicode="&#x123;" horiz-adv-x="1155" 
d="M469 1141l178 354h102l-58 -354h-222zM494 -408q-159 0 -286 49l-30 186q52 -24 134 -43.5t165 -19.5q167 0 246 78.5t81 254.5v42q-9 -21 -30 -43.5t-57 -46.5t-94.5 -39t-128.5 -15q-205 0 -302 125.5t-97 398.5q0 280 97 409.5t302 129.5q70 0 129 -17.5t94.5 -44.5
t56.5 -51t30 -45l29 138h167v-930q0 -261 -125.5 -388.5t-380.5 -127.5zM549 167q135 0 195 81.5t60 270.5q0 196 -60 281t-195 85t-194.5 -85t-59.5 -281q0 -189 59.5 -270.5t194.5 -81.5z" />
    <glyph glyph-name="Hcircumflex" unicode="&#x124;" horiz-adv-x="1404" 
d="M498 1556l-133 32l241 270h195l241 -270l-133 -32l-205 178zM1012 1434h210v-1434h-210v628h-616v-628h-212v1434h212v-615h616v615z" />
    <glyph glyph-name="hcircumflex" unicode="&#x125;" horiz-adv-x="1183" 
d="M45 1556l-132 32l240 270h196l240 -270l-132 -32l-206 178zM665 1058q187 0 282 -113t95 -308v-637h-197v590q0 147 -55 220t-182 73q-138 0 -197.5 -73t-59.5 -220v-590h-197v1422l197 31v-549q96 154 314 154z" />
    <glyph glyph-name="Hbar" unicode="&#x126;" horiz-adv-x="1454" 
d="M1409 1220v-126h-164v-1094h-210v628h-616v-628h-210v1094h-164v126h164v214h210v-214h616v214h210v-214h164zM1035 819v275h-616v-275h616z" />
    <glyph glyph-name="hbar" unicode="&#x127;" horiz-adv-x="1183" 
d="M665 1017q187 0 281.5 -113t94.5 -308v-596h-196v549q0 147 -55 220t-182 73q-138 0 -197.5 -73t-59.5 -220v-549h-197v1139h-145v113h145v167l197 30v-197h411v-113h-411v-310q37 93 112.5 140.5t201.5 47.5z" />
    <glyph glyph-name="Itilde" unicode="&#x128;" horiz-adv-x="579" 
d="M83 1585l-103 75q61 98 106 134t98 36q30 0 62 -17t54 -37.5t48 -37.5t46 -17q25 0 46 22t53 85l103 -74q-60 -99 -104 -135.5t-98 -36.5q-38 0 -77.5 27.5t-73.5 55t-59 27.5q-26 0 -47 -21.5t-54 -85.5zM184 0v1434h212v-1434h-212z" />
    <glyph glyph-name="itilde" unicode="&#x129;" horiz-adv-x="509" 
d="M48 1190l-102 75q61 98 105.5 134t97.5 36q30 0 62 -17t54 -37.5t48 -37.5t46 -17q26 0 47.5 22t52.5 84l102 -73q-60 -99 -104 -135.5t-98 -36.5q-38 0 -77.5 27.5t-73.5 55t-59 27.5q-26 0 -47 -21.5t-54 -85.5zM157 0v1038h196v-1038h-196z" />
    <glyph glyph-name="Imacron" unicode="&#x12a;" horiz-adv-x="579" 
d="M32 1656v128h511v-128h-511zM184 0v1434h212v-1434h-212z" />
    <glyph glyph-name="imacron" unicode="&#x12b;" horiz-adv-x="509" 
d="M-2 1261v128h512v-128h-512zM157 0v1038h196v-1038h-196z" />
    <glyph glyph-name="Ibreve" unicode="&#x12c;" horiz-adv-x="579" 
d="M292 1547q-139 0 -212.5 77.5t-84.5 211.5l160 32q6 -96 38 -145t99 -49q123 0 133 194l161 -32q-11 -134 -84 -211.5t-210 -77.5zM184 0v1434h212v-1434h-212z" />
    <glyph glyph-name="ibreve" unicode="&#x12d;" horiz-adv-x="509" 
d="M255 1153q-139 0 -212.5 78t-84.5 212l161 31q6 -96 37.5 -144.5t98.5 -48.5q124 0 134 193l160 -31q-11 -134 -84 -212t-210 -78zM157 0v1038h196v-1038h-196z" />
    <glyph glyph-name="Iogonek" unicode="&#x12e;" horiz-adv-x="577" 
d="M339 -282q22 0 41.5 4.5t27.5 9.5l9 4v-120q-47 -24 -123 -24q-88 0 -132.5 45t-44.5 125q0 67 41 131t116 107h-90v1434h210v-1434q-136 -93 -136 -197q0 -42 22 -63.5t59 -21.5z" />
    <glyph glyph-name="iogonek" unicode="&#x12f;" horiz-adv-x="509" 
d="M353 1415v-221h-196v221h196zM302 -282q47 0 74 18v-120q-46 -24 -118 -24q-89 0 -134 43.5t-45 120.5q0 66 40 131t109 113h-71v1038h196v-1038q-132 -104 -132 -203q0 -39 22 -59t59 -20z" />
    <glyph glyph-name="Idotaccent" unicode="&#x130;" horiz-adv-x="579" 
d="M191 1588v221h197v-221h-197zM184 0v1434h212v-1434h-212z" />
    <glyph glyph-name="dotlessi" unicode="&#x131;" horiz-adv-x="509" 
d="M157 0v1038h196v-1038h-196z" />
    <glyph glyph-name="IJ" unicode="&#x132;" horiz-adv-x="1619" 
d="M184 0v1434h212v-1434h-212zM932 -29q-86 0 -163.5 15t-121.5 34l-31 202q51 -22 134 -40t169 -18q162 0 240.5 91t78.5 288v891h212v-891q0 -572 -518 -572z" />
    <glyph glyph-name="ij" unicode="&#x133;" horiz-adv-x="1034" 
d="M157 1194v221h196v-221h-196zM681 1194v221h196v-221h-196zM157 0v1038h196v-1038h-196zM523 -408q-87 0 -158 32l-31 184q74 -43 155 -43q96 0 144 58.5t48 192.5v1022h196v-1022q0 -215 -92.5 -319.5t-261.5 -104.5z" />
    <glyph glyph-name="Jcircumflex" unicode="&#x134;" horiz-adv-x="1040" 
d="M591 1556l-125 32l207 270h177l207 -270l-125 -32l-170 180zM352 -29q-86 0 -163.5 15t-121.5 34l-31 202q51 -22 134 -40t169 -18q162 0 241 91.5t79 287.5v891h211v-891q0 -572 -518 -572z" />
    <glyph glyph-name="jcircumflex" unicode="&#x135;" horiz-adv-x="524" 
d="M97 1161l-125 32l207 269h177l206 -269l-124 -32l-170 180zM13 -408q-87 0 -158 32l-31 184q74 -43 154 -43q96 0 144.5 58.5t48.5 192.5v1022h196v-1022q0 -215 -92.5 -319.5t-261.5 -104.5z" />
    <glyph glyph-name="uni0136" unicode="&#x136;" horiz-adv-x="1308" 
d="M1050 0l-463 632h-191v-632h-212v1434h212v-619h191l438 619h239l-499 -701l532 -733h-247zM543 -457l51 355h219l-166 -355h-104z" />
    <glyph glyph-name="uni0137" unicode="&#x137;" horiz-adv-x="1085" 
d="M834 0l-327 447h-156v-447h-197v1422l197 31v-839h153l310 424h226l-375 -500l403 -538h-234zM425 -457l50 355h220l-166 -355h-104z" />
    <glyph glyph-name="kgreenlandic" unicode="&#x138;" horiz-adv-x="1085" 
d="M154 0v1038h197v-432h153l313 432h224l-375 -509l401 -529h-233l-327 439h-156v-439h-197z" />
    <glyph glyph-name="Lacute" unicode="&#x139;" horiz-adv-x="1134" 
d="M276 1556l-143 32l217 270h226zM184 0v1434h212v-1243h703l-30 -191h-885z" />
    <glyph glyph-name="lacute" unicode="&#x13a;" horiz-adv-x="509" 
d="M239 1556l-143 32l217 270h226zM157 0v1422l196 31v-1453h-196z" />
    <glyph glyph-name="uni013B" unicode="&#x13b;" horiz-adv-x="1134" 
d="M184 0v1434h212v-1243h703l-30 -191h-885zM501 -457l51 355h219l-166 -355h-104z" />
    <glyph glyph-name="uni013C" unicode="&#x13c;" horiz-adv-x="509" 
d="M157 0v1422l196 31v-1453h-196zM109 -457l50 355h220l-166 -355h-104z" />
    <glyph glyph-name="Lcaron" unicode="&#x13d;" horiz-adv-x="1138" 
d="M184 0v1434h212v-1243h703l-30 -191h-885zM682 1079l50 355h220l-166 -355h-104z" />
    <glyph glyph-name="lcaron" unicode="&#x13e;" horiz-adv-x="509" 
d="M157 0v1422l196 31v-1453h-196zM474 1104l45 330h194l-147 -330h-92z" />
    <glyph glyph-name="Ldot" unicode="&#x13f;" horiz-adv-x="1142" 
d="M184 0v1434h212v-1243h703l-30 -191h-885zM696 689v256h227v-256h-227z" />
    <glyph glyph-name="ldot" unicode="&#x140;" horiz-adv-x="661" 
d="M157 0v1422l196 31v-1453h-196zM483 715v223h197v-223h-197z" />
    <glyph glyph-name="Lslash" unicode="&#x141;" horiz-adv-x="1157" 
d="M420 191h703l-30 -191h-886v626l-154 -86v156l154 88v650h213v-550l360 206v-156l-360 -208v-535z" />
    <glyph glyph-name="lslash" unicode="&#x142;" horiz-adv-x="632" 
d="M573 1022v-152l-155 -91v-779h-197v686l-155 -95v152l155 91v588l197 31v-525z" />
    <glyph glyph-name="Nacute" unicode="&#x143;" horiz-adv-x="1443" 
d="M700 1556l-144 32l218 270h226zM1063 1434h197v-1434h-181l-696 1067v-1067h-199v1434h183l696 -1066v1066z" />
    <glyph glyph-name="nacute" unicode="&#x144;" horiz-adv-x="1183" 
d="M583 1161l-143 32l218 269h226zM154 0v1038h166l31 -137q90 157 308 157q189 0 286 -113t97 -314v-631h-197v590q0 149 -57 221t-185 72q-133 0 -192.5 -72t-59.5 -221v-590h-197z" />
    <glyph glyph-name="uni0145" unicode="&#x145;" horiz-adv-x="1443" 
d="M1063 1434h197v-1434h-181l-696 1067v-1067h-199v1434h183l696 -1066v1066zM581 -457l50 355h220l-166 -355h-104z" />
    <glyph glyph-name="uni0146" unicode="&#x146;" horiz-adv-x="1183" 
d="M154 0v1038h166l31 -137q90 157 308 157q189 0 286 -112.5t97 -313.5v-632h-197v590q0 149 -57 221t-185 72q-133 0 -192.5 -72t-59.5 -221v-590h-197zM450 -457l51 355h219l-166 -355h-104z" />
    <glyph glyph-name="Ncaron" unicode="&#x147;" horiz-adv-x="1443" 
d="M512 1858l206 -178l206 178l132 -32l-240 -270h-196l-241 270zM1063 1434h197v-1434h-181l-696 1067v-1067h-199v1434h183l696 -1066v1066z" />
    <glyph glyph-name="ncaron" unicode="&#x148;" horiz-adv-x="1183" 
d="M807 1466l133 -32l-241 -269h-196l-240 269l133 32l203 -177zM154 0v1038h166l31 -137q90 157 308 157q189 0 286 -112.5t97 -313.5v-632h-197v590q0 149 -57 221t-185 72q-133 0 -192.5 -72t-59.5 -221v-590h-197z" />
    <glyph glyph-name="napostrophe" unicode="&#x149;" horiz-adv-x="1280" 
d="M47 1142l45 329h194l-147 -329h-92zM251 0v1038h165l31 -137q90 157 309 157q189 0 285.5 -112.5t96.5 -313.5v-632h-196v590q0 149 -57.5 221t-185.5 72q-133 0 -192.5 -72t-59.5 -221v-590h-196z" />
    <glyph glyph-name="Eng" unicode="&#x14a;" horiz-adv-x="1443" 
d="M1063 1434h197v-1434q0 -207 -83.5 -307.5t-238.5 -100.5q-32 0 -66.5 7t-50.5 12.5t-24 9.5l-29 171q64 -40 134 -40q88 0 132.5 58t44.5 190l-696 1067v-1067h-199v1434h183l696 -1066v1066z" />
    <glyph glyph-name="eng" unicode="&#x14b;" horiz-adv-x="1183" 
d="M659 1058q189 0 286 -112.5t97 -313.5v-632q0 -207 -84 -307.5t-239 -100.5q-84 0 -142 29l-29 171q59 -40 129 -40q83 0 125.5 58t42.5 190v590q0 149 -57 221t-185 72q-133 0 -192.5 -72t-59.5 -221v-590h-197v1038h166l31 -137q90 157 308 157z" />
    <glyph glyph-name="Omacron" unicode="&#x14c;" horiz-adv-x="1349" 
d="M377 1656v128h594v-128h-594zM676 -29q-195 0 -319.5 74t-188 239.5t-63.5 432.5t63.5 432.5t188 239.5t319.5 74t319 -74t187 -239.5t63 -432.5t-63 -432.5t-187 -239.5t-319 -74zM676 158q124 0 199.5 50t115.5 174t40 335q0 212 -40 335.5t-115.5 173t-199.5 49.5
q-93 0 -157 -27t-110 -91t-67.5 -172t-21.5 -268q0 -211 40.5 -335t116 -174t199.5 -50z" />
    <glyph glyph-name="omacron" unicode="&#x14d;" horiz-adv-x="1093" 
d="M249 1261v128h594v-128h-594zM546 -19q-235 0 -343.5 129.5t-108.5 408.5t108.5 409t343.5 130t344 -130t109 -409t-109 -408.5t-344 -129.5zM546 153q135 0 194 85t59 281t-59 281t-194 85t-193.5 -84.5t-58.5 -281.5t58.5 -281.5t193.5 -84.5z" />
    <glyph glyph-name="Obreve" unicode="&#x14e;" horiz-adv-x="1349" 
d="M678 1547q-145 0 -223 78t-87 211l160 32q13 -194 150 -194t147 194l160 -32q-9 -133 -86 -211t-221 -78zM676 -29q-195 0 -319.5 74t-188 239.5t-63.5 432.5t63.5 432.5t188 239.5t319.5 74t319 -74t187 -239.5t63 -432.5t-63 -432.5t-187 -239.5t-319 -74zM676 158
q124 0 199.5 50t115.5 174t40 335q0 212 -40 335.5t-115.5 173t-199.5 49.5q-93 0 -157 -27t-110 -91t-67.5 -172t-21.5 -268q0 -211 40.5 -335t116 -174t199.5 -50z" />
    <glyph glyph-name="obreve" unicode="&#x14f;" horiz-adv-x="1093" 
d="M546 1153q-145 0 -223 78.5t-87 211.5l161 31q13 -193 149 -193t147 193l161 -31q-9 -133 -86.5 -211.5t-221.5 -78.5zM546 -19q-235 0 -343.5 129.5t-108.5 408.5t108.5 409t343.5 130t344 -130t109 -409t-109 -408.5t-344 -129.5zM546 153q135 0 194 85t59 281t-59 281
t-194 85t-193.5 -84.5t-58.5 -281.5t58.5 -281.5t193.5 -84.5z" />
    <glyph glyph-name="Ohungarumlaut" unicode="&#x150;" horiz-adv-x="1349" 
d="M519 1556l-118 32l200 270h188zM841 1556l-118 32l198 270h190zM676 -29q-195 0 -319.5 74t-188 239.5t-63.5 432.5t63.5 432.5t188 239.5t319.5 74t319 -74t187 -239.5t63 -432.5t-63 -432.5t-187 -239.5t-319 -74zM676 158q124 0 199.5 50t115.5 174t40 335
q0 212 -40 335.5t-115.5 173t-199.5 49.5q-93 0 -157 -27t-110 -91t-67.5 -172t-21.5 -268q0 -211 40.5 -335t116 -174t199.5 -50z" />
    <glyph glyph-name="ohungarumlaut" unicode="&#x151;" horiz-adv-x="1093" 
d="M390 1161l-118 32l200 269h188zM711 1161l-118 32l199 269h189zM546 -19q-235 0 -343.5 129.5t-108.5 408.5t108.5 409t343.5 130t344 -130t109 -409t-109 -408.5t-344 -129.5zM546 153q135 0 194 85t59 281t-59 281t-194 85t-193.5 -84.5t-58.5 -281.5t58.5 -281.5
t193.5 -84.5z" />
    <glyph glyph-name="OE" unicode="&#x152;" horiz-adv-x="2060" 
d="M1241 188h730l-31 -188h-909v112q-111 -141 -355 -141q-195 0 -319.5 74t-188 239.5t-63.5 432.5t63.5 432.5t188 239.5t319.5 74q244 0 355 -141v112h911l11 -188h-712v-428h635v-188h-635v-442zM676 158q124 0 199.5 50t115.5 174t40 335q0 212 -40 335.5t-115.5 173
t-199.5 49.5q-93 0 -157 -27t-110 -91t-67.5 -172t-21.5 -268q0 -211 40.5 -335t116 -174t199.5 -50z" />
    <glyph glyph-name="oe" unicode="&#x153;" horiz-adv-x="1777" 
d="M1694 520v-63h-709q2 -154 77.5 -229t251.5 -75q79 0 161 13.5t125 26.5l42 13l-31 -181q-15 -5 -41 -12.5t-105.5 -19.5t-156.5 -12q-282 0 -400 166q-100 -166 -362 -166q-235 0 -343.5 129.5t-108.5 408.5t108.5 409t343.5 130q259 0 360 -163q110 163 340 163
q219 0 333.5 -130t114.5 -408zM1247 894q-123 0 -190 -76t-72 -224h520q-8 300 -258 300zM546 153q135 0 194 85t59 281t-59 281t-194 85t-193.5 -84.5t-58.5 -281.5t58.5 -281.5t193.5 -84.5z" />
    <glyph glyph-name="Racute" unicode="&#x154;" horiz-adv-x="1343" 
d="M641 1556l-144 32l218 270h226zM1278 0h-238l-341 566h-303v-566h-212v1434h541q252 0 376.5 -111.5t124.5 -326.5q0 -335 -308 -406zM396 1251v-506h329q146 0 216.5 63t70.5 190q0 128 -70.5 190.5t-216.5 62.5h-329z" />
    <glyph glyph-name="racute" unicode="&#x155;" horiz-adv-x="825" 
d="M443 1161l-143 32l218 269h226zM154 0v1038h166l31 -136q49 80 118.5 118t171.5 38q93 0 143 -26l12 -190q-24 16 -73.5 29.5t-108.5 13.5q-125 0 -194 -69.5t-69 -211.5v-604h-197z" />
    <glyph glyph-name="uni0156" unicode="&#x156;" horiz-adv-x="1343" 
d="M1278 0h-238l-341 566h-303v-566h-212v1434h540q252 0 377 -111.5t125 -326.5q0 -335 -308 -406zM396 1251v-506h328q288 0 288 253q0 128 -71 190.5t-217 62.5h-328zM550 -457l51 355h219l-166 -355h-104z" />
    <glyph glyph-name="uni0157" unicode="&#x157;" horiz-adv-x="825" 
d="M154 0v1038h166l31 -136q49 80 118.5 118t171.5 38q93 0 143 -26l12 -190q-24 16 -73.5 29.5t-108.5 13.5q-125 0 -194 -69.5t-69 -211.5v-604h-197zM103 -457l51 355h219l-166 -355h-104z" />
    <glyph glyph-name="Rcaron" unicode="&#x158;" horiz-adv-x="1343" 
d="M453 1858l206 -178l205 178l133 -32l-241 -270h-195l-241 270zM1278 0h-238l-341 566h-303v-566h-212v1434h540q252 0 377 -111.5t125 -326.5q0 -335 -308 -406zM396 1251v-506h328q288 0 288 253q0 128 -71 190.5t-217 62.5h-328z" />
    <glyph glyph-name="rcaron" unicode="&#x159;" horiz-adv-x="825" 
d="M667 1466l133 -32l-241 -269h-195l-241 269l133 32l204 -177zM154 0v1038h166l31 -136q49 80 118.5 118t171.5 38q93 0 143 -26l12 -190q-24 16 -73.5 29.5t-108.5 13.5q-125 0 -194 -69.5t-69 -211.5v-604h-197z" />
    <glyph glyph-name="Sacute" unicode="&#x15a;" horiz-adv-x="1200" 
d="M588 1556l-143 32l217 270h226zM599 -29q-139 0 -267 21.5t-200 47.5l-30 204q84 -33 219 -59.5t268 -26.5q328 0 328 224q0 91 -56.5 140.5t-188.5 84.5l-251 64q-167 44 -249.5 137t-82.5 255q0 184 128.5 292t383.5 108q134 0 254.5 -19.5t187.5 -42.5l9 -195
q-74 26 -194 47.5t-241 21.5q-315 0 -315 -206q0 -92 53.5 -141t183.5 -83l246 -63q116 -31 189.5 -77.5t115 -125.5t41.5 -193q0 -193 -132.5 -304t-399.5 -111z" />
    <glyph glyph-name="sacute" unicode="&#x15b;" horiz-adv-x="968" 
d="M475 1161l-143 32l217 269h226zM471 -22q-101 0 -196.5 17.5t-150.5 39.5l-31 182q58 -26 158 -47.5t204 -21.5q245 0 245 137q0 60 -33.5 90t-124.5 48l-173 35q-149 30 -213 100t-64 195q0 145 104 225t316 80q92 0 178 -15t137 -33l11 -179q-45 21 -128 38.5
t-178 17.5q-248 0 -248 -128q0 -56 34.5 -86t123.5 -48l167 -33q154 -31 219 -101t65 -201q0 -150 -103.5 -231t-318.5 -81z" />
    <glyph glyph-name="Scircumflex" unicode="&#x15c;" horiz-adv-x="1200" 
d="M396 1556l-133 32l241 270h195l241 -270l-133 -32l-205 178zM599 -29q-139 0 -267 21.5t-200 47.5l-30 204q84 -33 219 -59.5t268 -26.5q328 0 328 224q0 91 -56.5 140.5t-188.5 84.5l-251 64q-167 44 -249.5 137t-82.5 255q0 184 128.5 292t383.5 108q134 0 254.5 -19.5
t187.5 -42.5l9 -195q-74 26 -194 47.5t-241 21.5q-315 0 -315 -206q0 -92 53.5 -141t183.5 -83l246 -63q116 -31 189.5 -77.5t115 -125.5t41.5 -193q0 -193 -132.5 -304t-399.5 -111z" />
    <glyph glyph-name="scircumflex" unicode="&#x15d;" horiz-adv-x="968" 
d="M283 1161l-133 32l241 269h195l241 -269l-133 -32l-205 177zM471 -22q-101 0 -196.5 17.5t-150.5 39.5l-31 182q58 -26 158 -47.5t204 -21.5q245 0 245 137q0 60 -33.5 90t-124.5 48l-173 35q-149 30 -213 100t-64 195q0 145 104 225t316 80q92 0 178 -15t137 -33
l11 -179q-45 21 -128 38.5t-178 17.5q-248 0 -248 -128q0 -56 34.5 -86t123.5 -48l167 -33q154 -31 219 -101t65 -201q0 -150 -103.5 -231t-318.5 -81z" />
    <glyph glyph-name="Scedilla" unicode="&#x15e;" horiz-adv-x="1200" 
d="M1131 386q0 -182 -118.5 -292t-356.5 -122l-18 -53q84 -4 124 -44t40 -105q0 -84 -56 -129t-158 -45q-32 0 -62 6t-44 12l-15 5v106q49 -25 116 -25q102 0 102 70q0 72 -101 72h-70l43 130q-128 3 -243 23.5t-182 44.5l-30 204q84 -33 219 -59.5t268 -26.5q328 0 328 224
q0 91 -56.5 140.5t-188.5 84.5l-251 64q-167 44 -249.5 137t-82.5 255q0 184 128.5 292t383.5 108q134 0 254.5 -19.5t187.5 -42.5l9 -195q-74 26 -194 47.5t-241 21.5q-315 0 -315 -206q0 -92 53.5 -141t183.5 -83l246 -63q116 -31 189.5 -77.5t115 -125.5t41.5 -193z" />
    <glyph glyph-name="scedilla" unicode="&#x15f;" horiz-adv-x="968" 
d="M893 290q0 -282 -347 -309l-21 -62q84 -4 124 -44t40 -105q0 -84 -56 -129t-158 -45q-32 0 -62 6t-45 12l-14 5v106q49 -25 116 -25q102 0 102 70q0 72 -101 72h-70l45 137q-95 2 -182.5 19t-139.5 37l-31 182q58 -26 158 -47.5t204 -21.5q245 0 245 137q0 60 -33.5 90
t-124.5 48l-173 35q-149 30 -213 100t-64 195q0 145 104 225t316 80q92 0 178 -15t137 -33l11 -179q-45 21 -128 38.5t-178 17.5q-248 0 -248 -128q0 -56 34.5 -86t123.5 -48l167 -33q154 -31 219 -101t65 -201z" />
    <glyph glyph-name="Scaron" unicode="&#x160;" horiz-adv-x="1200" 
d="M400 1858l206 -178l206 178l132 -32l-240 -270h-196l-240 270zM599 -29q-139 0 -267 21.5t-200 47.5l-30 204q84 -33 219 -59.5t268 -26.5q328 0 328 224q0 91 -56.5 140.5t-188.5 84.5l-251 64q-167 44 -249.5 137t-82.5 255q0 184 128.5 292t383.5 108
q134 0 254.5 -19.5t187.5 -42.5l9 -195q-74 26 -194 47.5t-241 21.5q-315 0 -315 -206q0 -92 53.5 -141t183.5 -83l246 -63q116 -31 189.5 -77.5t115 -125.5t41.5 -193q0 -193 -132.5 -304t-399.5 -111z" />
    <glyph glyph-name="scaron" unicode="&#x161;" horiz-adv-x="968" 
d="M699 1466l132 -32l-240 -269h-196l-240 269l132 32l204 -177zM471 -22q-101 0 -196.5 17.5t-150.5 39.5l-31 182q58 -26 158 -47.5t204 -21.5q245 0 245 137q0 60 -33.5 90t-124.5 48l-173 35q-149 30 -213 100t-64 195q0 145 104 225t316 80q92 0 178 -15t137 -33
l11 -179q-45 21 -128 38.5t-178 17.5q-248 0 -248 -128q0 -56 34.5 -86t123.5 -48l167 -33q154 -31 219 -101t65 -201q0 -150 -103.5 -231t-318.5 -81z" />
    <glyph glyph-name="uni0162" unicode="&#x162;" horiz-adv-x="1118" 
d="M665 0h-67l-28 -81q82 -4 122 -44t40 -105q0 -83 -56.5 -128.5t-157.5 -45.5q-39 0 -76 6.5t-54 13.5l-18 6v106q61 -27 144 -27q47 0 74 18t27 53q0 69 -100 69h-70l52 159h-44v1243h-413v191h1038v-191h-413v-1243z" />
    <glyph glyph-name="uni0163" unicode="&#x163;" horiz-adv-x="821" 
d="M756 20q-23 -15 -73.5 -26.5t-112.5 -12.5l-21 -62q84 -4 124 -44t40 -105q0 -84 -56 -129t-158 -45q-32 0 -62 6t-45 12l-14 5v106q49 -25 116 -25q101 0 101 70q0 72 -100 72h-70l48 146q-264 48 -264 394v492h-172v164h172v205l196 46v-251h363v-164h-363v-492
q0 -124 46.5 -176t142.5 -52q106 0 192 38z" />
    <glyph glyph-name="Tcaron" unicode="&#x164;" horiz-adv-x="1118" 
d="M355 1858l206 -178l205 178l133 -32l-241 -270h-195l-241 270zM1078 1434v-191h-413v-1243h-212v1243h-413v191h1038z" />
    <glyph glyph-name="tcaron" unicode="&#x165;" horiz-adv-x="821" 
d="M584 1119l46 329h186l-144 -329h-88zM594 154q106 0 192 38l-30 -172q-24 -15 -77 -27t-119 -12q-169 0 -260 98.5t-91 302.5v492h-172v164h172v205l196 46v-251h363v-164h-363v-492q0 -124 46.5 -176t142.5 -52z" />
    <glyph glyph-name="Tbar" unicode="&#x166;" horiz-adv-x="1140" 
d="M1090 1243h-414v-445h244v-141h-244v-657h-211v657h-244v141h244v445h-414v191h1039v-191z" />
    <glyph glyph-name="tbar" unicode="&#x167;" horiz-adv-x="845" 
d="M610 154q106 0 192 38l-30 -172q-24 -15 -77 -27t-119 -12q-169 0 -260.5 98.5t-91.5 302.5v149h-171v128h171v215h-171v164h171v205l197 46v-251h363v-164h-363v-215h363v-128h-363v-149q0 -124 46.5 -176t142.5 -52z" />
    <glyph glyph-name="Utilde" unicode="&#x168;" horiz-adv-x="1366" 
d="M443 1585l-104 75q70 99 121 134.5t112 35.5q33 0 68 -17t60 -37.5t53.5 -37.5t49.5 -17q29 0 55.5 22t71.5 85l104 -74q-69 -99 -120 -135.5t-111 -36.5q-33 0 -68 17t-60 38t-53.5 38t-49.5 17q-31 0 -58 -21.5t-71 -85.5zM683 -29q-261 0 -387.5 130.5t-126.5 404.5
v928h210v-928q0 -186 75.5 -266.5t228.5 -80.5q151 0 226.5 80.5t75.5 266.5v928h212v-928q0 -274 -127 -404.5t-387 -130.5z" />
    <glyph glyph-name="utilde" unicode="&#x169;" horiz-adv-x="1183" 
d="M341 1190l-104 75q71 99 121 134.5t111 35.5q42 0 86 -27.5t81.5 -54.5t63.5 -27q29 0 55.5 21.5t71.5 84.5l104 -73q-69 -99 -120 -135.5t-111 -36.5q-33 0 -68 17t-60 38t-53.5 38t-49.5 17q-31 0 -57 -21.5t-71 -85.5zM525 -19q-189 0 -286 112.5t-97 313.5v631h197
v-589q0 -149 57 -221t185 -72q133 0 192.5 72t59.5 221v589h197v-1038h-165l-32 138q-90 -157 -308 -157z" />
    <glyph glyph-name="Umacron" unicode="&#x16a;" horiz-adv-x="1366" 
d="M385 1656v128h593v-128h-593zM683 -29q-261 0 -387.5 130.5t-126.5 404.5v928h210v-928q0 -186 75.5 -266.5t228.5 -80.5q151 0 226.5 80.5t75.5 266.5v928h212v-928q0 -274 -127 -404.5t-387 -130.5z" />
    <glyph glyph-name="umacron" unicode="&#x16b;" horiz-adv-x="1183" 
d="M283 1261v128h594v-128h-594zM525 -19q-189 0 -286 112.5t-97 313.5v631h197v-589q0 -149 57 -221t185 -72q133 0 192.5 72t59.5 221v589h197v-1038h-165l-32 138q-90 -157 -308 -157z" />
    <glyph glyph-name="Uring" unicode="&#x16e;" horiz-adv-x="1366" 
d="M683 1546q-102 0 -168 61.5t-66 164.5q0 104 66 165.5t168 61.5q101 0 166.5 -61.5t65.5 -165.5q0 -103 -65.5 -164.5t-166.5 -61.5zM683 1651q54 0 85.5 33t31.5 88q0 56 -31.5 89t-85.5 33q-55 0 -87 -33t-32 -89q0 -55 32 -88t87 -33zM683 -29q-261 0 -387.5 130.5
t-126.5 404.5v928h210v-928q0 -186 75.5 -266.5t228.5 -80.5q151 0 226.5 80.5t75.5 266.5v928h212v-928q0 -274 -127 -404.5t-387 -130.5z" />
    <glyph glyph-name="uring" unicode="&#x16f;" horiz-adv-x="1183" 
d="M580 1151q-102 0 -168 61.5t-66 164.5q0 104 66 165.5t168 61.5q101 0 167 -61.5t66 -165.5q0 -103 -66 -164.5t-167 -61.5zM580 1256q54 0 86 33t32 88q0 56 -32 89t-86 33q-55 0 -87 -33t-32 -89q0 -55 32 -88t87 -33zM525 -19q-189 0 -286 112.5t-97 313.5v631h197
v-589q0 -149 57 -221t185 -72q133 0 192.5 72t59.5 221v589h197v-1038h-165l-32 138q-90 -157 -308 -157z" />
    <glyph glyph-name="Uhungarumlaut" unicode="&#x170;" horiz-adv-x="1366" 
d="M527 1556l-118 32l200 270h188zM848 1556l-118 32l199 270h189zM683 -29q-261 0 -387.5 130.5t-126.5 404.5v928h210v-928q0 -186 75.5 -266.5t228.5 -80.5q151 0 226.5 80.5t75.5 266.5v928h212v-928q0 -274 -127 -404.5t-387 -130.5z" />
    <glyph glyph-name="uhungarumlaut" unicode="&#x171;" horiz-adv-x="1183" 
d="M424 1161l-118 32l200 269h188zM746 1161l-118 32l199 269h189zM525 -19q-189 0 -286 112.5t-97 313.5v631h197v-589q0 -149 57 -221t185 -72q133 0 192.5 72t59.5 221v589h197v-1038h-165l-32 138q-90 -157 -308 -157z" />
    <glyph glyph-name="Uogonek" unicode="&#x172;" horiz-adv-x="1366" 
d="M985 1434h212v-928q0 -212 -75.5 -337t-228.5 -171q-148 -98 -148 -201q0 -39 22 -59t60 -20q21 0 39.5 4.5t26.5 9.5l8 4v-120q-45 -24 -119 -24q-89 0 -134.5 43.5t-45.5 120.5q0 121 126 216q-15 -1 -45 -1q-261 0 -387.5 130.5t-126.5 404.5v928h210v-928
q0 -186 75.5 -266.5t228.5 -80.5q151 0 226.5 80.5t75.5 266.5v928z" />
    <glyph glyph-name="uogonek" unicode="&#x173;" horiz-adv-x="1183" 
d="M960 -282q21 0 40 4.5t27 9.5l8 4v-120q-46 -24 -120 -24q-89 0 -134 43.5t-45 120.5q0 67 44 131.5t124 112.5h-41l-30 138q-91 -157 -309 -157q-188 0 -285 112.5t-97 312.5v632h197v-589q0 -149 57 -221t184 -72q133 0 193 72t60 221v589h197v-1038
q-152 -98 -152 -203q0 -39 22 -59t60 -20z" />
    <glyph glyph-name="Wcircumflex" unicode="&#x174;" horiz-adv-x="1820" 
d="M704 1556l-132 32l240 270h196l240 -270l-132 -32l-206 178zM1560 1434h206l-297 -1434h-206l-352 961l-351 -961h-206l-299 1434h211l217 -1117l417 1117h29l414 -1118z" />
    <glyph glyph-name="wcircumflex" unicode="&#x175;" horiz-adv-x="1519" 
d="M552 1161l-133 32l241 269h196l240 -269l-132 -32l-206 177zM1270 1038h190l-243 -1038h-204l-254 637l-253 -637h-204l-241 1038h194l178 -785l318 784h25l316 -779z" />
    <glyph glyph-name="Ycircumflex" unicode="&#x176;" horiz-adv-x="1249" 
d="M414 1556l-133 32l241 270h196l240 -270l-133 -32l-205 178zM1221 1434l-490 -883v-551h-212v551l-493 883h235l367 -665l364 665h229z" />
    <glyph glyph-name="ycircumflex" unicode="&#x177;" horiz-adv-x="1040" 
d="M320 1161l-132 32l240 269h196l240 -269l-132 -32l-206 177zM280 -408q-98 0 -148 31l-32 172q58 -29 131 -29q62 0 101 30.5t67 105.5l38 99l-414 1037h213l300 -787l271 787h205l-436 -1190q-50 -136 -122 -196t-174 -60z" />
    <glyph glyph-name="Ydieresis" unicode="&#x178;" horiz-adv-x="1249" 
d="M333 1589v221h182v-221h-182zM727 1589v221h182v-221h-182zM1221 1434l-490 -883v-551h-212v551l-493 883h235l367 -665l364 665h229z" />
    <glyph glyph-name="Zacute" unicode="&#x179;" horiz-adv-x="1148" 
d="M558 1556l-144 32l218 270h226zM331 191h742l-31 -191h-968v170l730 1073h-704v191h958v-171z" />
    <glyph glyph-name="zacute" unicode="&#x17a;" horiz-adv-x="954" 
d="M456 1161l-143 32l217 269h226zM317 170h565l-30 -170h-775v150l545 717h-528v171h768v-150z" />
    <glyph glyph-name="Zdotaccent" unicode="&#x17b;" horiz-adv-x="1148" 
d="M476 1588v221h197v-221h-197zM331 191h742l-31 -191h-968v170l730 1073h-704v191h958v-171z" />
    <glyph glyph-name="zdotaccent" unicode="&#x17c;" horiz-adv-x="954" 
d="M374 1192v222h197v-222h-197zM317 170h565l-30 -170h-775v150l545 717h-528v171h768v-150z" />
    <glyph glyph-name="Zcaron" unicode="&#x17d;" horiz-adv-x="1148" 
d="M370 1858l206 -178l205 178l133 -32l-240 -270h-196l-241 270zM331 191h742l-31 -191h-968v170l730 1073h-704v191h958v-171z" />
    <glyph glyph-name="zcaron" unicode="&#x17e;" horiz-adv-x="954" 
d="M680 1466l132 -32l-240 -269h-196l-240 269l132 32l204 -177zM317 170h565l-30 -170h-775v150l545 717h-528v171h768v-150z" />
    <glyph glyph-name="longs" unicode="&#x17f;" horiz-adv-x="608" 
d="M778 1423l10 -173q-70 36 -182 36q-97 0 -145 -51t-48 -165v-1070h-197v874h-170v164h170v32q0 193 96 288t269 95q107 0 197 -30z" />
    <glyph glyph-name="florin" unicode="&#x192;" horiz-adv-x="1015" 
d="M832 1455q102 0 157 -30l-2 -183q-51 38 -135 38q-85 0 -138 -54.5t-75 -183.5l-24 -135h234l-28 -164h-234l-133 -767q-64 -384 -388 -384q-99 0 -154 30l1 183q51 -38 133 -38q86 0 138 54t75 183l129 739h-234l29 164h233l29 164q65 384 387 384z" />
    <glyph glyph-name="Aringacute" unicode="&#x1fa;" horiz-adv-x="1331" 
d="M994 2233l-299 -287l-145 32l218 255h226zM662 1473q-106 0 -173.5 58.5t-67.5 158.5q0 99 67.5 157t173.5 58t174 -58t68 -157q0 -100 -68 -158.5t-174 -58.5zM662 1808q-58 0 -92 -32t-34 -86t34 -86t92 -32t92 32t34 86t-34 86t-92 32zM1088 0l-121 337h-610
l-121 -337h-218l543 1434h208l544 -1434h-225zM423 519h479l-240 665z" />
    <glyph glyph-name="aringacute" unicode="&#x1fb;" horiz-adv-x="1077" 
d="M517 1625l-145 33l215 228h231zM515 1110q-112 0 -184 62.5t-72 167.5t72 167.5t184 62.5t184.5 -62.5t72.5 -167.5t-72.5 -167.5t-184.5 -62.5zM515 1214q65 0 103.5 34t38.5 92q0 57 -38.5 91.5t-103.5 34.5q-66 0 -104 -34t-38 -92q0 -59 37.5 -92.5t104.5 -33.5z
M419 -19q-169 0 -257.5 84.5t-88.5 235.5q0 142 93.5 221.5t270.5 79.5h301v56q0 118 -57 170t-199 52q-171 0 -326 -41l31 177q146 36 330 36q217 0 317 -99.5t100 -294.5v-658h-165l-31 140q-74 -159 -319 -159zM463 137q138 0 206.5 59.5t68.5 193.5v72h-268
q-200 0 -200 -159q0 -166 193 -166z" />
    <glyph glyph-name="AEacute" unicode="&#x1fc;" horiz-adv-x="1982" 
d="M1622 1858l-300 -302l-144 32l218 270h226zM1151 188h743l-30 -188h-925v360h-516l-217 -360h-219l872 1434h1007l11 -188h-726v-428h649v-188h-649v-442zM532 542h407v678z" />
    <glyph glyph-name="aeacute" unicode="&#x1fd;" horiz-adv-x="1728" 
d="M858 1161l-144 32l218 269h226zM447 -19q-193 0 -285 83t-92 235q0 141 92 218.5t264 77.5h312v63q0 118 -57 170t-198 52q-173 0 -319 -37l31 177q148 32 324 32q252 0 335 -161q106 167 344 167q448 0 448 -530v-71h-711q3 -158 79.5 -231t251.5 -73q87 0 176 16.5
t142 36.5l-30 -181q-48 -17 -129 -30.5t-165 -13.5q-297 0 -414 184q-98 -184 -399 -184zM935 595h521q-8 299 -257 299q-123 0 -190.5 -75.5t-73.5 -223.5zM461 137q140 0 208.5 60.5t68.5 192.5v67h-289q-89 0 -135.5 -41.5t-46.5 -116.5q0 -79 49 -120.5t145 -41.5z" />
    <glyph glyph-name="Oslashacute" unicode="&#x1fe;" horiz-adv-x="1398" 
d="M1009 1858l-300 -302l-144 32l218 270h226zM1343 1451l-171 -227q96 -174 96 -507q0 -267 -63.5 -432.5t-187.5 -239.5t-319 -74q-261 0 -395 134l-96 -123h-151l172 223q-99 179 -99 512q0 267 63.5 432.5t187 239.5t318.5 74q261 0 397 -136l98 124h150zM698 1275
q-124 0 -199.5 -49.5t-115.5 -173t-40 -335.5q0 -207 38 -332l580 778q-81 112 -263 112zM698 158q124 0 199.5 50t115.5 174t40 335q0 204 -36 327l-579 -777q81 -109 260 -109z" />
    <glyph glyph-name="oslashacute" unicode="&#x1ff;" horiz-adv-x="1132" 
d="M854 1462l-301 -301l-143 32l218 269h226zM1082 1057l-141 -173q77 -126 77 -365q0 -279 -109 -408.5t-342 -129.5q-199 0 -307 92l-76 -92h-134l142 172q-78 128 -78 366q0 279 109 409t344 130q197 0 306 -94l76 93h133zM567 885q-135 0 -194 -85t-59 -281
q0 -126 23 -202l411 499q-58 69 -181 69zM567 153q135 0 193 84.5t58 281.5q0 126 -21 199l-412 -496q59 -69 182 -69z" />
    <glyph glyph-name="uni0218" unicode="&#x218;" horiz-adv-x="1200" 
d="M599 -29q-139 0 -267 21.5t-200 47.5l-30 204q84 -33 219 -59.5t268 -26.5q328 0 328 224q0 91 -56.5 140.5t-188.5 84.5l-251 64q-167 44 -249.5 137t-82.5 255q0 184 128.5 292t383.5 108q134 0 254.5 -19.5t187.5 -42.5l9 -195q-74 26 -194 47.5t-241 21.5
q-315 0 -315 -206q0 -92 53.5 -141t183.5 -83l246 -63q116 -31 189.5 -77.5t115 -125.5t41.5 -193q0 -193 -132.5 -304t-399.5 -111zM465 -457l51 355h219l-166 -355h-104z" />
    <glyph glyph-name="uni0219" unicode="&#x219;" horiz-adv-x="968" 
d="M471 -22q-101 0 -196.5 17.5t-150.5 39.5l-31 182q58 -26 158 -47.5t204 -21.5q245 0 245 137q0 60 -33.5 90t-124.5 48l-173 35q-149 30 -213 100t-64 195q0 145 104 225t316 80q92 0 178 -15t137 -33l11 -179q-45 21 -128 38.5t-178 17.5q-248 0 -248 -128
q0 -56 34.5 -86t123.5 -48l167 -33q154 -31 219 -101t65 -201q0 -150 -103.5 -231t-318.5 -81zM352 -457l51 355h219l-166 -355h-104z" />
    <glyph glyph-name="uni021A" unicode="&#x21a;" horiz-adv-x="1118" 
d="M1078 1434v-191h-413v-1243h-212v1243h-413v191h1038zM412 -457l51 355h219l-166 -355h-104z" />
    <glyph glyph-name="uni021B" unicode="&#x21b;" horiz-adv-x="821" 
d="M594 154q106 0 192 38l-30 -172q-24 -15 -77 -27t-119 -12q-169 0 -260 98.5t-91 302.5v492h-172v164h172v205l196 46v-251h363v-164h-363v-492q0 -124 46.5 -176t142.5 -52zM376 -457l51 355h219l-166 -355h-104z" />
    <glyph glyph-name="uni0237" unicode="&#x237;" horiz-adv-x="524" 
d="M13 -408q-87 0 -158 32l-31 184q74 -43 154 -43q96 0 144.5 58.5t48.5 192.5v1022h196v-1022q0 -215 -92.5 -319.5t-261.5 -104.5z" />
    <glyph glyph-name="circumflex" unicode="&#x2c6;" horiz-adv-x="757" 
d="M174 1161l-133 32l241 269h195l241 -269l-133 -32l-205 177z" />
    <glyph glyph-name="caron" unicode="&#x2c7;" horiz-adv-x="757" 
d="M544 1466l133 -32l-241 -269h-195l-241 269l133 32l204 -177z" />
    <glyph glyph-name="breve" unicode="&#x2d8;" horiz-adv-x="698" 
d="M316 1153q-145 0 -223 78.5t-87 211.5l160 31q13 -193 150 -193q136 0 147 193l160 -31q-9 -133 -86 -211.5t-221 -78.5z" />
    <glyph glyph-name="dotaccent" unicode="&#x2d9;" horiz-adv-x="278" 
d="M3 1192v222h197v-222h-197z" />
    <glyph glyph-name="ring" unicode="&#x2da;" horiz-adv-x="548" 
d="M256 1151q-102 0 -167.5 61.5t-65.5 164.5q0 104 65.5 165.5t167.5 61.5q101 0 167 -61.5t66 -165.5q0 -103 -66 -164.5t-167 -61.5zM256 1256q54 0 86 33t32 88q0 56 -32 89t-86 33q-55 0 -86.5 -33t-31.5 -89q0 -55 31.5 -88t86.5 -33z" />
    <glyph glyph-name="ogonek" unicode="&#x2db;" horiz-adv-x="378" 
d="M170 -408q-89 0 -134 43.5t-45 120.5q0 70 45.5 136t129.5 113l117 -5q-150 -98 -150 -203q0 -39 22 -59t59 -20q21 0 39.5 4.5t26.5 9.5l8 4v-120q-44 -24 -118 -24z" />
    <glyph glyph-name="tilde" unicode="&#x2dc;" horiz-adv-x="776" 
d="M110 1190l-104 75q71 99 121 134.5t111 35.5q42 0 86 -27.5t81.5 -54.5t63.5 -27q29 0 55.5 21.5t71.5 84.5l104 -73q-69 -99 -120 -135.5t-111 -36.5q-33 0 -68 17t-60 38t-53.5 38t-49.5 17q-31 0 -57 -21.5t-71 -85.5z" />
    <glyph glyph-name="hungarumlaut" unicode="&#x2dd;" horiz-adv-x="792" 
d="M118 1161l-118 32l200 269h188zM440 1161l-118 32l199 269h189z" />
    <glyph glyph-name="gravecomb" unicode="&#x300;" horiz-adv-x="0" 
d="M-184 1161l-301 301h226l218 -269z" />
    <glyph glyph-name="acutecomb" unicode="&#x301;" horiz-adv-x="0" 
d="M-300 1161l-143 32l218 269h226z" />
    <glyph glyph-name="uni0302" unicode="&#x302;" horiz-adv-x="0" 
d="M-585 1161l-133 32l241 269h195l241 -269l-133 -32l-205 177z" />
    <glyph glyph-name="tildecomb" unicode="&#x303;" horiz-adv-x="0" 
d="M-631 1190l-104 75q71 99 121 134.5t111 35.5q42 0 86 -27.5t81.5 -54.5t63.5 -27q29 0 55.5 21.5t71.5 84.5l104 -73q-69 -99 -120 -135.5t-111 -36.5q-33 0 -68 17t-60 38t-53.5 38t-49.5 17q-31 0 -57 -21.5t-71 -85.5z" />
    <glyph glyph-name="uni0304" unicode="&#x304;" horiz-adv-x="0" 
d="M-635 1261v128h594v-128h-594z" />
    <glyph glyph-name="uni0306" unicode="&#x306;" horiz-adv-x="0" 
d="M-348 1153q-145 0 -223 78.5t-87 211.5l160 31q13 -193 150 -193t147 193l160 -31q-9 -133 -86 -211.5t-221 -78.5z" />
    <glyph glyph-name="uni0307" unicode="&#x307;" horiz-adv-x="0" 
d="M-238 1192v222h197v-222h-197z" />
    <glyph glyph-name="uni0308" unicode="&#x308;" horiz-adv-x="0" 
d="M-617 1194v221h183v-221h-183zM-223 1194v221h182v-221h-182z" />
    <glyph glyph-name="uni030A" unicode="&#x30a;" horiz-adv-x="0" 
d="M-273 1151q-102 0 -168 61.5t-66 164.5q0 104 66 165.5t168 61.5q101 0 166.5 -61.5t65.5 -165.5q0 -103 -65.5 -164.5t-166.5 -61.5zM-273 1256q54 0 85.5 33t31.5 88q0 56 -31.5 89t-85.5 33q-55 0 -87 -33t-32 -89q0 -55 32 -88t87 -33z" />
    <glyph glyph-name="uni030B" unicode="&#x30b;" horiz-adv-x="0" 
d="M-633 1161l-118 32l201 269h187zM-311 1161l-118 32l199 269h189z" />
    <glyph glyph-name="uni030C" unicode="&#x30c;" horiz-adv-x="0" 
d="M-174 1466l133 -32l-241 -269h-195l-241 269l133 32l204 -177z" />
    <glyph glyph-name="uni0312" unicode="&#x312;" horiz-adv-x="0" 
d="M-321 1536l178 355h102l-58 -355h-222z" />
    <glyph glyph-name="uni0326" unicode="&#x326;" horiz-adv-x="0" 
d="M-311 -457l51 355h219l-166 -355h-104z" />
    <glyph glyph-name="uni0327" unicode="&#x327;" horiz-adv-x="0" 
d="M-255 -404q-32 0 -62 6t-45 12l-14 5v106q50 -25 117 -25q101 0 101 70q0 72 -100 72h-70l62 190h100l-39 -113q84 -4 124 -44t40 -105q0 -84 -56 -129t-158 -45z" />
    <glyph glyph-name="uni0328" unicode="&#x328;" horiz-adv-x="0" 
d="M-159 -408q-89 0 -134 43.5t-45 120.5q0 70 45.5 136t129.5 113l117 -5q-150 -98 -150 -203q0 -39 21.5 -59t58.5 -20q21 0 40 4.5t27 9.5l8 4v-120q-44 -24 -118 -24z" />
    <glyph glyph-name="tonos" unicode="&#x384;" horiz-adv-x="526" 
d="M185 1161l-143 32l217 269h226z" />
    <glyph glyph-name="dieresistonos" unicode="&#x385;" horiz-adv-x="856" 
d="M392 1161l-136 32l154 269h209zM40 1194v221h175v-221h-175zM640 1194v221h176v-221h-176z" />
    <glyph glyph-name="Alphatonos" unicode="&#x386;" horiz-adv-x="1331" 
d="M1088 0l-121 337h-610l-121 -337h-218l543 1434h208l544 -1434h-225zM475 1434l-300 -301l-144 31l218 270h226zM423 519h479l-240 665z" />
    <glyph glyph-name="Epsilontonos" unicode="&#x388;" horiz-adv-x="1226" 
d="M-194 1133l-144 31l218 270h226zM184 0v1434h927l11 -188h-726v-428h649v-188h-649v-442h743l-30 -188h-925z" />
    <glyph glyph-name="Etatonos" unicode="&#x389;" horiz-adv-x="1404" 
d="M-196 1133l-143 31l218 270h226zM1012 1434h210v-1434h-210v628h-616v-628h-212v1434h212v-615h616v615z" />
    <glyph glyph-name="Iotatonos" unicode="&#x38a;" horiz-adv-x="579" 
d="M-189 1133l-143 31l218 270h226zM184 0v1434h212v-1434h-212z" />
    <glyph glyph-name="Omicrontonos" unicode="&#x38c;" horiz-adv-x="1349" 
d="M676 -29q-195 0 -319.5 74t-188 239.5t-63.5 432.5t63.5 432.5t188 239.5t319.5 74t319 -74t187 -239.5t63 -432.5t-63 -432.5t-187 -239.5t-319 -74zM-79 1133l-143 31l218 270h226zM676 158q124 0 199.5 50t115.5 174t40 335q0 212 -40 335.5t-115.5 173t-199.5 49.5
q-93 0 -157 -27t-110 -91t-67.5 -172t-21.5 -268q0 -211 40.5 -335t116 -174t199.5 -50z" />
    <glyph glyph-name="Upsilontonos" unicode="&#x38e;" horiz-adv-x="1249" 
d="M-326 1133l-143 31l218 270h226zM1221 1434l-490 -883v-551h-212v551l-493 883h235l367 -665l364 665h229z" />
    <glyph glyph-name="Omegatonos" unicode="&#x38f;" horiz-adv-x="1429" 
d="M1073 163h231v-163h-501v143q63 18 109 53t83 100.5t56 172.5t19 257q1 208 -39.5 330t-116.5 170.5t-200 48.5t-200 -48.5t-116 -170.5t-39 -330q0 -150 19 -257t56 -172.5t83 -100.5t109 -53v-143h-502v163h232q-211 172 -212 596q-1 374 137.5 539t432.5 165t433 -165
t138 -539q-1 -425 -212 -596zM20 1434h226l-301 -301l-143 31z" />
    <glyph glyph-name="iotadieresistonos" unicode="&#x390;" horiz-adv-x="583" 
d="M219 1161l-137 32l139 269h209zM-132 1194v221h173v-221h-173zM452 1194v221h173v-221h-173zM403 -19q-130 0 -192 73.5t-62 221.5v762h197v-733q0 -82 27.5 -116.5t84.5 -34.5q69 0 115 26l-31 -171q-43 -28 -139 -28z" />
    <glyph glyph-name="Alpha" unicode="&#x391;" horiz-adv-x="1331" 
d="M1088 0l-121 337h-610l-121 -337h-218l543 1434h208l544 -1434h-225zM423 519h479l-240 665z" />
    <glyph glyph-name="Beta" unicode="&#x392;" horiz-adv-x="1345" 
d="M184 0v1434h550q237 0 352.5 -96t115.5 -289q0 -230 -180 -313q215 -81 218 -337q2 -200 -119 -299.5t-365 -99.5h-572zM396 812h343q129 0 190 53.5t61 164.5q0 114 -63 167.5t-193 53.5h-338v-439zM396 182h360q138 0 205 55.5t66 174.5q-1 114 -67 168.5t-204 54.5
h-360v-453z" />
    <glyph glyph-name="Gamma" unicode="&#x393;" horiz-adv-x="1085" 
d="M184 0v1434h861v-191h-649v-1243h-212z" />
    <glyph glyph-name="uni0394" unicode="&#x394;" horiz-adv-x="1331" 
d="M769 1434l544 -1434h-1295l543 1434h208zM663 1189l-366 -1007h730z" />
    <glyph glyph-name="Epsilon" unicode="&#x395;" horiz-adv-x="1226" 
d="M184 0v1434h927l11 -188h-726v-428h649v-188h-649v-442h743l-30 -188h-925z" />
    <glyph glyph-name="Zeta" unicode="&#x396;" horiz-adv-x="1148" 
d="M331 191h742l-31 -191h-968v170l730 1073h-704v191h958v-171z" />
    <glyph glyph-name="Eta" unicode="&#x397;" horiz-adv-x="1404" 
d="M1012 1434h210v-1434h-210v628h-616v-628h-212v1434h212v-615h616v615z" />
    <glyph glyph-name="Theta" unicode="&#x398;" horiz-adv-x="1357" 
d="M680 -29q-296 0 -435.5 175t-139.5 571t139.5 571t435.5 175q295 0 434 -175t139 -571t-139 -571t-434 -175zM680 158q127 0 205 50t119 174t41 335q0 212 -41 335.5t-118.5 173t-205.5 49.5t-206 -49.5t-119.5 -173t-41.5 -335.5q0 -159 22 -267.5t69.5 -172.5
t114 -91.5t161.5 -27.5zM927 656h-487v128h487v-128z" />
    <glyph glyph-name="Iota" unicode="&#x399;" horiz-adv-x="579" 
d="M184 0v1434h212v-1434h-212z" />
    <glyph glyph-name="Kappa" unicode="&#x39a;" horiz-adv-x="1308" 
d="M1050 0l-463 632h-191v-632h-212v1434h212v-619h191l438 619h239l-499 -701l532 -733h-247z" />
    <glyph glyph-name="Lambda" unicode="&#x39b;" horiz-adv-x="1302" 
d="M1280 0h-229l-402 1151l-406 -1151h-222l531 1434h200z" />
    <glyph glyph-name="Mu" unicode="&#x39c;" horiz-adv-x="1701" 
d="M1341 1434h178v-1434h-202v1084l-466 -667l-470 667v-1084h-197v1434h179l489 -699z" />
    <glyph glyph-name="Nu" unicode="&#x39d;" horiz-adv-x="1443" 
d="M1063 1434h197v-1434h-181l-696 1067v-1067h-199v1434h183l696 -1066v1066z" />
    <glyph glyph-name="Xi" unicode="&#x39e;" horiz-adv-x="1177" 
d="M105 1244l13 190h944l13 -190h-970zM192 628v191h795v-191h-795zM120 0l-36 191h1012l-36 -191h-940z" />
    <glyph glyph-name="Omicron" unicode="&#x39f;" horiz-adv-x="1349" 
d="M676 -29q-195 0 -319.5 74t-188 239.5t-63.5 432.5t63.5 432.5t188 239.5t319.5 74t319 -74t187 -239.5t63 -432.5t-63 -432.5t-187 -239.5t-319 -74zM676 158q124 0 199.5 50t115.5 174t40 335q0 212 -40 335.5t-115.5 173t-199.5 49.5q-93 0 -157 -27t-110 -91
t-67.5 -172t-21.5 -268q0 -211 40.5 -335t116 -174t199.5 -50z" />
    <glyph glyph-name="Pi" unicode="&#x3a0;" horiz-adv-x="1392" 
d="M184 0v1434h1026v-1434h-211v1243h-603v-1243h-212z" />
    <glyph glyph-name="Rho" unicode="&#x3a1;" horiz-adv-x="1290" 
d="M184 0v1434h541q250 0 375.5 -117.5t125.5 -333.5t-125.5 -333t-375.5 -117h-329v-533h-212zM396 716h329q143 0 215 69t72 198q0 130 -72 199t-215 69h-329v-535z" />
    <glyph glyph-name="Sigma" unicode="&#x3a3;" horiz-adv-x="1114" 
d="M327 188h716l-30 -188h-931v179l432 546l-426 528v181h927l10 -188h-692l406 -522z" />
    <glyph glyph-name="Tau" unicode="&#x3a4;" horiz-adv-x="1118" 
d="M1078 1434v-191h-413v-1243h-212v1243h-413v191h1038z" />
    <glyph glyph-name="Upsilon" unicode="&#x3a5;" horiz-adv-x="1249" 
d="M1221 1434l-490 -883v-551h-212v551l-493 883h235l367 -665l364 665h229z" />
    <glyph glyph-name="Phi" unicode="&#x3a6;" horiz-adv-x="1722" 
d="M966 1336q342 0 503.5 -149t161.5 -444t-161.5 -444t-503.5 -149v-150h-210v150q-342 0 -503 149t-161 444t161 444t503 149v133h210v-133zM307 743q0 -223 107 -323t348 -101v847q-241 -1 -348 -100.5t-107 -322.5zM961 319q241 1 348 101t107 323t-107 322.5
t-348 100.5v-847z" />
    <glyph glyph-name="Chi" unicode="&#x3a7;" horiz-adv-x="1249" 
d="M1232 0h-249l-359 564l-368 -564h-240l486 731l-458 703h247l337 -525l339 525h239l-457 -694z" />
    <glyph glyph-name="Psi" unicode="&#x3a8;" horiz-adv-x="1697" 
d="M1383 1434h216v-534q0 -292 -157 -439.5t-488 -147.5v-313h-210v313q-331 0 -487.5 147.5t-156.5 439.5v534h215v-534q0 -218 101 -316t328 -100v950h210v-950q227 2 328 100t101 316v534z" />
    <glyph glyph-name="uni03A9" unicode="&#x3a9;" horiz-adv-x="1429" 
d="M1073 163h231v-163h-501v143q63 18 109 53t83 100.5t56 172.5t19 257q1 208 -39.5 330t-116.5 170.5t-200 48.5t-200 -48.5t-116 -170.5t-39 -330q0 -150 19 -257t56 -172.5t83 -100.5t109 -53v-143h-502v163h232q-211 172 -212 596q-1 374 137.5 539t432.5 165t433 -165
t138 -539q-1 -425 -212 -596z" />
    <glyph glyph-name="Iotadieresis" unicode="&#x3aa;" horiz-adv-x="579" 
d="M0 1589v221h182v-221h-182zM393 1589v221h182v-221h-182zM184 0v1434h212v-1434h-212z" />
    <glyph glyph-name="Upsilondieresis" unicode="&#x3ab;" horiz-adv-x="1249" 
d="M340 1589v221h182v-221h-182zM733 1589v221h182v-221h-182zM1221 1434l-490 -883v-551h-212v551l-493 883h235l367 -665l364 665h229z" />
    <glyph glyph-name="alphatonos" unicode="&#x3ac;" horiz-adv-x="1155" 
d="M840 1462l-300 -301l-143 32l217 269h226zM833 1038h167v-1038h-167l-29 140v-1q-9 -21 -30 -45t-56.5 -51t-94.5 -44.5t-129 -17.5q-205 0 -302 129t-97 409t97 409.5t302 129.5q57 0 107 -12t83 -30t59.5 -41t40 -41.5t20.5 -34.5v-2zM549 153q135 0 195 85t60 281
t-60 281t-195 85t-194.5 -85t-59.5 -281t59.5 -281t194.5 -85z" />
    <glyph glyph-name="epsilontonos" unicode="&#x3ad;" horiz-adv-x="940" 
d="M747 1462l-300 -301l-143 32l217 269h226zM524 148q192 0 342 48l-27 -169q-138 -46 -319 -46q-221 0 -324 76.5t-101 230.5q2 185 167 250q-147 64 -147 225q0 148 97.5 221.5t305.5 73.5q158 0 318 -46l11 -163q-153 43 -322 43q-109 0 -160.5 -34t-51.5 -104
q0 -74 45 -110t146 -36h196v-164h-208q-103 0 -150.5 -36t-48.5 -108q-1 -78 54 -115t177 -37z" />
    <glyph glyph-name="etatonos" unicode="&#x3ae;" horiz-adv-x="1183" 
d="M569 1161l-143 32l218 269h226zM845 -405v995q0 149 -57 221t-185 72q-133 0 -192.5 -72t-59.5 -221v-590h-197v1038h166l31 -137q90 157 308 157q189 0 286 -112.5t97 -313.5v-1005z" />
    <glyph glyph-name="iotatonos" unicode="&#x3af;" horiz-adv-x="583" 
d="M231 1161l-143 32l217 269h226zM403 -19q-130 0 -192 73.5t-62 221.5v762h197v-733q0 -82 27.5 -116.5t84.5 -34.5q69 0 115 26l-31 -171q-43 -28 -139 -28z" />
    <glyph glyph-name="upsilondieresistonos" unicode="&#x3b0;" horiz-adv-x="1161" 
d="M544 1161l-136 32l154 269h209zM191 1194v221h176v-221h-176zM792 1194v221h176v-221h-176zM1021 1038v-601q0 -236 -106 -346t-335 -110q-228 0 -333.5 109.5t-105.5 346.5v601h200v-609q0 -148 55.5 -212t183.5 -64t184.5 64t56.5 212v609h200z" />
    <glyph glyph-name="alpha" unicode="&#x3b1;" horiz-adv-x="1155" 
d="M833 1038h167v-1038h-167l-29 140v-1q-9 -21 -30 -45t-56.5 -51t-94.5 -44.5t-129 -17.5q-205 0 -302 129t-97 409t97 409.5t302 129.5q57 0 107 -12t83 -30t59.5 -41t40 -41.5t20.5 -34.5v-2zM549 153q135 0 195 85t60 281t-60 281t-195 85t-194.5 -85t-59.5 -281
t59.5 -281t194.5 -85z" />
    <glyph glyph-name="beta" unicode="&#x3b2;" horiz-adv-x="1150" 
d="M879 823q89 -40 128 -122.5t39 -210.5v-95q0 -211 -110.5 -313t-312.5 -102q-155 0 -272 114v-467l-197 -32v1433q0 435 437 435q434 0 434 -351q0 -108 -33 -180t-113 -109zM846 395v95q0 131 -58 188.5t-181 57.5h-141v171h134q115 0 170 46t55 144q0 100 -55 146.5
t-179 46.5q-126 0 -183 -62t-57 -200v-639q0 -61 24 -108t63 -73.5t81.5 -39.5t85.5 -13q121 0 181 55.5t60 184.5z" />
    <glyph glyph-name="gamma" unicode="&#x3b3;" horiz-adv-x="1120" 
d="M892 1038h203l-394 -997v-414l-197 -32v446l-258 698q-28 78 -68 107t-100 29q-53 0 -91 -16l24 168q44 23 128 23q102 0 168 -56.5t111 -182.5l192 -528z" />
    <glyph glyph-name="delta" unicode="&#x3b4;" horiz-adv-x="1087" 
d="M666 971q56 -13 101 -33t89.5 -58t74 -90t48 -132t18.5 -181q0 -257 -109 -376.5t-344 -119.5t-343.5 119.5t-108.5 376.5q0 196 66 308.5t218 154.5q-135 59 -185.5 123.5t-50.5 145.5q0 114 98 180.5t290 66.5q186 0 324 -46l18 -182q-125 53 -329 53q-195 0 -195 -98
q0 -62 82.5 -119.5t237.5 -92.5zM544 138q134 0 193.5 79t59.5 260q0 182 -59 261t-194 79t-193.5 -78.5t-58.5 -261.5q0 -181 59 -260t193 -79z" />
    <glyph glyph-name="epsilon" unicode="&#x3b5;" horiz-adv-x="940" 
d="M524 148q192 0 342 48l-27 -169q-138 -46 -319 -46q-221 0 -324 76.5t-101 230.5q2 185 167 250q-147 64 -147 225q0 148 97.5 221.5t305.5 73.5q158 0 318 -46l11 -163q-153 43 -322 43q-109 0 -160.5 -34t-51.5 -104q0 -74 45 -110t146 -36h196v-164h-208
q-103 0 -150.5 -36t-48.5 -108q-1 -78 54 -115t177 -37z" />
    <glyph glyph-name="zeta" unicode="&#x3b6;" horiz-adv-x="903" 
d="M585 158q53 -8 87.5 -16t74.5 -22t63.5 -33t45.5 -49t29.5 -69.5t6.5 -95.5t-14 -126l-181 -28q14 66 14.5 112t-9.5 75.5t-37.5 47.5t-59.5 27t-84 15q-215 26 -325 124.5t-110 292.5q0 222 135 437.5t366 403.5h-474l29 180h743v-155q-257 -174 -420.5 -400.5
t-163.5 -438.5q0 -73 21 -125t62.5 -82.5t87.5 -47t113 -27.5z" />
    <glyph glyph-name="eta" unicode="&#x3b7;" horiz-adv-x="1183" 
d="M845 -405v995q0 149 -57 221t-185 72q-133 0 -192.5 -72t-59.5 -221v-590h-197v1038h166l31 -137q90 157 308 157q189 0 286 -112.5t97 -313.5v-1005z" />
    <glyph glyph-name="theta" unicode="&#x3b8;" horiz-adv-x="1140" 
d="M571 1463q235 0 344 -179t109 -563t-109 -563t-344 -179t-344 179t-109 563t109 563t344 179zM571 1289q-127 0 -186.5 -116.5t-65.5 -384.5h504q-6 268 -65.5 384.5t-186.5 116.5zM571 149q129 0 188 119t64 394h-504q5 -275 64 -394t188 -119z" />
    <glyph glyph-name="iota" unicode="&#x3b9;" horiz-adv-x="583" 
d="M403 -19q-130 0 -192 73.5t-62 221.5v762h197v-733q0 -82 27.5 -116.5t84.5 -34.5q69 0 115 26l-31 -171q-43 -28 -139 -28z" />
    <glyph glyph-name="kappa" unicode="&#x3ba;" horiz-adv-x="1085" 
d="M154 0v1038h197v-432h153l313 432h224l-375 -509l401 -529h-233l-327 439h-156v-439h-197z" />
    <glyph glyph-name="lambda" unicode="&#x3bb;" horiz-adv-x="1038" 
d="M1012 0h-212l-266 801l-295 -801h-211l413 1033l-25 68q-39 108 -72 146.5t-100 38.5q-55 0 -116 -22l30 173q51 22 137 22q43 0 75.5 -7t60.5 -26t49.5 -43.5t44.5 -70t42.5 -93.5t46.5 -125z" />
    <glyph glyph-name="uni03BC" unicode="&#x3bc;" horiz-adv-x="1196" 
d="M845 1038h197v-1038h-167l-33 127q-96 -146 -306 -146q-115 0 -192 53v-409l-190 -31v1444h197v-589q0 -149 57 -221t184 -72q133 0 193 72t60 221v589z" />
    <glyph glyph-name="nu" unicode="&#x3bd;" horiz-adv-x="1042" 
d="M812 1038h205l-396 -1038h-199l-396 1038h211l287 -793z" />
    <glyph glyph-name="xi" unicode="&#x3be;" horiz-adv-x="956" 
d="M601 156q63 -7 109.5 -19.5t85.5 -33.5t62 -52t36 -73.5t11 -100t-17 -130.5l-181 -28q15 64 16 109.5t-9.5 75.5t-36 48t-58 26.5t-82.5 13.5q-210 19 -328 126.5t-117 299.5q1 131 51.5 216t160.5 126q-186 91 -186 324q0 376 445 376q109 0 196.5 -19t132.5 -43
l9 -174q-51 24 -136.5 44t-174.5 20q-141 0 -207.5 -53t-66.5 -166q0 -120 58 -179.5t186 -59.5h219v-167h-241q-127 0 -186 -56.5t-60 -177.5q-1 -130 73 -193t236 -80z" />
    <glyph glyph-name="omicron" unicode="&#x3bf;" horiz-adv-x="1093" 
d="M546 -19q-235 0 -343.5 129.5t-108.5 408.5t108.5 409t343.5 130t344 -130t109 -409t-109 -408.5t-344 -129.5zM546 153q135 0 194 85t59 281t-59 281t-194 85t-193.5 -84.5t-58.5 -281.5t58.5 -281.5t193.5 -84.5z" />
    <glyph glyph-name="pi" unicode="&#x3c0;" horiz-adv-x="1140" 
d="M154 0v1038h832v-1038h-197v863h-438v-863h-197z" />
    <glyph glyph-name="rho" unicode="&#x3c1;" horiz-adv-x="1134" 
d="M589 1058q235 0 344 -130t109 -409q0 -281 -96.5 -409.5t-303.5 -128.5q-70 0 -128.5 17.5t-94 44.5t-56 51t-28.5 45v-522l-197 -31v933q0 279 109 409t342 130zM588 153q135 0 194.5 85t59.5 281t-59 281t-194 85q-136 0 -195 -84.5t-59 -281.5q0 -196 59 -281t194 -85
z" />
    <glyph glyph-name="uni03C2" unicode="&#x3c2;" horiz-adv-x="933" 
d="M579 157q45 -7 76.5 -13t67.5 -17t59 -26t46 -36t34.5 -50.5t19 -67.5t4.5 -88.5t-14 -111.5l-181 -29q12 59 15 101.5t-6.5 71.5t-22 47t-41 29.5t-53 16.5t-68.5 11q-47 6 -85 14t-83.5 25.5t-80 42t-69 64.5t-56.5 91.5t-35.5 125t-13.5 163.5q0 273 120 405t365 132
q89 0 165 -16t115 -36l10 -176q-48 21 -124 38t-150 17q-158 0 -229.5 -87t-71.5 -285q0 -83 13.5 -143.5t36 -97.5t61 -61t78 -35t98.5 -19z" />
    <glyph glyph-name="sigma" unicode="&#x3c3;" horiz-adv-x="1157" 
d="M1128 1038v-172h-238q109 -122 109 -354q0 -276 -109 -403.5t-344 -127.5t-343.5 127.5t-108.5 403.5q0 274 108.5 400t343.5 126h582zM546 153q135 0 194 83.5t59 275.5q0 189 -59 271.5t-194 82.5q-134 0 -193 -82.5t-59 -271.5q0 -192 58.5 -275.5t193.5 -83.5z" />
    <glyph glyph-name="tau" unicode="&#x3c4;" horiz-adv-x="917" 
d="M866 863h-327v-558q0 -82 27.5 -116.5t84.5 -34.5q69 0 115 26l-31 -171q-39 -28 -138 -28q-130 0 -192.5 73.5t-62.5 221.5v587h-304v175h828v-175z" />
    <glyph glyph-name="upsilon" unicode="&#x3c5;" horiz-adv-x="1161" 
d="M1021 1038v-601q0 -236 -106 -346t-335 -110q-228 0 -333.5 109.5t-105.5 346.5v601h200v-609q0 -148 55.5 -212t183.5 -64t184.5 64t56.5 212v609h200z" />
    <glyph glyph-name="phi" unicode="&#x3c6;" horiz-adv-x="1488" 
d="M1397 519q0 -278 -134.5 -407.5t-422.5 -131.5v-353l-191 -32v386q-287 2 -423 131t-136 407q0 240 117 372t323 160l51 -143q-99 -19 -160 -59t-96 -121.5t-35 -208.5q0 -194 85.5 -279t273.5 -87v885h209q275 0 407 -125t132 -394zM840 153q190 2 273.5 86.5
t83.5 279.5q0 187 -83.5 268t-273.5 81v-715z" />
    <glyph glyph-name="chi" unicode="&#x3c7;" horiz-adv-x="1028" 
d="M1020 -389h-217l-286 564l-298 -564h-210l394 728l-371 699h215l271 -524l272 524h207l-367 -691z" />
    <glyph glyph-name="psi" unicode="&#x3c8;" horiz-adv-x="1525" 
d="M1191 1038h200v-519q0 -278 -128.5 -407t-403.5 -131v-363l-190 -31v394q-275 1 -404 130.5t-129 407.5v519h200v-519q0 -195 78.5 -280t254.5 -86v911l190 30v-941q176 2 254 86.5t78 279.5v519z" />
    <glyph glyph-name="omega" unicode="&#x3c9;" horiz-adv-x="1579" 
d="M1121 1054q189 -14 276 -145t87 -385q0 -270 -91 -407.5t-288 -137.5q-242 0 -315 250q-75 -250 -314 -250q-197 0 -288.5 136.5t-91.5 408.5q0 254 87.5 385t276.5 145l44 -168q-115 -12 -162.5 -101t-47.5 -270q0 -193 46.5 -278t151.5 -85q106 0 153 85t47 281v167
h197v-167q0 -197 46.5 -281.5t153.5 -84.5q105 0 150.5 84.5t45.5 278.5q0 182 -47 270.5t-162 100.5z" />
    <glyph glyph-name="iotadieresis" unicode="&#x3ca;" horiz-adv-x="583" 
d="M-42 1194v221h182v-221h-182zM352 1194v221h182v-221h-182zM403 -19q-130 0 -192 73.5t-62 221.5v762h197v-733q0 -82 27.5 -116.5t84.5 -34.5q69 0 115 26l-31 -171q-43 -28 -139 -28z" />
    <glyph glyph-name="upsilondieresis" unicode="&#x3cb;" horiz-adv-x="1161" 
d="M290 1194v221h182v-221h-182zM684 1194v221h182v-221h-182zM1021 1038v-601q0 -236 -106 -346t-335 -110q-228 0 -333.5 109.5t-105.5 346.5v601h200v-609q0 -148 55.5 -212t183.5 -64t184.5 64t56.5 212v609h200z" />
    <glyph glyph-name="omicrontonos" unicode="&#x3cc;" horiz-adv-x="1093" 
d="M530 1161l-144 32l218 269h226zM546 -19q-235 0 -343.5 129.5t-108.5 408.5t108.5 409t343.5 130t344 -130t109 -409t-109 -408.5t-344 -129.5zM546 153q135 0 194 85t59 281t-59 281t-194 85t-193.5 -84.5t-58.5 -281.5t58.5 -281.5t193.5 -84.5z" />
    <glyph glyph-name="upsilontonos" unicode="&#x3cd;" horiz-adv-x="1161" 
d="M563 1161l-143 32l218 269h226zM1021 1038v-601q0 -236 -106 -346t-335 -110q-228 0 -333.5 109.5t-105.5 346.5v601h200v-609q0 -148 55.5 -212t183.5 -64t184.5 64t56.5 212v609h200z" />
    <glyph glyph-name="omegatonos" unicode="&#x3ce;" horiz-adv-x="1579" 
d="M1074 1462l-300 -301l-144 32l218 269h226zM1121 1054q189 -14 276 -145t87 -385q0 -270 -91 -407.5t-288 -137.5q-242 0 -315 250q-75 -250 -314 -250q-197 0 -288.5 136.5t-91.5 408.5q0 254 87.5 385t276.5 145l44 -168q-115 -12 -162.5 -101t-47.5 -270
q0 -193 46.5 -278t151.5 -85q106 0 153 85t47 281v167h197v-167q0 -197 46.5 -281.5t153.5 -84.5q105 0 150.5 84.5t45.5 278.5q0 182 -47 270.5t-162 100.5z" />
    <glyph glyph-name="uni0401" unicode="&#x401;" horiz-adv-x="1226" 
d="M360 1589v221h182v-221h-182zM754 1589v221h182v-221h-182zM184 0v1434h927l11 -188h-726v-428h649v-188h-649v-442h743l-30 -188h-925z" />
    <glyph glyph-name="uni0402" unicode="&#x402;" horiz-adv-x="1443" 
d="M870 -19l-32 190q165 0 247.5 67t82.5 189q0 119 -69 182.5t-202 63.5q-76 0 -147.5 -16.5t-105.5 -32.5l-33 -17v-607h-211v1243h-360v191h978v-191h-407v-453q5 3 15 8t42.5 17.5t67.5 22t88.5 17.5t107.5 8q213 0 331.5 -118t118.5 -318q0 -208 -127.5 -327
t-384.5 -119z" />
    <glyph glyph-name="uni0403" unicode="&#x403;" horiz-adv-x="1085" 
d="M607 1556l-143 32l218 270h226zM184 0v1434h861v-191h-649v-1243h-212z" />
    <glyph glyph-name="uni0404" unicode="&#x404;" horiz-adv-x="1183" 
d="M731 156q102 0 206 25.5t167 57.5l-31 -202q-57 -25 -155.5 -45.5t-201.5 -20.5q-311 0 -462 182t-151 564t151 564t462 182q102 0 200 -22.5t156 -50.5l13 -191q-62 30 -159 54.5t-195 24.5q-199 0 -298.5 -108t-115.5 -351h576v-191h-577q14 -251 114 -361.5
t301 -110.5z" />
    <glyph glyph-name="uni0405" unicode="&#x405;" horiz-adv-x="1200" 
d="M599 -29q-139 0 -267 21.5t-200 47.5l-30 204q84 -33 219 -59.5t268 -26.5q328 0 328 224q0 91 -56.5 140.5t-188.5 84.5l-251 64q-167 44 -249.5 137t-82.5 255q0 184 128.5 292t383.5 108q134 0 254.5 -19.5t187.5 -42.5l9 -195q-74 26 -194 47.5t-241 21.5
q-315 0 -315 -206q0 -92 53.5 -141t183.5 -83l246 -63q116 -31 189.5 -77.5t115 -125.5t41.5 -193q0 -193 -132.5 -304t-399.5 -111z" />
    <glyph glyph-name="uni0406" unicode="&#x406;" horiz-adv-x="579" 
d="M184 0v1434h212v-1434h-212z" />
    <glyph glyph-name="uni0407" unicode="&#x407;" horiz-adv-x="579" 
d="M0 1589v221h182v-221h-182zM393 1589v221h182v-221h-182zM184 0v1434h212v-1434h-212z" />
    <glyph glyph-name="uni0408" unicode="&#x408;" horiz-adv-x="1040" 
d="M352 -29q-86 0 -163.5 15t-121.5 34l-31 202q51 -22 134 -40t169 -18q162 0 241 91.5t79 287.5v891h211v-891q0 -572 -518 -572z" />
    <glyph glyph-name="uni0409" unicode="&#x409;" horiz-adv-x="1976" 
d="M131 -17q-55 0 -83 14l-30 191q29 -11 77 -11q67 0 107 44.5t63.5 153t30.5 300.5l31 759h804v-596h314q234 0 352 -109.5t118 -310.5q0 -200 -118 -309t-352 -109h-524v1243h-404l-21 -572q-13 -355 -97 -521.5t-268 -166.5zM1131 182h314q127 0 191.5 61.5t64.5 174.5
q0 114 -64.5 176t-191.5 62h-314v-474z" />
    <glyph glyph-name="uni040A" unicode="&#x40a;" horiz-adv-x="2019" 
d="M184 0v1434h212v-615h567v615h212v-596h314q234 0 351.5 -109.5t117.5 -310.5q0 -200 -117.5 -309t-351.5 -109h-526v628h-567v-628h-212zM1175 182h314q127 0 190.5 61.5t63.5 174.5q0 114 -63.5 176t-190.5 62h-314v-474z" />
    <glyph glyph-name="uni040B" unicode="&#x40b;" horiz-adv-x="1441" 
d="M400 0v1243h-360v191h978v-191h-407v-455q48 28 137 51.5t188 23.5q206 0 314 -117t108 -319v-427h-211v417q0 124 -63.5 190t-193.5 66q-84 0 -160.5 -20.5t-118.5 -45.5v-607h-211z" />
    <glyph glyph-name="uni040C" unicode="&#x40c;" horiz-adv-x="1308" 
d="M677 1556l-144 32l218 270h226zM1050 0l-463 632h-191v-632h-212v1434h212v-619h191l438 619h239l-499 -701l532 -733h-247z" />
    <glyph glyph-name="uni040D" unicode="&#x40d;" horiz-adv-x="1449" 
d="M867 1588l-143 -32l-301 302h226zM1073 1434h193v-1434h-212v1071l-675 -1071h-195v1434h212v-1074z" />
    <glyph glyph-name="uni040E" unicode="&#x40e;" horiz-adv-x="1206" 
d="M619 1547q-145 0 -223 78t-87 211l160 32q13 -194 150 -194q136 0 147 194l160 -32q-9 -133 -86 -211t-221 -78zM380 -29q-48 0 -88 9.5t-56 19.5l-17 10l-33 181q67 -38 157 -38q70 0 113.5 32t74.5 104l33 81l-559 1064h235l423 -831l320 831h219l-487 -1203
q-59 -138 -139 -199t-196 -61z" />
    <glyph glyph-name="uni040F" unicode="&#x40f;" horiz-adv-x="1392" 
d="M1210 1434v-1434h-414v-259l-197 -31v290h-415v1434h212v-1243h603v1243h211z" />
    <glyph glyph-name="uni0410" unicode="&#x410;" horiz-adv-x="1331" 
d="M1088 0l-121 337h-610l-121 -337h-218l543 1434h208l544 -1434h-225zM423 519h479l-240 665z" />
    <glyph glyph-name="uni0411" unicode="&#x411;" horiz-adv-x="1300" 
d="M184 0v1434h939v-191h-727v-385h353q238 0 357.5 -111.5t119.5 -316.5q0 -207 -119 -318.5t-358 -111.5h-565zM396 188h353q132 0 197.5 62.5t65.5 179.5q0 116 -66 178.5t-197 62.5h-353v-483z" />
    <glyph glyph-name="uni0412" unicode="&#x412;" horiz-adv-x="1345" 
d="M184 0v1434h550q237 0 352.5 -96t115.5 -289q0 -230 -180 -313q215 -81 218 -337q2 -200 -119 -299.5t-365 -99.5h-572zM396 812h343q129 0 190 53.5t61 164.5q0 114 -63 167.5t-193 53.5h-338v-439zM396 182h360q138 0 205 55.5t66 174.5q-1 114 -67 168.5t-204 54.5
h-360v-453z" />
    <glyph glyph-name="uni0413" unicode="&#x413;" horiz-adv-x="1085" 
d="M184 0v1434h861v-191h-649v-1243h-212z" />
    <glyph glyph-name="uni0414" unicode="&#x414;" horiz-adv-x="1460" 
d="M32 -274v465h96q113 93 156.5 223.5t61.5 425.5l36 594h840v-1243h164v-465h-198v274h-959v-274h-197zM357 191h654v1052h-443l-22 -419q-14 -281 -57.5 -416t-131.5 -217z" />
    <glyph glyph-name="uni0415" unicode="&#x415;" horiz-adv-x="1226" 
d="M184 0v1434h927l11 -188h-726v-428h649v-188h-649v-442h743l-30 -188h-925z" />
    <glyph glyph-name="uni0416" unicode="&#x416;" horiz-adv-x="1923" 
d="M18 0l478 731l-446 703h237l387 -622h182v622h212v-622h180l389 622h236l-445 -703l476 -731h-246l-409 635h-181v-635h-212v635h-181l-409 -635h-248z" />
    <glyph glyph-name="uni0417" unicode="&#x417;" horiz-adv-x="1196" 
d="M1095 396q1 -211 -139.5 -318t-431.5 -107q-125 0 -238.5 20.5t-176.5 45.5l-32 202q71 -32 187 -57.5t234 -25.5q381 0 379 238q-1 116 -67.5 175t-208.5 59h-305v191h305q125 0 181 57t56 168q0 117 -79.5 175.5t-250.5 58.5q-115 0 -226 -25t-176 -56l13 195
q64 27 177.5 48.5t239.5 21.5q262 0 391 -104.5t129 -296.5q0 -231 -178 -322q217 -83 217 -343z" />
    <glyph glyph-name="uni0418" unicode="&#x418;" horiz-adv-x="1449" 
d="M1073 1434h193v-1434h-212v1071l-675 -1071h-195v1434h212v-1074z" />
    <glyph glyph-name="uni0419" unicode="&#x419;" horiz-adv-x="1449" 
d="M721 1547q-145 0 -223 78t-87 211l160 32q13 -194 150 -194q136 0 147 194l160 -32q-9 -133 -86 -211t-221 -78zM1073 1434h193v-1434h-212v1071l-675 -1071h-195v1434h212v-1074z" />
    <glyph glyph-name="uni041A" unicode="&#x41a;" horiz-adv-x="1308" 
d="M1050 0l-463 632h-191v-632h-212v1434h212v-619h191l438 619h239l-499 -701l532 -733h-247z" />
    <glyph glyph-name="uni041B" unicode="&#x41b;" horiz-adv-x="1372" 
d="M343 1434h845v-1434h-212v1243h-442l-21 -572q-13 -354 -101 -521t-279 -167q-25 0 -46.5 3.5t-30.5 7.5l-10 3l-30 191q36 -11 82 -11q71 0 114.5 43.5t68.5 152.5t32 302z" />
    <glyph glyph-name="uni041C" unicode="&#x41c;" horiz-adv-x="1701" 
d="M1341 1434h178v-1434h-202v1084l-466 -667l-470 667v-1084h-197v1434h179l489 -699z" />
    <glyph glyph-name="uni041D" unicode="&#x41d;" horiz-adv-x="1404" 
d="M1012 1434h210v-1434h-210v628h-616v-628h-212v1434h212v-615h616v615z" />
    <glyph glyph-name="uni041E" unicode="&#x41e;" horiz-adv-x="1349" 
d="M676 -29q-195 0 -319.5 74t-188 239.5t-63.5 432.5t63.5 432.5t188 239.5t319.5 74t319 -74t187 -239.5t63 -432.5t-63 -432.5t-187 -239.5t-319 -74zM676 158q124 0 199.5 50t115.5 174t40 335q0 212 -40 335.5t-115.5 173t-199.5 49.5q-93 0 -157 -27t-110 -91
t-67.5 -172t-21.5 -268q0 -211 40.5 -335t116 -174t199.5 -50z" />
    <glyph glyph-name="uni041F" unicode="&#x41f;" horiz-adv-x="1392" 
d="M184 0v1434h1026v-1434h-211v1243h-603v-1243h-212z" />
    <glyph glyph-name="uni0420" unicode="&#x420;" horiz-adv-x="1290" 
d="M184 0v1434h541q250 0 375.5 -117.5t125.5 -333.5t-125.5 -333t-375.5 -117h-329v-533h-212zM396 716h329q143 0 215 69t72 198q0 130 -72 199t-215 69h-329v-535z" />
    <glyph glyph-name="uni0421" unicode="&#x421;" horiz-adv-x="1140" 
d="M699 -29q-301 0 -448 182.5t-147 563.5t147 563.5t448 182.5q96 0 187 -21.5t145 -48.5l11 -196q-55 30 -145 54t-183 24q-205 0 -300 -130t-95 -428t95 -428.5t300 -130.5q96 0 192.5 26t159.5 58l-29 -205q-54 -25 -147 -45.5t-191 -20.5z" />
    <glyph glyph-name="uni0422" unicode="&#x422;" horiz-adv-x="1118" 
d="M1078 1434v-191h-413v-1243h-212v1243h-413v191h1038z" />
    <glyph glyph-name="uni0423" unicode="&#x423;" horiz-adv-x="1206" 
d="M380 -29q-48 0 -88 9.5t-56 19.5l-17 10l-33 181q67 -38 157 -38q70 0 113.5 32t74.5 104l33 81l-559 1064h235l423 -831l320 831h219l-487 -1203q-59 -138 -139 -199t-196 -61z" />
    <glyph glyph-name="uni0424" unicode="&#x424;" horiz-adv-x="1722" 
d="M966 1336q342 0 503.5 -149t161.5 -444t-161.5 -444t-503.5 -149v-150h-210v150q-342 0 -503 149t-161 444t161 444t503 149v133h210v-133zM307 743q0 -223 107 -323t348 -101v847q-241 -1 -348 -100.5t-107 -322.5zM961 319q241 1 348 101t107 323t-107 322.5
t-348 100.5v-847z" />
    <glyph glyph-name="uni0425" unicode="&#x425;" horiz-adv-x="1249" 
d="M1232 0h-249l-359 564l-368 -564h-240l486 731l-458 703h247l337 -525l339 525h239l-457 -694z" />
    <glyph glyph-name="uni0426" unicode="&#x426;" horiz-adv-x="1427" 
d="M1156 -292v292h-972v1434h212v-1243h584v1243h210v-1243h163v-451z" />
    <glyph glyph-name="uni0427" unicode="&#x427;" horiz-adv-x="1298" 
d="M903 1434h211v-1434h-211v616q-5 -3 -14.5 -8t-43 -18t-71.5 -22.5t-100 -17.5t-128 -8q-221 0 -337 123.5t-116 336.5v432h212v-422q0 -135 72.5 -207.5t216.5 -72.5q88 0 165.5 16.5t110.5 33.5l33 16v636z" />
    <glyph glyph-name="uni0428" unicode="&#x428;" horiz-adv-x="1974" 
d="M184 0v1434h212v-1243h486v1243h212v-1243h485v1243h211v-1434h-1606z" />
    <glyph glyph-name="uni0429" unicode="&#x429;" horiz-adv-x="2029" 
d="M1756 -292v292h-1572v1434h212v-1243h486v1243h212v-1243h485v1243h211v-1243h163v-451z" />
    <glyph glyph-name="uni042A" unicode="&#x42a;" horiz-adv-x="1474" 
d="M911 900q249 0 374.5 -116.5t125.5 -332.5t-125.5 -333.5t-374.5 -117.5h-542v1243h-329v191h541v-534h330zM911 182q143 0 214 69.5t71 199.5t-71 198.5t-214 68.5h-330v-536h330z" />
    <glyph glyph-name="uni042B" unicode="&#x42b;" horiz-adv-x="1837" 
d="M184 1434h212v-534h329q250 0 375.5 -116.5t125.5 -332.5t-125.5 -333.5t-375.5 -117.5h-541v1434zM1440 0v1434h212v-1434h-212zM396 718v-536h329q143 0 215 69.5t72 199.5q0 129 -72 198t-215 69h-329z" />
    <glyph glyph-name="uni042C" unicode="&#x42c;" horiz-adv-x="1290" 
d="M184 1434h212v-534h329q250 0 375.5 -116.5t125.5 -332.5t-125.5 -333.5t-375.5 -117.5h-541v1434zM396 718v-536h329q143 0 215 69.5t72 199.5q0 129 -72 198t-215 69h-329z" />
    <glyph glyph-name="uni042D" unicode="&#x42d;" horiz-adv-x="1183" 
d="M468 1463q311 0 462 -182t151 -564t-151 -564t-462 -182q-103 0 -201 20.5t-155 45.5l-32 202q63 -32 167 -57.5t206 -25.5q201 0 301 110.5t114 361.5h-577v191h576q-16 243 -115.5 351t-298.5 108q-98 0 -195 -24.5t-159 -54.5l13 191q58 28 156 50.5t200 22.5z" />
    <glyph glyph-name="uni042E" unicode="&#x42e;" horiz-adv-x="1910" 
d="M1245 1463q288 0 423.5 -175t135.5 -571t-135.5 -571t-423.5 -175q-271 0 -406 154.5t-150 502.5h-293v-628h-212v1434h212v-615h293q16 341 151.5 492.5t404.5 151.5zM1245 158q120 0 193 50t112 174t39 335q0 212 -39 335.5t-112 173t-193 49.5t-193 -49.5t-112 -173
t-39 -335.5q0 -211 39 -335t112 -174t193 -50z" />
    <glyph glyph-name="uni042F" unicode="&#x42f;" horiz-adv-x="1339" 
d="M615 1434h540v-1434h-211v566h-305l-330 -566h-236l347 587q-307 74 -307 408q0 215 125 327t377 112zM944 745v506h-329q-146 0 -216.5 -63t-70.5 -192q0 -126 70.5 -188.5t216.5 -62.5h329z" />
    <glyph glyph-name="uni0430" unicode="&#x430;" horiz-adv-x="1077" 
d="M419 -19q-169 0 -257.5 84.5t-88.5 235.5q0 142 93.5 221.5t270.5 79.5h301v56q0 118 -57 170t-199 52q-171 0 -326 -41l31 177q146 36 330 36q217 0 317.5 -99.5t100.5 -294.5v-658h-166l-31 140q-74 -159 -319 -159zM463 137q138 0 206.5 59.5t68.5 193.5v72h-268
q-200 0 -200 -159q0 -166 193 -166z" />
    <glyph glyph-name="uni0431" unicode="&#x431;" horiz-adv-x="1136" 
d="M643 994q207 0 303 -121.5t96 -385.5q0 -262 -108.5 -384t-343.5 -122q-233 0 -342.5 122t-109.5 384v401q0 255 104 373t335 149l386 53l12 -181l-380 -47q-158 -19 -219.5 -96.5t-61.5 -250.5v-47q36 62 117 107.5t212 45.5zM590 153q134 0 193 78t59 256t-59 256
t-193 78t-193 -78t-59 -256t59 -256t193 -78z" />
    <glyph glyph-name="uni0432" unicode="&#x432;" horiz-adv-x="1091" 
d="M998 290q1 -146 -91.5 -218t-288.5 -72h-464v1038h453q187 0 275 -69.5t88 -210.5q0 -160 -127 -221q155 -62 155 -247zM351 877v-275h256q165 0 165 137q0 70 -40.5 104t-124.5 34h-256zM618 160q94 0 138.5 34.5t43.5 108.5q-1 72 -44.5 107.5t-137.5 35.5h-267v-286
h267z" />
    <glyph glyph-name="uni0433" unicode="&#x433;" horiz-adv-x="862" 
d="M154 0v1038h669v-175h-472v-863h-197z" />
    <glyph glyph-name="uni0434" unicode="&#x434;" horiz-adv-x="1200" 
d="M35 -256v432h87q76 64 105.5 155t43.5 295l25 412h694v-862h140v-432h-183v256h-728v-256h-184zM324 176h469v687h-326l-13 -247q-10 -195 -40 -288.5t-90 -151.5z" />
    <glyph glyph-name="uni0435" unicode="&#x435;" horiz-adv-x="1083" 
d="M614 -19q-276 0 -399 135t-123 406q0 262 117 399t342 137q219 0 333.5 -130t114.5 -408v-63h-710q4 -154 80.5 -229t250.5 -75q87 0 176.5 16.5t142.5 36.5l-30 -181q-49 -17 -130 -30.5t-165 -13.5zM289 594h522q-8 300 -258 300q-123 0 -190.5 -76t-73.5 -224z" />
    <glyph glyph-name="uni0436" unicode="&#x436;" horiz-adv-x="1591" 
d="M28 0l359 535l-333 503h216l281 -435h147v435h197v-435h146l281 435h216l-331 -503l357 -535h-225l-293 442h-151v-442h-197v442h-152l-292 -442h-226z" />
    <glyph glyph-name="uni0437" unicode="&#x437;" horiz-adv-x="960" 
d="M866 293q1 -159 -102.5 -235.5t-348.5 -76.5q-102 0 -185.5 16t-124.5 35l-31 180q54 -24 143 -43.5t183 -19.5q147 0 206.5 37.5t57.5 111.5q-1 70 -45.5 105.5t-146.5 35.5h-223v167h221q170 0 170 137q0 72 -54.5 108.5t-181.5 36.5q-88 0 -173.5 -18t-136.5 -40
l11 174q50 21 140 37.5t188 16.5q217 0 312 -73.5t95 -218.5q0 -166 -135 -232q161 -65 161 -241z" />
    <glyph glyph-name="uni0438" unicode="&#x438;" horiz-adv-x="1179" 
d="M829 1038h196v-1038h-196v750l-478 -750h-197v1038h197v-749z" />
    <glyph glyph-name="uni0439" unicode="&#x439;" horiz-adv-x="1179" 
d="M586 1152q-145 0 -223 78t-87 211l161 31q13 -193 149 -193t147 193l161 -31q-9 -132 -86.5 -210.5t-221.5 -78.5zM829 1038h196v-1038h-196v750l-478 -750h-197v1038h197v-749z" />
    <glyph glyph-name="uni043A" unicode="&#x43a;" horiz-adv-x="1085" 
d="M154 0v1038h197v-432h153l313 432h224l-375 -509l401 -529h-233l-327 439h-156v-439h-197z" />
    <glyph glyph-name="uni043B" unicode="&#x43b;" horiz-adv-x="1120" 
d="M270 1038h697v-1038h-197v863h-323l-15 -394q-10 -248 -81 -367t-215 -119q-64 0 -83 16l-29 176q30 -10 63 -10q52 0 85 28t53 98.5t24 191.5z" />
    <glyph glyph-name="uni043C" unicode="&#x43c;" horiz-adv-x="1380" 
d="M1047 1038h179v-1038h-193v724l-344 -486l-344 486v-724h-191v1038h180l357 -513z" />
    <glyph glyph-name="uni043D" unicode="&#x43d;" horiz-adv-x="1146" 
d="M796 1038h196v-1038h-196v435h-445v-435h-197v1038h197v-427h445v427z" />
    <glyph glyph-name="uni043E" unicode="&#x43e;" horiz-adv-x="1093" 
d="M546 -19q-235 0 -343.5 129.5t-108.5 408.5t108.5 409t343.5 130t344 -130t109 -409t-109 -408.5t-344 -129.5zM546 153q135 0 194 85t59 281t-59 281t-194 85t-193.5 -84.5t-58.5 -281.5t58.5 -281.5t193.5 -84.5z" />
    <glyph glyph-name="uni043F" unicode="&#x43f;" horiz-adv-x="1140" 
d="M154 0v1038h832v-1038h-197v863h-438v-863h-197z" />
    <glyph glyph-name="uni0440" unicode="&#x440;" horiz-adv-x="1153" 
d="M659 1058q206 0 302.5 -129t96.5 -410t-96.5 -409.5t-302.5 -128.5q-57 0 -106.5 12t-83 30t-59.5 40.5t-39.5 41t-19.5 34.5v-512l-197 -32v1443h166l31 -138q8 21 29 45t56.5 51t94 44.5t128.5 17.5zM604 153q135 0 194.5 85t59.5 281t-59.5 281t-194.5 85t-194 -85
t-59 -281t59 -281t194 -85z" />
    <glyph glyph-name="uni0441" unicode="&#x441;" horiz-adv-x="925" 
d="M560 -19q-236 0 -352 132t-116 406t116.5 406.5t357.5 132.5q83 0 155 -16t108 -36l10 -176q-45 22 -115.5 38.5t-140.5 16.5q-152 0 -221.5 -86t-69.5 -280q0 -193 68 -279.5t216 -86.5q79 0 157.5 19.5t127.5 43.5l-31 -183q-34 -20 -107 -36t-163 -16z" />
    <glyph glyph-name="uni0442" unicode="&#x442;" horiz-adv-x="905" 
d="M867 1038v-175h-315v-863h-197v863h-316v175h828z" />
    <glyph glyph-name="uni0443" unicode="&#x443;" horiz-adv-x="1040" 
d="M280 -408q-98 0 -148 31l-32 172q58 -29 131 -29q62 0 101 30.5t67 105.5l38 99l-414 1037h213l300 -787l271 787h205l-436 -1190q-50 -136 -122 -196t-174 -60z" />
    <glyph glyph-name="uni0444" unicode="&#x444;" horiz-adv-x="1529" 
d="M864 1058q297 0 436.5 -130t139.5 -409t-139.5 -408.5t-436.5 -129.5v-370h-197v370q-296 0 -436.5 129.5t-140.5 408.5t140.5 409t436.5 130v363l197 32v-395zM290 519q0 -194 90.5 -279t294.5 -87v732q-204 -2 -294.5 -87t-90.5 -279zM857 153q205 2 294 87t89 279
t-89 279t-294 87v-732z" />
    <glyph glyph-name="uni0445" unicode="&#x445;" horiz-adv-x="1032" 
d="M1010 0h-228l-268 396l-271 -396h-221l374 535l-347 503h227l245 -360l243 360h219l-345 -497z" />
    <glyph glyph-name="uni0446" unicode="&#x446;" horiz-adv-x="1179" 
d="M932 -273v273h-778v1038h197v-862h420v862h197v-862h147v-416z" />
    <glyph glyph-name="uni0447" unicode="&#x447;" horiz-adv-x="1064" 
d="M713 1038h197v-1038h-197v426q-3 -2 -10 -6.5t-32 -14.5t-54 -18t-77.5 -14.5t-101.5 -6.5q-173 0 -264.5 97t-91.5 263v312h196v-292q0 -100 52.5 -153t157.5 -53q67 0 123 14t79 28l23 14v442z" />
    <glyph glyph-name="uni0448" unicode="&#x448;" horiz-adv-x="1603" 
d="M154 0v1038h197v-862h352v862h197v-862h352v862h197v-1038h-1295z" />
    <glyph glyph-name="uni0449" unicode="&#x449;" horiz-adv-x="1658" 
d="M1412 -271v271h-1258v1038h197v-862h352v862h197v-862h352v862h197v-862h146v-416z" />
    <glyph glyph-name="uni044A" unicode="&#x44a;" horiz-adv-x="1228" 
d="M772 710q197 0 295.5 -92t98.5 -263t-98.5 -263t-295.5 -92h-458v863h-274v175h471v-328h261zM768 170q99 0 148.5 48t49.5 137t-49.5 137t-148.5 48h-257v-370h257z" />
    <glyph glyph-name="uni044B" unicode="&#x44b;" horiz-adv-x="1511" 
d="M154 0v1038h197v-328h261q197 0 295.5 -92t98.5 -263t-98.5 -263t-295.5 -92h-458zM1161 0v1038h196v-1038h-196zM351 170h257q99 0 148.5 48t49.5 137t-49.5 137t-148.5 48h-257v-370z" />
    <glyph glyph-name="uni044C" unicode="&#x44c;" horiz-adv-x="1069" 
d="M154 0v1038h197v-328h261q197 0 295.5 -92t98.5 -263t-98.5 -263t-295.5 -92h-458zM351 170h257q99 0 148.5 48t49.5 137t-49.5 137t-148.5 48h-257v-370z" />
    <glyph glyph-name="uni044D" unicode="&#x44d;" horiz-adv-x="946" 
d="M373 1058q245 0 363.5 -132.5t118.5 -406.5t-117.5 -406t-358.5 -132q-81 0 -149.5 12.5t-96.5 25.5l-28 13l-32 180q14 -7 38.5 -17.5t97 -27.5t139.5 -17q144 0 218.5 69t88.5 220h-399v167h398q-16 148 -91 214.5t-221 66.5q-58 0 -118.5 -13.5t-91.5 -26.5l-31 -13
l9 173q12 6 33.5 14.5t90 22.5t139.5 14z" />
    <glyph glyph-name="uni044E" unicode="&#x44e;" horiz-adv-x="1550" 
d="M1012 1058q231 0 338 -130t107 -409t-107 -408.5t-338 -129.5q-213 0 -320 110t-122 346h-219v-438h-197v1039h197v-431h220q16 232 123 341.5t318 109.5zM1012 153q131 0 188 84.5t57 281.5t-57 281.5t-188 84.5t-187.5 -84.5t-56.5 -281.5t56.5 -281.5t187.5 -84.5z
" />
    <glyph glyph-name="uni044F" unicode="&#x44f;" horiz-adv-x="1101" 
d="M491 1038h456v-1038h-197v369h-231l-227 -369h-220l245 392q-213 65 -213 309q0 337 387 337zM750 535v332h-259q-97 0 -144 -41t-47 -125t47 -125t144 -41h259z" />
    <glyph glyph-name="uni0451" unicode="&#x451;" horiz-adv-x="1083" 
d="M263 1194v221h182v-221h-182zM656 1194v221h182v-221h-182zM614 -19q-276 0 -399 135t-123 406q0 262 117 399t342 137q219 0 333.5 -130t114.5 -408v-63h-710q4 -154 80.5 -229t250.5 -75q87 0 176.5 16.5t142.5 36.5l-30 -181q-49 -17 -130 -30.5t-165 -13.5zM289 594
h522q-8 300 -258 300q-123 0 -190.5 -76t-73.5 -224z" />
    <glyph glyph-name="uni0452" unicode="&#x452;" horiz-adv-x="1183" 
d="M665 1002q187 0 281.5 -113t94.5 -308v-581q0 -207 -84 -307.5t-239 -100.5q-82 0 -142 29l-28 171q59 -40 128 -40q84 0 126.5 58t42.5 190v535q0 147 -55 219.5t-182 72.5q-138 0 -197.5 -72.5t-59.5 -219.5v-535h-197v1112h-164v125h164v182l197 30v-212h411v-125
h-411v-297q37 93 112.5 140t201.5 47z" />
    <glyph glyph-name="uni0453" unicode="&#x453;" horiz-adv-x="862" 
d="M480 1161l-143 32l217 269h226zM154 0v1038h669v-175h-472v-863h-197z" />
    <glyph glyph-name="uni0454" unicode="&#x454;" horiz-adv-x="946" 
d="M599 150q67 0 136 15.5t104 30.5l35 16l-32 -180q-10 -6 -30.5 -14.5t-91.5 -22.5t-152 -14q-241 0 -358.5 132t-117.5 406t118.5 406.5t363.5 132.5q71 0 136.5 -13t95.5 -25l31 -13l9 -173q-12 6 -34 15t-85.5 23.5t-121.5 14.5q-146 0 -221 -66.5t-91 -214.5h398v-167
h-399q14 -151 88.5 -220t218.5 -69z" />
    <glyph glyph-name="uni0455" unicode="&#x455;" horiz-adv-x="968" 
d="M471 -22q-101 0 -196.5 17.5t-150.5 39.5l-31 182q58 -26 158 -47.5t204 -21.5q245 0 245 137q0 60 -33.5 90t-124.5 48l-173 35q-149 30 -213 100t-64 195q0 145 104 225t316 80q92 0 178 -15t137 -33l11 -179q-45 21 -128 38.5t-178 17.5q-248 0 -248 -128
q0 -56 34.5 -86t123.5 -48l167 -33q154 -31 219 -101t65 -201q0 -150 -103.5 -231t-318.5 -81z" />
    <glyph glyph-name="uni0456" unicode="&#x456;" horiz-adv-x="509" 
d="M157 1194v221h196v-221h-196zM157 0v1038h196v-1038h-196z" />
    <glyph glyph-name="uni0457" unicode="&#x457;" horiz-adv-x="509" 
d="M-5 1194v221h175v-221h-175zM339 1194v221h176v-221h-176zM157 0v1038h196v-1038h-196z" />
    <glyph glyph-name="uni0458" unicode="&#x458;" horiz-adv-x="524" 
d="M171 1194v221h196v-221h-196zM13 -408q-87 0 -158 32l-31 184q74 -43 154 -43q96 0 144.5 58.5t48.5 192.5v1022h196v-1022q0 -215 -92.5 -319.5t-261.5 -104.5z" />
    <glyph glyph-name="uni0459" unicode="&#x459;" horiz-adv-x="1626" 
d="M138 -17q-26 0 -47 4t-29 8l-7 4l-29 176q28 -10 63 -10q69 0 102 69t40 249l22 555h688v-405h276q174 0 262 -82.5t88 -235.5q0 -151 -88 -233t-262 -82h-472v863h-315l-16 -394q-10 -249 -76 -367.5t-200 -118.5zM941 173h271q76 0 115.5 38.5t39.5 103.5
q0 144 -155 144h-271v-286z" />
    <glyph glyph-name="uni045A" unicode="&#x45a;" horiz-adv-x="1646" 
d="M154 -1v1039h197v-428h415v428h197v-405h274q176 0 263.5 -82t87.5 -236q0 -151 -88 -233t-263 -82h-471v435h-415v-436h-197zM963 173h270q76 0 116 38.5t40 103.5q0 144 -156 144h-270v-286z" />
    <glyph glyph-name="uni045B" unicode="&#x45b;" horiz-adv-x="1183" 
d="M665 1017q187 0 281.5 -113t94.5 -308v-596h-196v549q0 147 -55 220t-182 73q-138 0 -197.5 -73t-59.5 -220v-549h-197v1139h-145v113h145v167l197 30v-197h411v-113h-411v-310q37 93 112.5 140.5t201.5 47.5z" />
    <glyph glyph-name="uni045C" unicode="&#x45c;" horiz-adv-x="1085" 
d="M554 1161l-144 32l218 269h226zM154 0v1038h197v-432h153l313 432h224l-375 -509l401 -529h-233l-327 439h-156v-439h-197z" />
    <glyph glyph-name="uni045D" unicode="&#x45d;" horiz-adv-x="1179" 
d="M733 1193l-143 -32l-301 301h226zM829 1038h196v-1038h-196v750l-478 -750h-197v1038h197v-749z" />
    <glyph glyph-name="uni045E" unicode="&#x45e;" horiz-adv-x="1040" 
d="M532 1153q-145 0 -223 78.5t-87 211.5l160 31q13 -193 150 -193q136 0 147 193l160 -31q-9 -133 -86 -211.5t-221 -78.5zM280 -408q-98 0 -148 31l-32 172q58 -29 131 -29q62 0 101 30.5t67 105.5l38 99l-414 1037h213l300 -787l271 787h205l-436 -1190
q-50 -136 -122 -196t-174 -60z" />
    <glyph glyph-name="uni045F" unicode="&#x45f;" horiz-adv-x="1140" 
d="M986 1038v-1038h-325v-241l-182 -31v272h-325v1038h197v-862h438v862h197z" />
    <glyph glyph-name="uni0490" unicode="&#x490;" horiz-adv-x="1095" 
d="M870 1655l184 31v-443h-658v-1243h-212v1434h686v221z" />
    <glyph glyph-name="uni0491" unicode="&#x491;" horiz-adv-x="866" 
d="M661 1244l167 30v-411h-477v-863h-197v1038h507v206z" />
    <glyph glyph-name="Wgrave" unicode="&#x1e80;" horiz-adv-x="1820" 
d="M916 1556l-300 302h226l218 -270zM1560 1434h206l-297 -1434h-206l-352 961l-351 -961h-206l-299 1434h211l217 -1117l417 1117h29l414 -1118z" />
    <glyph glyph-name="wgrave" unicode="&#x1e81;" horiz-adv-x="1519" 
d="M764 1161l-300 301h226l218 -269zM1270 1038h190l-243 -1038h-204l-254 637l-253 -637h-204l-241 1038h194l178 -785l318 784h25l316 -779z" />
    <glyph glyph-name="Wacute" unicode="&#x1e82;" horiz-adv-x="1820" 
d="M896 1556l-143 32l218 270h226zM1560 1434h206l-297 -1434h-206l-352 961l-351 -961h-206l-299 1434h211l217 -1117l417 1117h29l414 -1118z" />
    <glyph glyph-name="wacute" unicode="&#x1e83;" horiz-adv-x="1519" 
d="M744 1161l-143 32l217 269h226zM1270 1038h190l-243 -1038h-204l-254 637l-253 -637h-204l-241 1038h194l178 -785l318 784h25l316 -779z" />
    <glyph glyph-name="Wdieresis" unicode="&#x1e84;" horiz-adv-x="1820" 
d="M623 1589v221h183v-221h-183zM1017 1589v221h182v-221h-182zM1560 1434h206l-297 -1434h-206l-352 961l-351 -961h-206l-299 1434h211l217 -1117l417 1117h29l414 -1118z" />
    <glyph glyph-name="wdieresis" unicode="&#x1e85;" horiz-adv-x="1519" 
d="M471 1194v221h182v-221h-182zM865 1194v221h182v-221h-182zM1270 1038h190l-243 -1038h-204l-254 637l-253 -637h-204l-241 1038h194l178 -785l318 784h25l316 -779z" />
    <glyph glyph-name="uni1E9E" unicode="&#x1e9e;" horiz-adv-x="1327" 
d="M924 843q154 -30 229.5 -133t75.5 -292q0 -229 -112.5 -333.5t-329.5 -104.5q-140 0 -237 35v177q104 -38 216 -38q130 0 189 59t59 216q0 144 -64.5 200.5t-216.5 56.5h-58v94l279 435q-98 75 -270 75q-154 0 -227.5 -72.5t-73.5 -218.5v-999h-212v985q0 232 127 355
t379 123q174 0 309 -58.5t211 -141.5z" />
    <glyph glyph-name="Ygrave" unicode="&#x1ef2;" horiz-adv-x="1249" 
d="M626 1556l-300 302h226l217 -270zM1221 1434l-490 -883v-551h-212v551l-493 883h235l367 -665l364 665h229z" />
    <glyph glyph-name="ygrave" unicode="&#x1ef3;" horiz-adv-x="1040" 
d="M532 1161l-300 301h226l218 -269zM280 -408q-98 0 -148 31l-32 172q58 -29 131 -29q62 0 101 30.5t67 105.5l38 99l-414 1037h213l300 -787l271 787h205l-436 -1190q-50 -136 -122 -196t-174 -60z" />
    <glyph glyph-name="endash" unicode="&#x2013;" horiz-adv-x="1155" 
d="M128 502v170h898v-170h-898z" />
    <glyph glyph-name="emdash" unicode="&#x2014;" horiz-adv-x="1748" 
d="M128 502v170h1493v-170h-1493z" />
    <glyph glyph-name="quoteleft" unicode="&#x2018;" horiz-adv-x="485" 
d="M399 1516l-82 -528h-238l208 528h112z" />
    <glyph glyph-name="quoteright" unicode="&#x2019;" horiz-adv-x="460" 
d="M104 988l82 528h238l-207 -528h-113z" />
    <glyph glyph-name="quotesinglbase" unicode="&#x201a;" horiz-adv-x="505" 
d="M67 -270l82 528h238l-208 -528h-112z" />
    <glyph glyph-name="quotedblleft" unicode="&#x201c;" horiz-adv-x="833" 
d="M399 1516l-82 -528h-238l208 528h112zM747 1516l-82 -528h-238l207 528h113z" />
    <glyph glyph-name="quotedblright" unicode="&#x201d;" horiz-adv-x="800" 
d="M104 988l82 528h238l-207 -528h-113zM444 988l82 528h238l-207 -528h-113z" />
    <glyph glyph-name="quotedblbase" unicode="&#x201e;" horiz-adv-x="851" 
d="M67 -270l82 528h238l-208 -528h-112zM414 -270l83 528h238l-208 -528h-113z" />
    <glyph glyph-name="dagger" unicode="&#x2020;" horiz-adv-x="935" 
d="M882 1106v-149h-334v-1203h-159v1203h-335v149h335v328h159v-328h334z" />
    <glyph glyph-name="daggerdbl" unicode="&#x2021;" horiz-adv-x="1040" 
d="M935 957h-334v-726h334v-149h-334v-328h-159v328h-335v149h335v726h-335v149h335v328h159v-328h334v-149z" />
    <glyph glyph-name="bullet" unicode="&#x2022;" horiz-adv-x="724" 
d="M361 366q-85 0 -143 51t-58 144q0 94 57.5 145t143.5 51q87 0 145 -51t58 -145q0 -93 -58 -144t-145 -51z" />
    <glyph glyph-name="ellipsis" unicode="&#x2026;" horiz-adv-x="1480" 
d="M130 0v258h228v-258h-228zM626 0v258h229v-258h-229zM1123 0v258h228v-258h-228z" />
    <glyph glyph-name="perthousand" unicode="&#x2030;" horiz-adv-x="2426" 
d="M392 733q-326 0 -326 367q0 364 326 364q328 0 328 -364q0 -367 -328 -367zM252 0l963 1434h188l-963 -1434h-188zM392 879q86 0 128 53.5t42 167.5q0 115 -41.5 167.5t-128.5 52.5q-85 0 -125.5 -52t-40.5 -168q0 -115 40.5 -168t125.5 -53zM1267 -20q-326 0 -326 366
q0 365 326 365q165 0 246 -90.5t81 -274.5q0 -366 -327 -366zM2039 -20q-326 0 -326 366q0 365 326 365t326 -365q0 -366 -326 -366zM1267 126q86 0 127 52.5t41 167.5q0 116 -41 168t-127 52q-85 0 -126 -52.5t-41 -167.5q0 -114 41 -167t126 -53zM2039 126q86 0 127 53
t41 167q0 115 -41 167.5t-127 52.5q-85 0 -126.5 -52.5t-41.5 -167.5q0 -114 41.5 -167t126.5 -53z" />
    <glyph glyph-name="guilsinglleft" unicode="&#x2039;" horiz-adv-x="602" 
d="M316 127l-244 393l244 393h185l-212 -393l212 -393h-185z" />
    <glyph glyph-name="guilsinglright" unicode="&#x203a;" horiz-adv-x="602" 
d="M286 127h-185l212 393l-212 393h185l244 -393z" />
    <glyph glyph-name="fraction" unicode="&#x2044;" horiz-adv-x="385" 
d="M-382 0l971 1434h172l-971 -1434h-172z" />
    <glyph glyph-name="Euro" unicode="&#x20ac;" horiz-adv-x="1261" 
d="M846 158q91 0 183.5 26t151.5 58l-30 -205q-52 -26 -139 -46t-179 -20q-243 0 -381.5 126.5t-178.5 387.5h-197v158h182q-1 24 -1 74q0 30 2 88h-186v159h202q42 254 180 376.5t378 122.5q90 0 175.5 -21.5t136.5 -48.5l12 -196q-51 30 -137 54t-174 24
q-149 0 -234.5 -74t-118.5 -237h488l-25 -159h-482q-2 -56 -2 -88q0 -26 2 -74h450l-25 -158h-409q31 -172 118 -249.5t238 -77.5z" />
    <glyph glyph-name="uni20BD" unicode="&#x20bd;" horiz-adv-x="1284" 
d="M98 252v167h174v162h-174v167h174v686h466q240 0 360 -113t120 -322q0 -201 -120 -309.5t-360 -108.5h-260v-162h523v-167h-523v-252h-206v252h-174zM478 748h260q136 0 204 64t68 184q0 121 -68 186t-204 65h-260v-499z" />
    <glyph glyph-name="uni2113" unicode="&#x2113;" horiz-adv-x="909" 
d="M374 446q0 -132 19.5 -201.5t58 -94t109.5 -24.5q67 0 131 21t95 42l31 21v-160q-12 -8 -35 -19.5t-96.5 -31t-151.5 -19.5q-165 0 -243.5 86t-78.5 290v8l-140 -83v170l140 87v599q0 326 318 326q152 0 232.5 -85t80.5 -241q0 -75 -12 -139.5t-43.5 -134.5t-83.5 -134.5
t-135.5 -133t-195.5 -135.5v-14zM531 1317q-81 0 -119 -44t-38 -136v-499q93 57 155 117.5t93.5 124.5t43.5 123.5t12 133.5q0 86 -37 133t-110 47z" />
    <glyph glyph-name="uni2116" unicode="&#x2116;" horiz-adv-x="2197" 
d="M1783 731q-326 0 -326 367q0 365 326 365q328 0 328 -365q0 -367 -328 -367zM1063 1434h197v-1434h-181l-696 1067v-1067h-199v1434h183l696 -1066v1066zM1783 878q86 0 127.5 53t41.5 167q0 116 -41 168t-128 52q-85 0 -126 -52.5t-41 -167.5q0 -114 41 -167t126 -53z
M1496 435v153h575v-153h-575z" />
    <glyph glyph-name="uni2117" unicode="&#x2117;" horiz-adv-x="1667" 
d="M834 -20q-155 0 -293 57.5t-236.5 156t-156 236.5t-57.5 293t57.5 292.5t156 236t236.5 155.5t293 57t292.5 -57t236 -155.5t156 -236t57.5 -292.5t-57.5 -293t-156 -236.5t-236 -156t-292.5 -57.5zM834 87q177 0 321 83t226 229t82 324t-82 323t-226 227.5t-321 82.5
t-321 -82.5t-226.5 -227.5t-82.5 -323t82.5 -324t227 -229t320.5 -83zM576 295v844h330q152 0 228.5 -69.5t76.5 -199.5q0 -129 -76.5 -198t-228.5 -69h-200v-308h-130zM706 721h200q172 0 172 149q0 151 -172 151h-200v-300z" />
    <glyph glyph-name="trademark" unicode="&#x2122;" horiz-adv-x="1456" 
d="M261 844v465h-194v125h515v-125h-189v-465h-132zM679 844v590h127l187 -264l187 264h130v-590h-132v385l-186 -265l-185 263v-383h-128z" />
    <glyph glyph-name="estimated" unicode="&#x212e;" horiz-adv-x="1601" 
d="M816 -20q-146 0 -279.5 57t-230 153.5t-154 230t-57.5 279.5t57.5 279.5t154 230t230 154t279.5 57.5t279.5 -57.5t230 -154t154 -230t57.5 -279.5v-49h-1114v-446q184 -137 393 -137q202 0 383 127h137q-203 -215 -520 -215zM423 741h786v453q-175 139 -393 139
q-213 0 -393 -137v-455z" />
    <glyph glyph-name="oneeighth" unicode="&#x215b;" horiz-adv-x="1665" 
d="M236 666v577l-187 -60v149l348 112v-778h-161zM1112 1434h172l-970 -1434h-172zM1444 408q68 -27 106.5 -73t38.5 -126q0 -105 -83 -166.5t-219 -61.5t-219 57t-83 154q0 66 41 112.5t102 72.5q-122 57 -122 187q0 100 76 159t205 59q130 0 205.5 -55t75.5 -148
q0 -60 -35.5 -103.5t-88.5 -67.5zM1287 652q-62 0 -96.5 -24.5t-34.5 -66.5q0 -18 5.5 -33t20.5 -26.5t26.5 -19t37.5 -16t39.5 -12.5t46.5 -12q87 45 87 113q0 46 -35 71.5t-97 25.5zM1287 112q67 0 105.5 27t38.5 74q0 22 -10 39.5t-22 28t-40 22t-43.5 16t-53.5 14.5
q-5 1 -7.5 2t-7 2t-7.5 2q-97 -50 -97 -123q0 -49 38 -76.5t106 -27.5z" />
    <glyph glyph-name="threeeighths" unicode="&#x215c;" horiz-adv-x="1861" 
d="M643 871q1 -114 -80 -167.5t-225 -54.5q-65 0 -125 11t-85.5 21t-35.5 16l-24 158q14 -10 40.5 -23.5t85.5 -31t115 -17.5q176 0 174 109q0 51 -30 75.5t-96 24.5h-160v122h148q116 0 116 98q0 53 -33.5 79t-108.5 26q-108 0 -228 -60l9 137q104 56 248 56q128 0 201 -53
t73 -159q0 -123 -112 -174q133 -48 133 -193zM1310 1434h172l-971 -1434h-172zM1641 408q68 -27 107 -73t39 -126q0 -105 -83.5 -166.5t-219.5 -61.5t-219 57t-83 154q0 66 41 112.5t103 72.5q-123 57 -123 187q0 100 76 159t205 59q130 0 205.5 -55t75.5 -148
q0 -60 -35.5 -103.5t-88.5 -67.5zM1484 652q-62 0 -96.5 -24.5t-34.5 -66.5q0 -18 5.5 -33t20.5 -26.5t26.5 -19t37.5 -16t39.5 -12.5t46.5 -12q87 45 87 113q0 46 -35 71.5t-97 25.5zM1484 112q67 0 105.5 27t38.5 74q0 35 -27.5 60t-53.5 34t-88 26q-4 1 -7 2t-7 2t-7 2
q-98 -50 -98 -123q0 -49 38 -76.5t106 -27.5z" />
    <glyph glyph-name="fiveeighths" unicode="&#x215d;" horiz-adv-x="1853" 
d="M643 902q0 -126 -82 -190.5t-243 -64.5q-58 0 -112 10.5t-80 21.5l-25 11l-23 156q11 -7 30.5 -18t80 -29.5t121.5 -18.5q171 0 171 127q0 120 -169 120q-58 0 -114.5 -9.5t-83.5 -19.5l-27 -10l40 446h487l-23 -134h-338l-15 -179q66 19 138 19q125 0 196 -61.5
t71 -176.5zM1300 1434h172l-970 -1434h-173zM1632 408q68 -27 106.5 -73t38.5 -126q0 -105 -83 -166.5t-219 -61.5t-219 57t-83 154q0 66 41 112.5t102 72.5q-122 57 -122 187q0 100 76 159t205 59q130 0 205.5 -55t75.5 -148q0 -60 -35.5 -103.5t-88.5 -67.5zM1475 652
q-62 0 -97 -24.5t-35 -66.5q0 -22 11 -39.5t23.5 -28t41.5 -21.5t45.5 -15.5t55.5 -14.5q86 44 86 113q0 46 -34.5 71.5t-96.5 25.5zM1475 112q67 0 105.5 27t38.5 74q0 22 -10 39.5t-22 28t-40 22t-43.5 16t-53.5 14.5q-5 1 -7.5 2t-7 2t-7.5 2q-97 -50 -97 -123
q0 -49 38 -76.5t106 -27.5z" />
    <glyph glyph-name="seveneighths" unicode="&#x215e;" horiz-adv-x="1703" 
d="M299 666h-165l277 627h-365v141h534v-131zM1151 1434h172l-971 -1434h-172zM1483 408q68 -27 106.5 -73t38.5 -126q0 -105 -83 -166.5t-219 -61.5t-219.5 57t-83.5 154q0 66 41 112.5t103 72.5q-122 57 -122 187q0 100 76 159t205 59q130 0 205.5 -55t75.5 -148
q0 -60 -35.5 -103.5t-88.5 -67.5zM1326 652q-62 0 -97 -24.5t-35 -66.5q0 -18 5.5 -33t20.5 -26.5t26.5 -19t37.5 -16t39.5 -12.5t46.5 -12q87 45 87 113q0 46 -34.5 71.5t-96.5 25.5zM1326 112q67 0 105.5 27t38.5 74q0 22 -10 39.5t-22 28t-40 22t-43.5 16t-53.5 14.5
q-5 1 -7.5 2t-7 2t-7.5 2q-97 -50 -97 -123q0 -49 38 -76.5t106 -27.5z" />
    <glyph glyph-name="arrowleft" unicode="&#x2190;" horiz-adv-x="1574" 
d="M1508 689h-1112l503 -503l-126 -126l-720 719l720 720l126 -127l-503 -503l1111 -1z" />
    <glyph glyph-name="arrowup" unicode="&#x2191;" horiz-adv-x="1531" 
d="M1485 675l-127 -126l-503 503v-1112l-179 1l-1 1111l-503 -503l-127 126l720 720z" />
    <glyph glyph-name="arrowright" unicode="&#x2192;" horiz-adv-x="1574" 
d="M803 1499l720 -720l-720 -719l-127 126l503 503h-1112l1 179l1111 1l-503 503z" />
    <glyph glyph-name="arrowdown" unicode="&#x2193;" horiz-adv-x="1529" 
d="M1357 885l127 -127l-720 -719l-719 719l126 127l504 -503v1111l180 1v-1112z" />
    <glyph glyph-name="uni2196" unicode="&#x2196;" horiz-adv-x="1353" 
d="M1246 270l-126 -128l-786 786v-711h-180v1018h1018v-179h-711z" />
    <glyph glyph-name="uni2197" unicode="&#x2197;" horiz-adv-x="1353" 
d="M182 1235h1018v-1018h-179v711l-786 -786l-126 128l785 786h-712v179z" />
    <glyph glyph-name="uni2198" unicode="&#x2198;" horiz-adv-x="1353" 
d="M1020 1155h179v-1018h-1018v179h712l-785 787l126 127l786 -786v711z" />
    <glyph glyph-name="uni2199" unicode="&#x2199;" horiz-adv-x="1353" 
d="M1246 1109l-785 -787h711v-179h-1018v1018h180v-711l786 786z" />
    <glyph glyph-name="partialdiff" unicode="&#x2202;" horiz-adv-x="1132" 
d="M564 1453q80 0 145.5 -15.5t122.5 -51t96 -92t66.5 -138.5t33 -190.5t-3.5 -248.5q-14 -170 -42 -294t-69.5 -209.5t-101.5 -136.5t-134 -73.5t-172 -22.5q-230 0 -329.5 119.5t-77.5 370.5q23 255 130 372t311 117q172 0 295 -81q0 98 -15 171t-41 118.5t-65.5 72.5
t-83.5 37.5t-102 10.5q-75 0 -149.5 -16.5t-118.5 -37.5l27 167q42 19 118 35t160 16zM515 144q70 0 118.5 24t88 87t64.5 175.5t40 286.5l1 8q-109 73 -256 69q-131 0 -197.5 -76t-80.5 -247t39.5 -249t182.5 -78z" />
    <glyph glyph-name="emptyset" unicode="&#x2205;" horiz-adv-x="1335" 
d="M1081 1103q148 -161 148 -384q0 -117 -43.5 -221.5t-118.5 -179.5t-179.5 -118.5t-221.5 -43.5q-169 0 -305 86l-118 -141l-104 91l115 139q-150 160 -150 388q0 156 74 285.5t203 203.5t285 74q167 0 307 -89l119 143l110 -88zM272 719q0 -148 91 -258l503 604
q-92 54 -200 54q-166 0 -280 -116t-114 -284zM666 319q166 0 280 116t114 284q0 144 -88 254l-503 -602q91 -52 197 -52z" />
    <glyph glyph-name="product" unicode="&#x220f;" horiz-adv-x="1423" 
d="M270 -389v1638h-214v185h1311v-185h-214v-1638h-200v1638h-482v-1638h-201z" />
    <glyph glyph-name="summation" unicode="&#x2211;" horiz-adv-x="1085" 
d="M1020 1434v-185h-719l464 -729l-465 -726h720v-185h-951v185l465 726l-465 729v185h951z" />
    <glyph glyph-name="minus" unicode="&#x2212;" horiz-adv-x="1247" 
d="M134 620v171h979v-171h-979z" />
    <glyph glyph-name="radical" unicode="&#x221a;" horiz-adv-x="1355" 
d="M575 0l-282 768h-263v185h411l243 -678l473 1322h211l-578 -1597h-215z" />
    <glyph glyph-name="infinity" unicode="&#x221e;" horiz-adv-x="1646" 
d="M442 328q-145 0 -243 110.5t-98 294.5t98 294.5t243 110.5q55 0 104.5 -16.5t87 -42.5t74 -65.5t62 -77t53.5 -86.5q28 49 53.5 86.5t62 77t74 65.5t87 42.5t104.5 16.5q145 0 243 -110.5t98 -294.5t-98 -294.5t-243 -110.5q-55 0 -104 16.5t-86 41.5t-74 65.5t-62 76.5
t-55 86q-30 -50 -55 -86t-62 -76.5t-74 -65.5t-86 -41.5t-104 -16.5zM460 500q82 0 143 59t123 172q-67 117 -126 176t-140 59q-77 0 -129 -59t-52 -174t52 -174t129 -59zM1187 500q76 0 129 59t53 174t-53 174t-129 59q-81 0 -140 -58.5t-127 -176.5q63 -114 124 -172.5
t143 -58.5z" />
    <glyph glyph-name="integral" unicode="&#x222b;" horiz-adv-x="686" 
d="M5 -618v172h111q62 0 95.5 33t33.5 97v1457q0 137 81.5 215t229.5 78h124v-173h-111q-61 0 -94 -33t-33 -97v-1457q0 -137 -82 -214.5t-229 -77.5h-126z" />
    <glyph glyph-name="approxequal" unicode="&#x2248;" horiz-adv-x="1251" 
d="M882 752q-54 0 -110.5 17.5t-103.5 42t-90 49t-85 42t-75 17.5q-114 0 -114 -155h-167q-2 158 61.5 244.5t184.5 86.5q57 0 114.5 -17.5t102.5 -42t87 -49t84.5 -42t77.5 -17.5q113 0 113 158h167q1 -158 -60.5 -246t-186.5 -88zM882 315q-66 0 -137.5 26.5t-122.5 57.5
t-108 57.5t-96 26.5q-114 0 -114 -155h-167q-2 158 61.5 244.5t184.5 86.5q70 0 141.5 -26.5t120.5 -57.5t105 -57.5t99 -26.5q113 0 113 158h167q1 -158 -60.5 -246t-186.5 -88z" />
    <glyph glyph-name="notequal" unicode="&#x2260;" horiz-adv-x="1245" 
d="M1113 847h-347l-138 -280h485v-171h-568l-94 -191h-146l93 191h-265v171h349l137 280h-486v170h569l94 191h147l-94 -191h264v-170z" />
    <glyph glyph-name="lessequal" unicode="&#x2264;" horiz-adv-x="1110" 
d="M960 1230v-175l-579 -208l579 -207v-175l-819 296v171zM141 171v171h818v-171h-818z" />
    <glyph glyph-name="greaterequal" unicode="&#x2265;" horiz-adv-x="1110" 
d="M150 1230l819 -298v-171l-819 -296v175l580 207l-580 208v175zM151 171v171h818v-171h-818z" />
    <glyph glyph-name="lozenge" unicode="&#x25ca;" horiz-adv-x="1093" 
d="M476 0l-417 717l417 717h139l415 -717l-415 -717h-139zM544 208l302 509l-302 509l-300 -509z" />
    <glyph glyph-name="germandbls.calt" horiz-adv-x="1327" 
d="M924 843q154 -30 229.5 -133t75.5 -292q0 -229 -112.5 -333.5t-329.5 -104.5q-140 0 -237 35v177q104 -38 216 -38q130 0 189 59t59 216q0 144 -64.5 200.5t-216.5 56.5h-58v94l279 435q-98 75 -270 75q-154 0 -227.5 -72.5t-73.5 -218.5v-999h-212v985q0 232 127 355
t379 123q174 0 309 -58.5t211 -141.5z" />
    <glyph glyph-name="i.loclTRK" horiz-adv-x="509" 
d="M157 1192v222h196v-222h-196zM157 0v1038h196v-1038h-196z" />
    <glyph glyph-name="a.ss01" horiz-adv-x="1155" 
d="M833 1038h167v-1038h-167l-29 140v-1q-9 -21 -30 -45t-56.5 -51t-94.5 -44.5t-129 -17.5q-205 0 -302 129t-97 409t97 409.5t302 129.5q57 0 107 -12t83 -30t59.5 -41t40 -41.5t20.5 -34.5v-2zM549 153q135 0 195 85t60 281t-60 281t-195 85t-194.5 -85t-59.5 -281
t59.5 -281t194.5 -85z" />
    <glyph glyph-name="aacute.ss01" horiz-adv-x="1155" 
d="M859 1462l-301 -301l-143 32l218 269h226zM833 1038h167v-1038h-167l-29 140v-1q-9 -21 -30 -45t-56.5 -51t-94.5 -44.5t-129 -17.5q-205 0 -302 129t-97 409t97 409.5t302 129.5q57 0 107 -12t83 -30t59.5 -41t40 -41.5t20.5 -34.5v-2zM549 153q135 0 195 85t60 281
t-60 281t-195 85t-194.5 -85t-59.5 -281t59.5 -281t194.5 -85z" />
    <glyph glyph-name="abreve.ss01" horiz-adv-x="1155" 
d="M575 1153q-145 0 -223 78.5t-87 211.5l161 31q13 -193 149 -193q137 0 147 193l161 -31q-9 -133 -86.5 -211.5t-221.5 -78.5zM833 1038h167v-1038h-167l-29 140v-1q-9 -21 -30 -45t-56.5 -51t-94.5 -44.5t-129 -17.5q-205 0 -302 129t-97 409t97 409.5t302 129.5
q57 0 107 -12t83 -30t59.5 -41t40 -41.5t20.5 -34.5v-2zM549 153q135 0 195 85t60 281t-60 281t-195 85t-194.5 -85t-59.5 -281t59.5 -281t194.5 -85z" />
    <glyph glyph-name="acircumflex.ss01" horiz-adv-x="1155" 
d="M572 1338l-206 -177l-132 32l240 269h196l241 -269l-133 -32zM833 1038h167v-1038h-167l-29 140v-1q-9 -21 -30 -45t-56.5 -51t-94.5 -44.5t-129 -17.5q-205 0 -302 129t-97 409t97 409.5t302 129.5q57 0 107 -12t83 -30t59.5 -41t40 -41.5t20.5 -34.5v-2zM549 153
q135 0 195 85t60 281t-60 281t-195 85t-194.5 -85t-59.5 -281t59.5 -281t194.5 -85z" />
    <glyph glyph-name="adieresis.ss01" horiz-adv-x="1155" 
d="M468 1415v-221h-182v221h182zM861 1415v-221h-182v221h182zM833 1038h167v-1038h-167l-29 140v-1q-9 -21 -30 -45t-56.5 -51t-94.5 -44.5t-129 -17.5q-205 0 -302 129t-97 409t97 409.5t302 129.5q57 0 107 -12t83 -30t59.5 -41t40 -41.5t20.5 -34.5v-2zM549 153
q135 0 195 85t60 281t-60 281t-195 85t-194.5 -85t-59.5 -281t59.5 -281t194.5 -85z" />
    <glyph glyph-name="agrave.ss01" horiz-adv-x="1155" 
d="M722 1193l-144 -32l-300 301h226zM833 1038h167v-1038h-167l-29 140v-1q-9 -21 -30 -45t-56.5 -51t-94.5 -44.5t-129 -17.5q-205 0 -302 129t-97 409t97 409.5t302 129.5q57 0 107 -12t83 -30t59.5 -41t40 -41.5t20.5 -34.5v-2zM549 153q135 0 195 85t60 281t-60 281
t-195 85t-194.5 -85t-59.5 -281t59.5 -281t194.5 -85z" />
    <glyph glyph-name="amacron.ss01" horiz-adv-x="1155" 
d="M871 1389v-128h-593v128h593zM833 1038h167v-1038h-167l-29 140v-1q-9 -21 -30 -45t-56.5 -51t-94.5 -44.5t-129 -17.5q-205 0 -302 129t-97 409t97 409.5t302 129.5q57 0 107 -12t83 -30t59.5 -41t40 -41.5t20.5 -34.5v-2zM549 153q135 0 195 85t60 281t-60 281t-195 85
t-194.5 -85t-59.5 -281t59.5 -281t194.5 -85z" />
    <glyph glyph-name="aogonek.ss01" horiz-adv-x="1155" 
d="M928 -282q22 0 41 4.5t27 9.5l8 4v-120q-45 -24 -119 -24q-89 0 -134 43.5t-45 120.5q0 68 43.5 132.5t123.5 111.5h-40l-29 140v-1q-9 -21 -30 -45t-56.5 -51t-94.5 -44.5t-129 -17.5q-205 0 -302 129t-97 409t97 409.5t302 129.5q57 0 107 -12t83 -30t59.5 -41
t40 -41.5t20.5 -34.5v-2l29 141h167v-1038q-152 -98 -152 -203q0 -39 21.5 -59t58.5 -20zM549 153q135 0 195 85t60 281t-60 281t-195 85t-194.5 -85t-59.5 -281t59.5 -281t194.5 -85z" />
    <glyph glyph-name="aring.ss01" horiz-adv-x="1155" 
d="M575 1151q-102 0 -168 61.5t-66 164.5q0 104 66 165.5t168 61.5q101 0 166.5 -61.5t65.5 -165.5q0 -103 -65.5 -164.5t-166.5 -61.5zM575 1499q-55 0 -87 -33t-32 -89q0 -55 32 -88t87 -33q54 0 85.5 33t31.5 88q0 56 -31.5 89t-85.5 33zM833 1038h167v-1038h-167
l-29 140v-1q-9 -21 -30 -45t-56.5 -51t-94.5 -44.5t-129 -17.5q-205 0 -302 129t-97 409t97 409.5t302 129.5q57 0 107 -12t83 -30t59.5 -41t40 -41.5t20.5 -34.5v-2zM549 153q135 0 195 85t60 281t-60 281t-195 85t-194.5 -85t-59.5 -281t59.5 -281t194.5 -85z" />
    <glyph glyph-name="atilde.ss01" horiz-adv-x="1155" 
d="M464 1297q-31 0 -58 -21.5t-71 -85.5l-104 75q70 99 121 134.5t112 35.5q42 0 86 -27.5t81.5 -54.5t63.5 -27q29 0 55.5 21.5t71.5 84.5l104 -73q-69 -99 -120 -135.5t-111 -36.5q-33 0 -68 17t-60 38t-53.5 38t-49.5 17zM833 1038h167v-1038h-167l-29 140v-1
q-9 -21 -30 -45t-56.5 -51t-94.5 -44.5t-129 -17.5q-205 0 -302 129t-97 409t97 409.5t302 129.5q57 0 107 -12t83 -30t59.5 -41t40 -41.5t20.5 -34.5v-2zM549 153q135 0 195 85t60 281t-60 281t-195 85t-194.5 -85t-59.5 -281t59.5 -281t194.5 -85z" />
    <glyph glyph-name="ae.ss01" horiz-adv-x="1794" 
d="M1709 520v-63h-709q2 -154 78 -229t252 -75q77 0 157 13.5t121 26.5l42 13l-31 -181q-12 -5 -34 -12.5t-88 -19.5t-130 -12q-263 0 -373 163v-144h-190v149q-7 -23 -28 -50t-57 -54.5t-95.5 -45.5t-129.5 -18q-205 0 -302 129t-97 409t97 409.5t302 129.5q71 0 130 -18
t95 -46t57 -55t28 -51v150h190v-136q101 156 310 156q199 0 302 -130t103 -408zM1263 894q-123 0 -190 -76t-72 -224h519q-8 300 -257 300zM549 153q135 0 195 85t60 281t-60 281t-195 85t-194.5 -85t-59.5 -281t59.5 -281t194.5 -85z" />
    <glyph glyph-name="y.ss01" horiz-adv-x="1183" 
d="M833 1038h197v-930q0 -263 -125 -389.5t-381 -126.5q-159 0 -286 49l-30 186q52 -24 134 -43.5t165 -19.5q169 0 247.5 80.5t78.5 263.5v39q-56 -79 -129 -115.5t-180 -36.5q-188 0 -285 112.5t-97 312.5v618h197v-575q0 -150 56.5 -221.5t184.5 -71.5q134 0 193.5 71.5
t59.5 221.5v575z" />
    <glyph glyph-name="yacute.ss01" horiz-adv-x="1183" 
d="M863 1462l-300 -301l-143 32l217 269h226zM833 1038h197v-930q0 -263 -125 -389.5t-381 -126.5q-159 0 -286 49l-30 186q52 -24 134 -43.5t165 -19.5q169 0 247.5 80.5t78.5 263.5v39q-56 -79 -129 -115.5t-180 -36.5q-188 0 -285 112.5t-97 312.5v618h197v-575
q0 -150 56.5 -221.5t184.5 -71.5q134 0 193.5 71.5t59.5 221.5v575z" />
    <glyph glyph-name="ycircumflex.ss01" horiz-adv-x="1183" 
d="M577 1338l-206 -177l-133 32l241 269h196l240 -269l-133 -32zM833 1038h197v-930q0 -263 -125 -389.5t-381 -126.5q-159 0 -286 49l-30 186q52 -24 134 -43.5t165 -19.5q169 0 247.5 80.5t78.5 263.5v39q-56 -79 -129 -115.5t-180 -36.5q-188 0 -285 112.5t-97 312.5v618
h197v-575q0 -150 56.5 -221.5t184.5 -71.5q134 0 193.5 71.5t59.5 221.5v575z" />
    <glyph glyph-name="ydieresis.ss01" horiz-adv-x="1183" 
d="M472 1415v-221h-182v221h182zM866 1415v-221h-182v221h182zM833 1038h197v-930q0 -263 -125 -389.5t-381 -126.5q-159 0 -286 49l-30 186q52 -24 134 -43.5t165 -19.5q169 0 247.5 80.5t78.5 263.5v39q-56 -79 -129 -115.5t-180 -36.5q-188 0 -285 112.5t-97 312.5v618
h197v-575q0 -150 56.5 -221.5t184.5 -71.5q134 0 193.5 71.5t59.5 221.5v575z" />
    <glyph glyph-name="ygrave.ss01" horiz-adv-x="1183" 
d="M726 1193l-143 -32l-300 301h226zM833 1038h197v-930q0 -263 -125 -389.5t-381 -126.5q-159 0 -286 49l-30 186q52 -24 134 -43.5t165 -19.5q169 0 247.5 80.5t78.5 263.5v39q-56 -79 -129 -115.5t-180 -36.5q-188 0 -285 112.5t-97 312.5v618h197v-575
q0 -150 56.5 -221.5t184.5 -71.5q134 0 193.5 71.5t59.5 221.5v575z" />
    <glyph glyph-name="uni0414.loclBGR" horiz-adv-x="1445" 
d="M1271 191h124v-465h-197v274h-952v-274h-196v465h119l450 1243h201zM718 1161l-334 -970h667z" />
    <glyph glyph-name="uni041B.loclBGR" horiz-adv-x="1302" 
d="M1280 0h-229l-402 1151l-406 -1151h-222l531 1434h200z" />
    <glyph glyph-name="uni0424.loclBGR" horiz-adv-x="1728" 
d="M971 1390q315 0 485.5 -170t170.5 -503t-170.5 -503.5t-485.5 -170.5v-135h-212v135q-316 0 -487 171t-171 503t171 502.5t487 170.5v136h212v-136zM766 1224v1v-5q-100 0 -180.5 -28t-141.5 -86.5t-94.5 -157t-33.5 -231.5q0 -258 121.5 -381t328.5 -123v1011zM963 213
q99 0 179 28.5t141.5 87.5t95 157.5t33.5 230.5q0 259 -121.5 381t-327.5 122v-1007z" />
    <glyph glyph-name="uni0414.ss02" horiz-adv-x="1445" 
d="M1271 191h124v-465h-197v274h-952v-274h-196v465h119l450 1243h201zM718 1161l-334 -970h667z" />
    <glyph glyph-name="uni041B.ss02" horiz-adv-x="1302" 
d="M1280 0h-229l-402 1151l-406 -1151h-222l531 1434h200z" />
    <glyph glyph-name="uni0424.ss02" horiz-adv-x="1728" 
d="M971 1390q315 0 485.5 -170t170.5 -503t-170.5 -503.5t-485.5 -170.5v-135h-212v135q-316 0 -487 171t-171 503t171 502.5t487 170.5v136h212v-136zM766 1224v1v-5q-100 0 -180.5 -28t-141.5 -86.5t-94.5 -157t-33.5 -231.5q0 -258 121.5 -381t328.5 -123v1011zM963 213
q99 0 179 28.5t141.5 87.5t95 157.5t33.5 230.5q0 259 -121.5 381t-327.5 122v-1007z" />
    <glyph glyph-name="uni0432.loclBGR" horiz-adv-x="1128" 
d="M1035 405q1 -209 -112.5 -316.5t-335.5 -107.5q-227 0 -337 118t-110 363v540q0 216 110 333.5t330 117.5q210 0 319.5 -103t109.5 -284q0 -242 -161 -325q102 -41 144.5 -125.5t42.5 -210.5zM573 1281q-121 0 -178.5 -68t-57.5 -211v-191h254q218 0 218 236
q0 234 -236 234zM587 153q250 0 248 255q-1 125 -56.5 183.5t-175.5 58.5h-266v-188q0 -161 60 -235t190 -74z" />
    <glyph glyph-name="uni0433.loclBGR" horiz-adv-x="962" 
d="M457 -22q-192 0 -286.5 76t-94.5 216q0 124 66.5 199.5t223.5 116.5l162 44q83 22 116.5 52.5t33.5 83.5q0 57 -44.5 87.5t-147.5 31.5q-95 1 -194.5 -20t-165.5 -48l12 184q63 22 162 39.5t195 17.5q379 0 379 -284q0 -124 -61.5 -194.5t-208.5 -108.5l-170 -43
q-87 -25 -124 -59t-37 -91q0 -63 44.5 -95t148.5 -32q124 0 233 28.5t168 64.5l-33 -191q-55 -28 -156.5 -51.5t-220.5 -23.5z" />
    <glyph glyph-name="uni0434.loclBGR" horiz-adv-x="1155" 
d="M494 -408q-159 0 -286 49l-30 186q52 -24 134 -43.5t165 -19.5q167 0 246 78.5t81 254.5v42q-9 -21 -30 -43.5t-57 -46.5t-94.5 -39t-128.5 -15q-205 0 -302 125.5t-97 398.5q0 280 97 409.5t302 129.5q70 0 129 -17.5t94.5 -44.5t56.5 -51t30 -45l29 138h167v-930
q0 -261 -125.5 -388.5t-380.5 -127.5zM549 167q135 0 195 81.5t60 270.5q0 196 -60 281t-195 85t-194.5 -85t-59.5 -281q0 -189 59.5 -270.5t194.5 -81.5z" />
    <glyph glyph-name="uni0436.loclBGR" horiz-adv-x="1591" 
d="M28 0l359 539l-333 499h216l281 -431h146v815l197 31v-846h145l281 431h216l-331 -499l358 -539h-226l-292 445h-151v-445h-197v445h-151l-291 -445h-227z" />
    <glyph glyph-name="uni0437.loclBGR" horiz-adv-x="972" 
d="M688 348q107 -39 152 -127t45 -226q1 -200 -119 -301.5t-360 -101.5q-108 0 -195 20t-127 44l-31 183q57 -29 149.5 -52t190.5 -23q150 0 221.5 59t70.5 185q-1 127 -59.5 186.5t-184.5 59.5h-218v167h196q126 0 183 59t57 180q0 116 -65.5 170.5t-204.5 54.5
q-88 0 -174.5 -20.5t-141.5 -46.5l11 176q45 24 135.5 44t198.5 20q441 0 441 -384q0 -246 -171 -326z" />
    <glyph glyph-name="uni0438.loclBGR" horiz-adv-x="1183" 
d="M525 -19q-189 0 -286 112.5t-97 313.5v631h197v-589q0 -149 57 -221t185 -72q133 0 192.5 72t59.5 221v589h197v-1038h-165l-32 138q-90 -157 -308 -157z" />
    <glyph glyph-name="uni0439.loclBGR" horiz-adv-x="1183" 
d="M581 1152q-145 0 -223 78t-87 211l160 31q13 -193 150 -193q136 0 147 193l160 -31q-9 -133 -86 -211t-221 -78zM525 -19q-189 0 -286 112.5t-97 313.5v631h197v-589q0 -149 57 -221t185 -72q133 0 192.5 72t59.5 221v589h197v-1038h-165l-32 138q-90 -157 -308 -157z
" />
    <glyph glyph-name="uni045D.loclBGR" horiz-adv-x="1183" 
d="M584 1161l-300 301h226l217 -269zM525 -19q-189 0 -286 112.5t-97 313.5v631h197v-589q0 -149 57 -221t185 -72q133 0 192.5 72t59.5 221v589h197v-1038h-165l-32 138q-90 -157 -308 -157z" />
    <glyph glyph-name="uni043A.loclBGR" horiz-adv-x="1085" 
d="M834 0l-327 447h-156v-447h-197v1422l197 31v-839h153l310 424h226l-375 -500l403 -538h-234z" />
    <glyph glyph-name="uni043B.loclBGR" horiz-adv-x="1073" 
d="M1050 0h-212l-303 815l-306 -815h-205l415 1038h199z" />
    <glyph glyph-name="uni043F.loclBGR" horiz-adv-x="1183" 
d="M154 0v1038h166l31 -137q90 157 308 157q189 0 286 -112.5t97 -313.5v-632h-197v590q0 149 -57 221t-185 72q-133 0 -192.5 -72t-59.5 -221v-590h-197z" />
    <glyph glyph-name="uni0442.loclBGR" horiz-adv-x="1800" 
d="M1283 1058q185 0 280 -111t95 -310v-637h-197v595q0 146 -53 217t-169 71q-124 0 -179.5 -71t-55.5 -217v-595h-196v595q0 146 -52.5 217t-170.5 71q-124 0 -179 -70.5t-55 -217.5v-595h-197v1038h166l31 -137q85 157 290 157q231 0 307 -180q105 180 335 180z" />
    <glyph glyph-name="uni0446.loclBGR" horiz-adv-x="1245" 
d="M1103 176h76v-416l-183 -31v271q-72 0 -116 40.5t-44 109.5v17q-39 -88 -109.5 -137t-198.5 -49q-190 0 -288 110.5t-98 308.5v638h197v-595q0 -146 57.5 -216.5t187.5 -70.5q133 0 192.5 70.5t59.5 216.5v595h197v-789q0 -73 70 -73z" />
    <glyph glyph-name="uni0448.loclBGR" horiz-adv-x="1800" 
d="M518 -19q-185 0 -280.5 111t-95.5 309v637h197v-595q0 -146 52.5 -216.5t169.5 -70.5q124 0 179.5 70.5t55.5 216.5v595h196v-595q0 -146 52.5 -216.5t170.5 -70.5q124 0 179 70.5t55 216.5v595h197v-1038h-165l-32 138q-85 -157 -290 -157q-232 0 -307 179
q-54 -92 -135 -135.5t-199 -43.5z" />
    <glyph glyph-name="uni0449.loclBGR" horiz-adv-x="1882" 
d="M1742 176h75v-416l-183 -31v271q-72 0 -116.5 40.5t-44.5 109.5v13q-37 -91 -107.5 -136.5t-188.5 -45.5q-227 0 -314 173q-56 -89 -138 -131t-200 -42q-188 0 -285.5 112.5t-97.5 312.5v632h198v-589q0 -149 53.5 -221t174.5 -72q126 0 183 72t57 221v589h197v-589
q0 -149 54 -221t175 -72q127 0 183 71.5t56 221.5v589h197v-789q0 -73 72 -73z" />
    <glyph glyph-name="uni044E.loclBGR" horiz-adv-x="1550" 
d="M1012 1058q231 0 338 -130t107 -409t-107 -408.5t-338 -129.5q-213 0 -320 110t-122 346h-219v-438h-197v1423l197 31v-846h220q16 232 123 341.5t318 109.5zM1012 153q131 0 188 84.5t57 281.5t-57 281.5t-188 84.5t-187.5 -84.5t-56.5 -281.5t56.5 -281.5t187.5 -84.5z
" />
    <glyph glyph-name="uni0430.ss01" horiz-adv-x="1155" 
d="M833 1038h167v-1038h-167l-29 140v-1q-9 -21 -30 -45t-56.5 -51t-94.5 -44.5t-129 -17.5q-205 0 -302 129t-97 409t97 409.5t302 129.5q57 0 107 -12t83 -30t59.5 -41t40 -41.5t20.5 -34.5v-2zM549 153q135 0 195 85t60 281t-60 281t-195 85t-194.5 -85t-59.5 -281
t59.5 -281t194.5 -85z" />
    <glyph glyph-name="uni0443.ss01" horiz-adv-x="1183" 
d="M833 1038h197v-930q0 -263 -125 -389.5t-381 -126.5q-159 0 -286 49l-30 186q52 -24 134 -43.5t165 -19.5q169 0 247.5 80.5t78.5 263.5v39q-56 -79 -129 -115.5t-180 -36.5q-188 0 -285 112.5t-97 312.5v618h197v-575q0 -150 56.5 -221.5t184.5 -71.5q134 0 193.5 71.5
t59.5 221.5v575z" />
    <glyph glyph-name="uni045E.ss01" horiz-adv-x="1183" 
d="M580 1152q-145 0 -223 78t-87 211l160 31q13 -193 150 -193q136 0 147 193l160 -31q-9 -133 -86 -211t-221 -78zM833 1038h197v-930q0 -263 -125 -389.5t-381 -126.5q-159 0 -286 49l-30 186q52 -24 134 -43.5t165 -19.5q169 0 247.5 80.5t78.5 263.5v39
q-56 -79 -129 -115.5t-180 -36.5q-188 0 -285 112.5t-97 312.5v618h197v-575q0 -150 56.5 -221.5t184.5 -71.5q134 0 193.5 71.5t59.5 221.5v575z" />
    <glyph glyph-name="uni0432.ss02" horiz-adv-x="1128" 
d="M1035 405q1 -209 -112.5 -316.5t-335.5 -107.5q-227 0 -337 118t-110 363v540q0 216 110 333.5t330 117.5q210 0 319.5 -103t109.5 -284q0 -242 -161 -325q102 -41 144.5 -125.5t42.5 -210.5zM573 1281q-121 0 -178.5 -68t-57.5 -211v-191h254q218 0 218 236
q0 234 -236 234zM587 153q250 0 248 255q-1 125 -56.5 183.5t-175.5 58.5h-266v-188q0 -161 60 -235t190 -74z" />
    <glyph glyph-name="uni0433.ss02" horiz-adv-x="962" 
d="M457 -22q-192 0 -286.5 76t-94.5 216q0 124 66.5 199.5t223.5 116.5l162 44q83 22 116.5 52.5t33.5 83.5q0 57 -44.5 87.5t-147.5 31.5q-95 1 -194.5 -20t-165.5 -48l12 184q63 22 162 39.5t195 17.5q379 0 379 -284q0 -124 -61.5 -194.5t-208.5 -108.5l-170 -43
q-87 -25 -124 -59t-37 -91q0 -63 44.5 -95t148.5 -32q124 0 233 28.5t168 64.5l-33 -191q-55 -28 -156.5 -51.5t-220.5 -23.5z" />
    <glyph glyph-name="uni0434.ss02" horiz-adv-x="1155" 
d="M494 -408q-159 0 -286 49l-30 186q52 -24 134 -43.5t165 -19.5q167 0 246 78.5t81 254.5v42q-9 -21 -30 -43.5t-57 -46.5t-94.5 -39t-128.5 -15q-205 0 -302 125.5t-97 398.5q0 280 97 409.5t302 129.5q70 0 129 -17.5t94.5 -44.5t56.5 -51t30 -45l29 138h167v-930
q0 -261 -125.5 -388.5t-380.5 -127.5zM549 167q135 0 195 81.5t60 270.5q0 196 -60 281t-195 85t-194.5 -85t-59.5 -281q0 -189 59.5 -270.5t194.5 -81.5z" />
    <glyph glyph-name="uni0436.ss02" horiz-adv-x="1591" 
d="M28 0l359 539l-333 499h216l281 -431h146v815l197 31v-846h145l281 431h216l-331 -499l358 -539h-226l-292 445h-151v-445h-197v445h-151l-291 -445h-227z" />
    <glyph glyph-name="uni0437.ss02" horiz-adv-x="972" 
d="M688 348q107 -39 152 -127t45 -226q1 -200 -119 -301.5t-360 -101.5q-108 0 -195 20t-127 44l-31 183q57 -29 149.5 -52t190.5 -23q150 0 221.5 59t70.5 185q-1 127 -59.5 186.5t-184.5 59.5h-218v167h196q126 0 183 59t57 180q0 116 -65.5 170.5t-204.5 54.5
q-88 0 -174.5 -20.5t-141.5 -46.5l11 176q45 24 135.5 44t198.5 20q441 0 441 -384q0 -246 -171 -326z" />
    <glyph glyph-name="uni0438.ss02" horiz-adv-x="1183" 
d="M525 -19q-189 0 -286 112.5t-97 313.5v631h197v-589q0 -149 57 -221t185 -72q133 0 192.5 72t59.5 221v589h197v-1038h-165l-32 138q-90 -157 -308 -157z" />
    <glyph glyph-name="uni0439.ss02" horiz-adv-x="1183" 
d="M581 1152q-145 0 -223 78t-87 211l160 31q13 -193 150 -193q136 0 147 193l160 -31q-9 -133 -86 -211t-221 -78zM525 -19q-189 0 -286 112.5t-97 313.5v631h197v-589q0 -149 57 -221t185 -72q133 0 192.5 72t59.5 221v589h197v-1038h-165l-32 138q-90 -157 -308 -157z
" />
    <glyph glyph-name="uni045D.ss02" horiz-adv-x="1183" 
d="M584 1161l-300 301h226l217 -269zM525 -19q-189 0 -286 112.5t-97 313.5v631h197v-589q0 -149 57 -221t185 -72q133 0 192.5 72t59.5 221v589h197v-1038h-165l-32 138q-90 -157 -308 -157z" />
    <glyph glyph-name="uni043A.ss02" horiz-adv-x="1085" 
d="M834 0l-327 447h-156v-447h-197v1422l197 31v-839h153l310 424h226l-375 -500l403 -538h-234z" />
    <glyph glyph-name="uni043B.ss02" horiz-adv-x="1073" 
d="M1050 0h-212l-303 815l-306 -815h-205l415 1038h199z" />
    <glyph glyph-name="uni043F.ss02" horiz-adv-x="1183" 
d="M154 0v1038h166l31 -137q90 157 308 157q189 0 286 -112.5t97 -313.5v-632h-197v590q0 149 -57 221t-185 72q-133 0 -192.5 -72t-59.5 -221v-590h-197z" />
    <glyph glyph-name="uni0442.ss02" horiz-adv-x="1800" 
d="M1283 1058q185 0 280 -111t95 -310v-637h-197v595q0 146 -53 217t-169 71q-124 0 -179.5 -71t-55.5 -217v-595h-196v595q0 146 -52.5 217t-170.5 71q-124 0 -179 -70.5t-55 -217.5v-595h-197v1038h166l31 -137q85 157 290 157q231 0 307 -180q105 180 335 180z" />
    <glyph glyph-name="uni0446.ss02" horiz-adv-x="1245" 
d="M1103 176h76v-416l-183 -31v271q-72 0 -116 40.5t-44 109.5v17q-39 -88 -109.5 -137t-198.5 -49q-190 0 -288 110.5t-98 308.5v638h197v-595q0 -146 57.5 -216.5t187.5 -70.5q133 0 192.5 70.5t59.5 216.5v595h197v-789q0 -73 70 -73z" />
    <glyph glyph-name="uni0448.ss02" horiz-adv-x="1800" 
d="M518 -19q-185 0 -280.5 111t-95.5 309v637h197v-595q0 -146 52.5 -216.5t169.5 -70.5q124 0 179.5 70.5t55.5 216.5v595h196v-595q0 -146 52.5 -216.5t170.5 -70.5q124 0 179 70.5t55 216.5v595h197v-1038h-165l-32 138q-85 -157 -290 -157q-232 0 -307 179
q-54 -92 -135 -135.5t-199 -43.5z" />
    <glyph glyph-name="uni0449.ss02" horiz-adv-x="1882" 
d="M1742 176h75v-416l-183 -31v271q-72 0 -116.5 40.5t-44.5 109.5v13q-37 -91 -107.5 -136.5t-188.5 -45.5q-227 0 -314 173q-56 -89 -138 -131t-200 -42q-188 0 -285.5 112.5t-97.5 312.5v632h198v-589q0 -149 53.5 -221t174.5 -72q126 0 183 72t57 221v589h197v-589
q0 -149 54 -221t175 -72q127 0 183 71.5t56 221.5v589h197v-789q0 -73 72 -73z" />
    <glyph glyph-name="uni044E.ss02" horiz-adv-x="1550" 
d="M1012 1058q231 0 338 -130t107 -409t-107 -408.5t-338 -129.5q-213 0 -320 110t-122 346h-219v-438h-197v1423l197 31v-846h220q16 232 123 341.5t318 109.5zM1012 153q131 0 188 84.5t57 281.5t-57 281.5t-188 84.5t-187.5 -84.5t-56.5 -281.5t56.5 -281.5t187.5 -84.5z
" />
    <glyph glyph-name="Xi.ss01" horiz-adv-x="1177" 
d="M696 191h400l-36 -191h-940l-36 191h400v437h-292v191h292v425h-379l13 190h944l13 -190h-379v-425h291v-191h-291v-437z" />
    <glyph glyph-name="delta.ss01" horiz-adv-x="1089" 
d="M446 1255q105 -47 186 -98t152 -119t116.5 -147t71.5 -181.5t26 -223.5q0 -262 -109 -383.5t-344 -121.5t-344 121.5t-109 383.5q0 260 109.5 388t340.5 128q11 0 37 -2q-184 156 -420 255v179h759l16 -179h-488zM545 140q135 0 194 80.5t59 265.5q0 189 -60 275.5
t-193 85.5q-133 1 -193 -85.5t-60 -275.5q0 -185 59 -265.5t194 -80.5z" />
    <glyph glyph-name="phi.ss01" horiz-adv-x="1529" 
d="M864 1058q297 0 436.5 -130t139.5 -409t-139.5 -408.5t-436.5 -129.5v-370h-197v370q-296 0 -436.5 129.5t-140.5 408.5t140.5 409t436.5 130v363l197 32v-395zM290 519q0 -194 90.5 -279t294.5 -87v732q-204 -2 -294.5 -87t-90.5 -279zM857 153q205 2 294 87t89 279
t-89 279t-294 87v-732z" />
    <glyph glyph-name="zero.osf" horiz-adv-x="1228" 
d="M615 -29q-262 0 -387.5 159.5t-125.5 490.5q0 330 125.5 488.5t387.5 158.5t386.5 -158.5t124.5 -488.5q0 -331 -124.5 -490.5t-386.5 -159.5zM615 158q153 0 224.5 110t71.5 353q0 244 -71 352t-225 108t-225.5 -108t-71.5 -352q0 -243 72 -353t225 -110z" />
    <glyph glyph-name="one.osf" horiz-adv-x="753" 
d="M49 1075l530 193v-1268h-204v995l-326 -113v193z" />
    <glyph glyph-name="two.osf" horiz-adv-x="1083" 
d="M374 191h611v-191h-903v189l418 311q151 114 207.5 194t56.5 175q0 96 -70 155.5t-208 59.5q-100 0 -203 -30.5t-167 -68.5l13 191q62 35 170.5 63.5t225.5 28.5q212 0 332 -101t120 -269q0 -155 -90.5 -279.5t-326.5 -291.5z" />
    <glyph glyph-name="three.osf" horiz-adv-x="1095" 
d="M998 184q1 -200 -126 -303t-366 -103q-112 0 -211.5 18.5t-142.5 37.5l-44 18l-32 190q18 -9 50 -22.5t135 -36t208 -22.5q157 0 237 60.5t79 178.5q0 119 -63.5 180t-201.5 61h-266v178h252q130 0 187 60t57 176q0 233 -285 233q-101 0 -192 -23t-131 -45l-40 -23
l13 191l17 8.5t49 19.5t80.5 24.5t110.5 19t140 8.5q218 0 333.5 -98.5t115.5 -291.5q0 -255 -192 -337q227 -75 229 -357z" />
    <glyph glyph-name="four.osf" horiz-adv-x="1150" 
d="M1123 271l-31 -181h-157v-285h-200v285h-689v154l519 995h220l-507 -968h457v345h200v-345h188z" />
    <glyph glyph-name="five.osf" horiz-adv-x="1120" 
d="M564 685q211 0 341 -114t130 -331q0 -227 -140 -345t-411 -118q-116 0 -217.5 23t-152.5 46l-31 201q62 -30 162 -58t210 -28q363 0 363 276q0 272 -335 272q-168 0 -361 -67l64 797h805l-30 -186h-589l-33 -402q107 34 225 34z" />
    <glyph glyph-name="six.osf" horiz-adv-x="1169" 
d="M665 904q193 0 316.5 -118.5t123.5 -342.5q0 -212 -128 -340.5t-349 -128.5q-257 0 -393.5 170t-136.5 513q0 206 44 361t126 251t193.5 143.5t252.5 47.5q62 0 123.5 -10.5t92.5 -21.5l30 -10l12 -194q-11 6 -31 15t-83 24t-127 15q-386 0 -422 -510q139 136 356 136z
M628 157q126 0 196.5 75t70.5 211q0 133 -71 207t-199 74q-188 0 -319 -119q17 -448 322 -448z" />
    <glyph glyph-name="seven.osf" horiz-adv-x="980" 
d="M38 1239h895v-154l-460 -1280h-216l458 1249h-677v185z" />
    <glyph glyph-name="eight.osf" horiz-adv-x="1216" 
d="M814 742q164 -68 236.5 -152.5t72.5 -234.5q0 -178 -138 -281t-375 -103q-242 0 -379 100.5t-137 274.5q0 74 26.5 138t72.5 109.5t97.5 77.5t110.5 53q-142 63 -206.5 146t-64.5 220q0 175 128.5 274t351.5 99t350 -97t127 -266q0 -130 -78 -220t-195 -138zM337 1087
q0 -87 50 -139t173 -101l94 -39q40 16 75 37.5t70 54t56 78t21 99.5q0 95 -74 153t-195 58q-122 0 -196 -55t-74 -146zM609 148q131 0 212 60t81 154q0 92 -51 145.5t-179 105.5l-109 44q-42 -15 -80 -36t-79.5 -55t-66 -84t-24.5 -110q0 -101 81.5 -162.5t214.5 -61.5z" />
    <glyph glyph-name="nine.osf" horiz-adv-x="1169" 
d="M543 1268q256 0 392.5 -171.5t136.5 -514.5q0 -165 -28.5 -298t-81.5 -227t-129.5 -157t-170.5 -93t-206 -30q-129 0 -237 36l-29 200q32 -18 100.5 -36.5t148.5 -18.5q385 0 422 513q-56 -55 -146.5 -95.5t-209.5 -40.5q-193 0 -316.5 118.5t-123.5 342.5
q0 213 128 342.5t350 129.5zM275 796q0 -132 71.5 -206.5t199.5 -74.5q181 0 318 121q-17 449 -321 449q-125 0 -196.5 -76.5t-71.5 -212.5z" />
    <glyph glyph-name="zero.sinf" horiz-adv-x="778" 
d="M389 -219q-158 0 -233.5 97.5t-75.5 302.5t75.5 302t233.5 97t234 -97t76 -302t-76 -302.5t-234 -97.5zM389 -83q52 0 83 22t48.5 80.5t17.5 161.5t-17.5 161.5t-48.5 80t-83 21.5t-83 -21.5t-48 -80t-17 -161.5q0 -151 35 -207.5t113 -56.5z" />
    <glyph glyph-name="one.sinf" horiz-adv-x="524" 
d="M236 -202v578l-187 -60v149l348 111v-778h-161z" />
    <glyph glyph-name="two.sinf" horiz-adv-x="706" 
d="M289 -68h336v-134h-556v129l258 203q79 62 106.5 105.5t27.5 98.5q0 50 -35.5 81t-101.5 31q-56 0 -115 -15.5t-91 -30.5l-31 -16l10 138q11 7 31 17t87 26t139 16q128 -1 198 -64.5t70 -172.5q0 -85 -46.5 -157t-158.5 -157z" />
    <glyph glyph-name="three.sinf" horiz-adv-x="720" 
d="M643 2q1 -114 -80 -168t-225 -55q-65 0 -125 11.5t-85.5 21.5t-35.5 16l-24 157q14 -10 40.5 -23.5t85.5 -31t115 -17.5q176 0 174 109q0 51 -30 76t-96 25h-160v122h148q116 0 116 97q0 53 -33.5 79t-108.5 26q-108 0 -228 -60l9 137q106 57 248 57q128 0 201 -53.5
t73 -159.5q0 -123 -112 -174q133 -48 133 -192z" />
    <glyph glyph-name="four.sinf" horiz-adv-x="733" 
d="M447 -202v134h-402v116l308 518h164l-298 -503h228v189h149v-189h94l-24 -131h-70v-134h-149z" />
    <glyph glyph-name="five.sinf" horiz-adv-x="710" 
d="M318 -221q-58 0 -112 10.5t-80 21.5l-25 11l-23 157q11 -7 30.5 -18t80 -29.5t121.5 -18.5q171 0 171 126q0 120 -169 120q-58 0 -114.5 -9.5t-83.5 -19.5l-27 -9l40 445h487l-23 -134h-338l-15 -178q63 18 138 18q126 0 196.5 -61t70.5 -176q0 -126 -82 -191t-243 -65z
" />
    <glyph glyph-name="six.sinf" horiz-adv-x="745" 
d="M429 285q119 0 186 -63t67 -179q0 -124 -78 -194t-217 -70q-148 0 -228.5 91.5t-80.5 280.5q0 211 98 319.5t259 110.5q88 1 157 -21l23 -141q-71 33 -154 33q-213 0 -233 -243q71 76 201 76zM390 -87q65 0 101 33t36 94t-37 95t-101 34q-103 0 -161 -63
q7 -104 48 -148.5t114 -44.5z" />
    <glyph glyph-name="seven.sinf" horiz-adv-x="626" 
d="M46 566h534v-131l-281 -637h-165l277 627h-365v141z" />
    <glyph glyph-name="eight.sinf" horiz-adv-x="755" 
d="M535 206q68 -27 107 -73t39 -126q0 -105 -83.5 -166.5t-219.5 -61.5t-219 57t-83 154q0 66 41.5 113t102.5 73q-123 57 -123 186q0 100 76 159.5t205 59.5t205 -55.5t76 -148.5q0 -60 -35.5 -103.5t-88.5 -67.5zM378 450q-62 0 -96.5 -24.5t-34.5 -66.5q0 -18 5.5 -33
t20.5 -26.5t26.5 -19t37.5 -16t39.5 -12.5t46.5 -12q87 45 87 114q0 46 -35 71t-97 25zM378 -90q67 0 105.5 27t38.5 74q0 35 -27.5 60t-53.5 34t-88 26l-21 6q-98 -50 -98 -123q0 -49 38 -76.5t106 -27.5z" />
    <glyph glyph-name="nine.sinf" horiz-adv-x="743" 
d="M359 592q148 0 227.5 -91.5t79.5 -280.5q0 -211 -97 -319t-259 -110q-39 0 -77.5 5t-56.5 10l-19 5l-30 141q72 -32 157 -32q211 0 233 239q-75 -73 -201 -73q-119 0 -186 63.5t-67 179.5q0 124 78.5 193.5t217.5 69.5zM357 202q103 0 161 62q-7 105 -48.5 150t-113.5 45
q-64 0 -100.5 -33t-36.5 -95q0 -61 37 -95t101 -34z" />
    <glyph glyph-name="zero.tf" 
d="M635 -29q-272 0 -391 175t-119 571t119 571t391 175q270 0 389 -175t119 -571t-119 -571t-389 -175zM635 154q112 0 176 53t93.5 174.5t29.5 335.5q0 216 -30 337.5t-93.5 173.5t-175.5 52t-176 -52t-94 -174t-30 -337q0 -214 30 -335.5t94 -174.5t176 -53z" />
    <glyph glyph-name="one.tf" 
d="M804 190h368v-190h-991v190h417v1001l-417 -135v190l623 217v-1273z" />
    <glyph glyph-name="two.tf" 
d="M446 186h624v-186h-899v154l429 440q151 157 200.5 251t49.5 200q0 107 -68.5 170t-202.5 63q-104 0 -208.5 -30.5t-168.5 -68.5l13 191q62 35 169 64t221 29q217 0 337 -107.5t120 -292.5q0 -99 -26.5 -180t-102.5 -185t-217 -243z" />
    <glyph glyph-name="three.tf" 
d="M1084 378q1 -200 -125.5 -302.5t-365.5 -102.5q-112 0 -211.5 18.5t-143.5 36.5l-44 19l-31 189q6 -3 18 -8.5t51.5 -19.5t82 -24.5t108.5 -19t132 -8.5q157 0 237.5 60t79.5 178q0 119 -63.5 180t-201.5 61h-266v178h252q129 0 186.5 60.5t57.5 176.5q0 232 -286 232
q-101 0 -191.5 -23t-130.5 -45l-40 -23l13 191l17 8.5t49 19.5t80.5 24.5t110.5 19.5t140 9q218 0 333.5 -98.5t115.5 -291.5q0 -256 -192 -338q117 -38 172 -127t56 -230z" />
    <glyph glyph-name="four.tf" 
d="M1179 465l-29 -180h-158v-285h-200v285h-690v154l519 995h219l-506 -969h458v346h200v-346h187z" />
    <glyph glyph-name="five.tf" 
d="M641 879q211 0 340.5 -113.5t129.5 -330.5q0 -227 -140 -345.5t-411 -118.5q-115 0 -216 23t-153 47l-31 201q62 -30 162 -58t210 -28q363 0 363 276q0 272 -335 272q-168 0 -361 -67l64 797h804l-30 -187h-589l-32 -401q104 33 225 33z" />
    <glyph glyph-name="six.tf" 
d="M715 904q193 0 316 -118.5t123 -342.5q0 -212 -127.5 -340.5t-348.5 -128.5q-257 0 -393.5 170t-136.5 513q0 206 43.5 361t125.5 251t193.5 143.5t252.5 47.5q62 0 123.5 -10.5t91.5 -21.5l31 -10l13 -194q-11 6 -31 15t-83 24t-127 15q-387 0 -423 -510
q139 136 357 136zM678 157q125 0 196 75t71 211q0 133 -71 207t-199 74q-189 0 -320 -119q17 -448 323 -448z" />
    <glyph glyph-name="seven.tf" 
d="M152 1434h951v-155l-492 -1279h-217l487 1249h-729v185z" />
    <glyph glyph-name="eight.tf" 
d="M841 742q164 -68 236 -152.5t72 -234.5q0 -178 -138 -281t-375 -103q-242 0 -379 100.5t-137 274.5q0 74 26.5 138t72.5 109.5t97.5 77.5t110.5 53q-142 63 -206.5 146t-64.5 220q0 175 128.5 274t351.5 99t350 -97t127 -266q0 -68 -23 -127t-63 -102.5t-86 -75
t-100 -53.5zM363 1087q0 -87 50 -139t173 -101l94 -39q40 16 75 37.5t70 54t56 78t21 99.5q0 95 -74 153t-195 58q-122 0 -196 -55t-74 -146zM635 148q131 0 212 60t81 154q0 92 -51 145.5t-179 105.5l-108 44q-33 -12 -63 -26.5t-66 -40t-61.5 -55t-43 -72.5t-17.5 -91
q0 -101 81.5 -162.5t214.5 -61.5z" />
    <glyph glyph-name="nine.tf" 
d="M593 1463q256 0 392.5 -171.5t136.5 -515.5q0 -165 -28.5 -298t-81.5 -227t-129.5 -157t-170.5 -93t-206 -30q-129 0 -237 36l-28 201q32 -18 100 -36.5t148 -18.5q386 0 423 513q-55 -54 -146.5 -95t-210.5 -41q-193 0 -316.5 118t-123.5 342q0 213 128.5 343t349.5 130
zM325 990q0 -132 72 -206t200 -74q181 0 317 120q-17 450 -321 450q-125 0 -196.5 -77t-71.5 -213z" />
    <glyph glyph-name="zero.tosf" 
d="M635 -29q-262 0 -387 159.5t-125 490.5q0 330 125 488.5t387 158.5t386.5 -158.5t124.5 -488.5q0 -331 -124.5 -490.5t-386.5 -159.5zM635 158q153 0 224.5 110t71.5 353q0 244 -71 352t-225 108t-225.5 -108t-71.5 -352q0 -243 72 -353t225 -110z" />
    <glyph glyph-name="one.tosf" 
d="M803 191h368v-191h-991v191h417v806l-417 -135v190l623 216v-1077z" />
    <glyph glyph-name="two.tosf" 
d="M467 191h611v-191h-904v189l418 311q151 114 208 194t57 175q0 96 -70 155.5t-208 59.5q-100 0 -203 -30.5t-167 -68.5l12 191q62 35 170.5 63.5t225.5 28.5q212 0 332 -101t120 -269q0 -155 -90.5 -279t-326.5 -292z" />
    <glyph glyph-name="three.tosf" 
d="M1086 184q1 -200 -125.5 -303t-365.5 -103q-112 0 -211.5 18.5t-143.5 37.5l-44 18l-32 190q18 -9 50 -22.5t135 -36t208 -22.5q157 0 237.5 60.5t79.5 178.5q0 119 -63.5 180t-201.5 61h-267v178h252q130 0 187 60t57 176q0 233 -285 233q-101 0 -192 -23t-131 -45
l-40 -23l13 191l17 8.5t49 19.5t80.5 24.5t110.5 19t140 8.5q218 0 333.5 -98.5t115.5 -291.5q0 -256 -191 -337q117 -38 172 -127t56 -230z" />
    <glyph glyph-name="four.tosf" 
d="M1179 465l-29 -180h-158v-285h-200v285h-690v154l519 995h219l-506 -969h458v346h200v-346h187z" />
    <glyph glyph-name="five.tosf" 
d="M638 685q211 0 341 -114t130 -331q0 -227 -140 -345t-411 -118q-116 0 -217.5 23t-152.5 46l-31 201q62 -30 162 -58t210 -28q363 0 363 276q0 272 -335 272q-168 0 -361 -67l64 797h805l-30 -186h-589l-33 -402q107 34 225 34z" />
    <glyph glyph-name="six.tosf" 
d="M716 904q193 0 316 -118.5t123 -342.5q0 -212 -128 -340.5t-349 -128.5q-257 0 -393 170t-136 513q0 206 43.5 361t125.5 251t193.5 143.5t252.5 47.5q62 0 123.5 -10.5t92.5 -21.5l30 -10l13 -194q-11 6 -31 15t-83.5 24t-127.5 15q-386 0 -422 -510q139 136 357 136z
M678 157q126 0 197 75t71 211q0 133 -71.5 207t-199.5 74q-188 0 -319 -119q17 -448 322 -448z" />
    <glyph glyph-name="seven.tosf" 
d="M154 1239h952v-154l-492 -1280h-217l487 1249h-730v185z" />
    <glyph glyph-name="eight.tosf" 
d="M841 742q164 -68 236 -152.5t72 -234.5q0 -178 -138 -281t-375 -103q-242 0 -379 100.5t-137 274.5q0 74 26.5 138t72.5 109.5t97.5 77.5t110.5 53q-142 63 -206.5 146t-64.5 220q0 175 128.5 274t351.5 99t350 -97t127 -266q0 -68 -23 -127t-63 -102.5t-86 -75
t-100 -53.5zM363 1087q0 -87 50 -139t173 -101l94 -39q40 16 75 37.5t70 54t56 78t21 99.5q0 95 -74 153t-195 58q-122 0 -196 -55t-74 -146zM635 148q131 0 212 60t81 154q0 92 -51 145.5t-179 105.5l-108 44q-33 -12 -63 -26.5t-66 -40t-61.5 -55t-43 -72.5t-17.5 -91
q0 -101 81.5 -162.5t214.5 -61.5z" />
    <glyph glyph-name="nine.tosf" 
d="M593 1268q256 0 392.5 -171.5t136.5 -514.5q0 -165 -28.5 -298t-81.5 -227t-129.5 -157t-170.5 -93t-206 -30q-129 0 -237 36l-28 200q32 -18 100 -36.5t148 -18.5q386 0 423 513q-55 -54 -146.5 -95t-210.5 -41q-193 0 -316.5 118.5t-123.5 342.5q0 213 128 342.5
t350 129.5zM325 796q0 -132 72 -206.5t200 -74.5q180 0 317 121q-17 449 -321 449q-125 0 -196.5 -76.5t-71.5 -212.5z" />
    <glyph glyph-name="zero.dnom" horiz-adv-x="778" 
d="M389 -15q-158 0 -233.5 97t-75.5 302t75.5 302.5t233.5 97.5t234 -97.5t76 -302.5t-76 -302t-234 -97zM389 121q52 0 83 21.5t48.5 80t17.5 161.5t-17.5 161.5t-48.5 80.5t-83 22q-78 0 -113 -56.5t-35 -207.5q0 -103 17 -161.5t48 -80t83 -21.5z" />
    <glyph glyph-name="one.dnom" horiz-adv-x="524" 
d="M236 0v578l-187 -60v149l348 111v-778h-161z" />
    <glyph glyph-name="two.dnom" horiz-adv-x="706" 
d="M289 134h336v-134h-556v129l258 203q79 62 106.5 105.5t27.5 98.5q0 50 -35.5 81t-101.5 31q-56 0 -115 -15.5t-91 -30.5l-31 -16l10 138q11 7 31 16.5t87 25.5t139 16q128 -1 198 -64t70 -172q0 -85 -46.5 -157.5t-158.5 -157.5z" />
    <glyph glyph-name="three.dnom" horiz-adv-x="720" 
d="M643 204q1 -114 -80 -168t-225 -55q-65 0 -125 11.5t-85.5 21.5t-35.5 16l-24 157q14 -10 40.5 -23.5t85.5 -31t115 -17.5q176 0 174 109q0 51 -30 75.5t-96 24.5h-160v123h148q116 0 116 97q0 53 -33.5 79t-108.5 26q-108 0 -228 -60l9 137q104 56 248 56q128 0 201 -53
t73 -159q0 -123 -112 -174q133 -48 133 -192z" />
    <glyph glyph-name="four.dnom" horiz-adv-x="733" 
d="M447 0v134h-402v116l308 518h164l-298 -503h228v189h149v-189h94l-24 -131h-70v-134h-149z" />
    <glyph glyph-name="five.dnom" horiz-adv-x="710" 
d="M318 -19q-58 0 -112 10.5t-80 21.5l-25 11l-23 156q11 -7 30.5 -18t80 -29.5t121.5 -18.5q171 0 171 127q0 120 -169 120q-58 0 -114.5 -9.5t-83.5 -19.5l-27 -9l40 445h487l-23 -134h-338l-15 -179q66 19 138 19q126 0 196.5 -61t70.5 -176q0 -126 -82 -191t-243 -65z
" />
    <glyph glyph-name="six.dnom" horiz-adv-x="745" 
d="M429 487q119 0 186 -63t67 -179q0 -124 -78 -194t-217 -70q-148 0 -228.5 91.5t-80.5 280.5q0 210 97.5 318.5t259.5 110.5q91 1 157 -20l23 -141q-69 32 -154 32q-213 0 -233 -242q71 76 201 76zM390 114q64 0 100.5 33t36.5 95q0 61 -37 95t-101 34q-103 0 -161 -63
q7 -104 48 -149t114 -45z" />
    <glyph glyph-name="seven.dnom" horiz-adv-x="626" 
d="M46 768h534v-131l-281 -637h-165l277 627h-365v141z" />
    <glyph glyph-name="eight.dnom" horiz-adv-x="755" 
d="M535 408q68 -27 107 -73t39 -126q0 -105 -83.5 -166.5t-219.5 -61.5t-219 57t-83 154q0 66 41 112.5t103 72.5q-123 57 -123 187q0 100 76 159t205 59q130 0 205.5 -55t75.5 -148q0 -60 -35.5 -103.5t-88.5 -67.5zM378 652q-62 0 -96.5 -24.5t-34.5 -66.5q0 -18 5.5 -33
t20.5 -26.5t26.5 -19t37.5 -16t39.5 -12.5t46.5 -12q87 45 87 113q0 46 -35 71.5t-97 25.5zM378 112q67 0 105.5 27t38.5 74q0 35 -27.5 60t-53.5 34t-88 26q-4 1 -7 2t-7 2t-7 2q-98 -50 -98 -123q0 -49 38 -76.5t106 -27.5z" />
    <glyph glyph-name="nine.dnom" horiz-adv-x="743" 
d="M359 782q148 0 227.5 -91.5t79.5 -280.5q0 -211 -97.5 -319t-258.5 -110q-39 0 -77.5 5t-56.5 10l-19 5l-30 141q72 -32 157 -32q211 0 233 239q-74 -72 -201 -72q-119 0 -186 63t-67 179q0 124 78.5 193.5t217.5 69.5zM357 393q104 0 161 61q-7 105 -48.5 150t-113.5 45
q-65 0 -101 -33t-36 -94t37 -95t101 -34z" />
    <glyph glyph-name="zero.numr" horiz-adv-x="778" 
d="M389 651q-158 0 -233.5 97t-75.5 302t75.5 302t233.5 97t234 -97t76 -302t-76 -302t-234 -97zM389 787q52 0 83 21.5t48.5 80t17.5 161.5t-17.5 161.5t-48.5 80t-83 21.5t-83 -21.5t-48 -80t-17 -161.5t17 -161.5t48 -80t83 -21.5z" />
    <glyph glyph-name="one.numr" horiz-adv-x="524" 
d="M236 666v577l-187 -60v149l348 112v-778h-161z" />
    <glyph glyph-name="two.numr" horiz-adv-x="706" 
d="M289 799h336v-133h-556v129l258 202q78 62 106 106t28 99q0 50 -35.5 80.5t-101.5 30.5q-56 0 -115 -15.5t-91 -31.5l-31 -15l10 138q11 7 31 17t87 26t139 16q128 -1 198 -64t70 -172q0 -85 -46.5 -157.5t-158.5 -157.5z" />
    <glyph glyph-name="three.numr" horiz-adv-x="720" 
d="M643 871q1 -114 -80 -167.5t-225 -54.5q-65 0 -125 11t-85.5 21t-35.5 16l-24 158q14 -10 40.5 -23.5t85.5 -31t115 -17.5q176 0 174 109q0 51 -30 75.5t-96 24.5h-160v122h148q116 0 116 98q0 53 -33.5 79t-108.5 26q-108 0 -228 -60l9 137q104 56 248 56q128 0 201 -53
t73 -159q0 -123 -112 -174q133 -48 133 -193z" />
    <glyph glyph-name="four.numr" horiz-adv-x="733" 
d="M447 666v134h-402v116l308 518h164l-298 -503h228v188h149v-188h94l-24 -131h-70v-134h-149z" />
    <glyph glyph-name="five.numr" horiz-adv-x="710" 
d="M318 647q-58 0 -112 10.5t-80 21.5l-25 11l-23 156q11 -7 30.5 -18t80 -29.5t121.5 -18.5q171 0 171 127q0 120 -169 120q-58 0 -114.5 -9.5t-83.5 -19.5l-27 -10l40 446h487l-23 -134h-338l-15 -179q66 19 138 19q125 0 196 -61.5t71 -176.5q0 -126 -82 -190.5
t-243 -64.5z" />
    <glyph glyph-name="six.numr" horiz-adv-x="745" 
d="M429 1152q119 0 186 -63t67 -179q0 -124 -78 -193.5t-217 -69.5q-148 0 -228.5 91.5t-80.5 280.5q0 210 97.5 318.5t259.5 110.5q91 1 157 -20l23 -141q-69 32 -154 32q-213 0 -233 -243q71 76 201 76zM390 780q64 0 100.5 33t36.5 95q0 61 -37 95t-101 34
q-103 0 -161 -63q7 -104 48 -149t114 -45z" />
    <glyph glyph-name="seven.numr" horiz-adv-x="626" 
d="M46 1434h534v-131l-281 -637h-165l277 627h-365v141z" />
    <glyph glyph-name="eight.numr" horiz-adv-x="755" 
d="M535 1076q146 -58 146 -200q0 -105 -83.5 -166t-219.5 -61t-219 56.5t-83 153.5q0 66 41.5 113t102.5 73q-123 57 -123 187q0 100 76 159t205 59t205 -55.5t76 -148.5q0 -60 -35.5 -103t-88.5 -67zM378 1320q-62 0 -96.5 -24.5t-34.5 -66.5q0 -18 5.5 -33t20.5 -26.5
t26.5 -19t37.5 -16t39.5 -12.5t46.5 -12q87 45 87 113q0 46 -35 71.5t-97 25.5zM378 779q67 0 105.5 27.5t38.5 74.5q0 35 -27.5 60t-53.5 34t-88 26l-21 6q-98 -50 -98 -123q0 -49 38 -77t106 -28z" />
    <glyph glyph-name="nine.numr" horiz-adv-x="743" 
d="M359 1464q148 0 227.5 -91.5t79.5 -280.5q0 -211 -97.5 -319t-258.5 -110q-39 0 -77.5 5t-56.5 10l-19 5l-30 141q72 -32 157 -32q211 0 233 239q-74 -72 -201 -72q-119 0 -186 63t-67 179q0 124 78.5 193.5t217.5 69.5zM357 1075q104 0 161 61q-7 105 -48.5 150
t-113.5 45q-65 0 -101 -33t-36 -94t37 -95t101 -34z" />
    <glyph glyph-name="zero.sups" horiz-adv-x="778" 
d="M389 855q-158 0 -233.5 97.5t-75.5 302.5t75.5 302t233.5 97t234 -97t76 -302t-76 -302.5t-234 -97.5zM389 992q52 0 83 21.5t48.5 80t17.5 161.5t-17.5 161.5t-48.5 80t-83 21.5t-83 -21.5t-48 -80t-17 -161.5t17 -161.5t48 -80t83 -21.5z" />
    <glyph glyph-name="one.sups" horiz-adv-x="524" 
d="M236 870v578l-187 -60v149l348 112v-779h-161z" />
    <glyph glyph-name="two.sups" horiz-adv-x="706" 
d="M289 1004h336v-134h-556v130l258 202q79 62 106.5 105.5t27.5 98.5q0 50 -35.5 81t-101.5 31q-56 0 -115 -15.5t-91 -30.5l-31 -16l10 138q11 7 31 17t87 26t139 16q128 -1 198 -64.5t70 -172.5q0 -85 -46.5 -157t-158.5 -157z" />
    <glyph glyph-name="three.sups" horiz-adv-x="720" 
d="M643 1076q1 -114 -80 -167.5t-225 -54.5q-65 0 -125 11t-85.5 21t-35.5 16l-24 158q15 -10 41 -23.5t85 -31.5t115 -18q176 0 174 110q0 51 -30 75.5t-96 24.5h-160v122h148q116 0 116 97q0 53 -33.5 79.5t-108.5 26.5q-106 0 -228 -61l9 138q104 56 248 56
q128 0 201 -53.5t73 -159.5q0 -122 -112 -173q133 -48 133 -193z" />
    <glyph glyph-name="four.sups" horiz-adv-x="733" 
d="M447 870v134h-402v117l308 517h164l-298 -503h228v189h149v-189h94l-24 -131h-70v-134h-149z" />
    <glyph glyph-name="five.sups" horiz-adv-x="710" 
d="M318 852q-58 0 -112 10.5t-80 21.5l-25 10l-23 157q11 -7 30.5 -18t80 -29.5t121.5 -18.5q171 0 171 126q0 121 -169 121q-58 0 -114.5 -10t-83.5 -20l-27 -9l40 445h487l-23 -133h-338l-15 -179q66 19 138 19q125 0 196 -61.5t71 -176.5q0 -126 -82 -190.5t-243 -64.5z
" />
    <glyph glyph-name="six.sups" horiz-adv-x="745" 
d="M429 1357q119 0 186 -63t67 -179q0 -124 -78 -193.5t-217 -69.5q-148 0 -228.5 91t-80.5 280q0 211 98 319.5t259 110.5q91 1 157 -20l23 -141q-69 32 -154 32q-213 0 -233 -243q71 76 201 76zM390 985q65 0 101 33t36 94t-37 95t-101 34q-103 0 -161 -63
q7 -104 48 -148.5t114 -44.5z" />
    <glyph glyph-name="seven.sups" horiz-adv-x="626" 
d="M46 1638h534v-130l-281 -638h-165l277 627h-365v141z" />
    <glyph glyph-name="eight.sups" horiz-adv-x="755" 
d="M535 1280q68 -27 107 -73t39 -126q0 -105 -83.5 -166t-219.5 -61t-219 56.5t-83 153.5q0 66 41.5 113t102.5 73q-123 57 -123 187q0 100 76 159t205 59t205 -55.5t76 -148.5q0 -60 -35.5 -103.5t-88.5 -67.5zM378 1524q-62 0 -96.5 -24t-34.5 -66q0 -18 5.5 -33
t20.5 -26.5t26.5 -19t37.5 -16t39.5 -12.5t46.5 -12q87 45 87 113q0 46 -35 71t-97 25zM378 984q67 0 105.5 27t38.5 74q0 22 -9.5 39.5t-23.5 29t-39 22t-46 16.5t-53 15q-13 3 -19 5q-98 -50 -98 -123q0 -49 38 -77t106 -28z" />
    <glyph glyph-name="nine.sups" horiz-adv-x="743" 
d="M359 1669q148 0 227.5 -91.5t79.5 -280.5q0 -211 -97.5 -319t-258.5 -110q-39 0 -77.5 5t-56.5 10l-19 5l-30 141q72 -32 157 -32q211 0 233 239q-74 -72 -201 -72q-119 0 -186 63t-67 179q0 124 78.5 193.5t217.5 69.5zM357 1279q103 0 161 62q-7 105 -48.5 150
t-113.5 45q-64 0 -100.5 -33t-36.5 -95q0 -61 37 -95t101 -34z" />
    <glyph glyph-name="parenleft.case" horiz-adv-x="624" 
d="M439 -225q-7 7 -20 21t-49.5 62.5t-69.5 102t-73.5 138.5t-69.5 174t-49 206.5t-20 237.5t19.5 237t50.5 207.5t68.5 172.5t74.5 140t68 100.5t51 63.5l19 21l170 -32q-13 -14 -35.5 -40t-79 -114.5t-100 -186.5t-79 -253t-35.5 -316q0 -118 18 -231.5t47 -201.5
t64 -166.5t70.5 -134t64.5 -96.5t47 -61l18 -19z" />
    <glyph glyph-name="parenright.case" horiz-adv-x="624" 
d="M186 -225l-171 32q13 14 35.5 40t79 114.5t100 186.5t79 253t35.5 316q0 118 -18 231.5t-47 201.5t-64 166.5t-70.5 134t-64.5 96.5t-47 61l-18 19l171 32q7 -7 20 -21t49 -62.5t69 -102t73.5 -138.5t69.5 -174t49 -206.5t20 -237.5t-19.5 -237t-50 -207.5t-68 -172.5
t-75 -140t-68 -100.5t-49.5 -63.5z" />
    <glyph glyph-name="braceleft.case" horiz-adv-x="673" 
d="M409 959q0 -101 -38.5 -160t-120.5 -81q82 -22 120.5 -81t38.5 -160v-376q0 -83 34 -120t111 -37h65v-158h-65q-169 0 -247.5 76t-78.5 239v383q0 82 -33 116.5t-110 34.5h-39v166h39q78 0 110.5 34t32.5 116v382q0 163 78.5 238.5t247.5 75.5h65v-157h-65
q-77 0 -111 -37t-34 -120v-374z" />
    <glyph glyph-name="braceright.case" horiz-adv-x="673" 
d="M588 801h40v-166h-40q-77 0 -109.5 -34.5t-32.5 -116.5v-383q0 -163 -78.5 -239t-247.5 -76h-65v158h65q77 0 111 37t34 120v376q0 101 38.5 160t120.5 81q-82 22 -120.5 81t-38.5 160v374q0 83 -34 120t-111 37h-65v157h65q169 0 247.5 -75.5t78.5 -238.5v-382
q0 -82 32.5 -116t109.5 -34z" />
    <glyph glyph-name="bracketleft.case" horiz-adv-x="657" 
d="M177 -214v1861h428v-159h-247v-1542h247v-160h-428z" />
    <glyph glyph-name="bracketright.case" horiz-adv-x="657" 
d="M481 -214h-428v160h247v1542h-247v159h428v-1861z" />
    <glyph glyph-name="hyphen.case" horiz-adv-x="786" 
d="M128 628v171h529v-171h-529z" />
    <glyph glyph-name="endash.case" horiz-adv-x="1155" 
d="M128 628v171h898v-171h-898z" />
    <glyph glyph-name="emdash.case" horiz-adv-x="1748" 
d="M128 628v171h1493v-171h-1493z" />
    <glyph glyph-name="guillemotleft.case" horiz-adv-x="1017" 
d="M317 321l-243 393l243 394h185l-211 -394l211 -393h-185zM736 321l-243 393l243 394h185l-211 -394l211 -393h-185z" />
    <glyph glyph-name="guillemotright.case" horiz-adv-x="1017" 
d="M282 321h-185l212 393l-212 394h185l244 -394zM701 321h-185l212 393l-212 394h185l244 -394z" />
    <glyph glyph-name="guilsinglleft.case" horiz-adv-x="600" 
d="M317 321l-243 393l243 394h185l-211 -394l211 -393h-185z" />
    <glyph glyph-name="guilsinglright.case" horiz-adv-x="600" 
d="M282 321h-185l212 393l-212 394h185l244 -394z" />
    <glyph glyph-name="cent.tf" 
d="M1023 216l-32 -183q-63 -36 -186 -48v-190h-171v191q-192 23 -286.5 154.5t-94.5 378.5q0 246 94 377.5t287 155.5v177h171v-175q121 -13 186 -48l10 -176q-45 22 -115.5 38.5t-140.5 16.5q-152 0 -221.5 -86t-69.5 -280q0 -193 68 -279.5t216 -86.5q79 0 157.5 19.5
t127.5 43.5z" />
    <glyph glyph-name="currency.tf" 
d="M1063 524q0 -135 -70 -239l156 -157l-120 -121l-159 158q-105 -65 -234 -65q-131 0 -236 65l-158 -158l-122 121l157 157q-69 105 -69 239q0 133 67 237l-157 156l122 121l156 -156q103 66 240 66q132 0 237 -66l157 156l121 -121l-156 -156q68 -106 68 -237zM386 524
q0 -111 70 -182.5t180 -71.5q108 0 178 71.5t70 182.5q0 112 -69.5 183.5t-178.5 71.5q-110 0 -180 -71.5t-70 -183.5z" />
    <glyph glyph-name="dollar.tf" 
d="M1131 386q0 -176 -109 -285.5t-317 -126.5v-179h-170v179q-91 6 -174.5 22.5t-122.5 29.5l-38 14l-30 204q8 -3 23.5 -9t64.5 -21t99 -26t123 -20.5t142 -9.5q144 0 219 59.5t75 164.5q0 91 -55.5 143t-185.5 86l-190 50q-166 44 -247 141t-81 261q0 160 98 265.5
t280 129.5v168h170v-164q92 -4 176.5 -19t122.5 -28l38 -13l12 -198q-7 3 -19.5 8t-54.5 17.5t-86.5 22t-111 17.5t-132.5 8q-137 0 -208.5 -56t-71.5 -152q0 -90 52 -141.5t175 -83.5l195 -51q170 -44 254.5 -140.5t84.5 -266.5z" />
    <glyph glyph-name="Euro.tf" 
d="M850 158q91 0 183.5 26t151.5 58l-30 -205q-52 -26 -139 -46t-179 -20q-243 0 -381.5 126.5t-178.5 387.5h-197v158h182q-1 24 -1 74q0 30 2 88h-184v159h200q42 254 180 376.5t378 122.5q90 0 175.5 -21.5t136.5 -48.5l12 -196q-51 30 -137 54t-174 24
q-149 0 -234.5 -74t-118.5 -237h488l-24 -159h-483q-2 -56 -2 -88q0 -26 2 -74h450l-25 -158h-409q31 -172 118 -249.5t238 -77.5z" />
    <glyph glyph-name="florin.tf" horiz-adv-x="778" 
d="M731 1455q102 0 157 -30l-2 -183q-51 38 -135 38q-85 0 -138 -54.5t-75 -183.5l-24 -135h234l-28 -164h-234l-133 -767q-64 -384 -387 -384q-100 0 -155 30l1 183q51 -38 134 -38q86 0 137.5 53.5t74.5 183.5l129 739h-234l29 164h233l29 164q65 384 387 384z" />
    <glyph glyph-name="uni20BD.tf" 
d="M279 0v252h-175v167h175v162h-175v167h175v686h436q240 0 361 -113t121 -322q0 -201 -121 -309.5t-361 -108.5h-230v-162h495v-167h-495v-252h-206zM485 748h230q136 0 204 64t68 184q0 121 -68 186t-204 65h-230v-499z" />
    <glyph glyph-name="sterling.tf" 
d="M460 186h703v-186h-1039v186q98 0 144.5 45t46.5 139v265h-191v171h191v189q0 226 119 347t338 121q87 0 172 -17.5t126 -35.5l42 -17l12 -196q-17 9 -46.5 22t-117.5 34.5t-172 21.5q-136 0 -200.5 -69t-64.5 -209v-191h401v-171h-401v-265q0 -125 -63 -184z" />
    <glyph glyph-name="yen.tf" 
d="M1211 1434l-426 -735h266v-158h-313v-162h313v-159h-313v-220h-206v220h-313v159h313v162h-313v158h266l-427 735h237l343 -626l344 626h229z" />
    <glyph glyph-name="plus.tf" 
d="M1124 791v-171h-404v-404h-170v404h-405v171h405v404h170v-404h404z" />
    <glyph glyph-name="minus.tf" 
d="M145 620v171h979v-171h-979z" />
    <glyph glyph-name="multiply.tf" 
d="M1076 1029l-322 -322l322 -323l-118 -119l-323 323l-323 -323l-118 119l322 323l-322 322l118 119l323 -323l323 323z" />
    <glyph glyph-name="divide.tf" 
d="M542 989v214h185v-214h-185zM145 620v171h979v-171h-979zM542 207v215h185v-215h-185z" />
    <glyph glyph-name="equal.tf" 
d="M145 847v170h979v-170h-979zM145 396v171h979v-171h-979z" />
    <glyph glyph-name="notequal.tf" 
d="M1124 847h-348l-137 -280h485v-171h-569l-93 -191h-146l94 191h-265v171h349l137 280h-486v170h569l94 191h145l-93 -191h264v-170z" />
    <glyph glyph-name="greater.tf" 
d="M242 1177l818 -366v-189l-818 -363v190l605 268l-605 270v190z" />
    <glyph glyph-name="less.tf" 
d="M1028 1177v-190l-606 -270l606 -268v-190l-819 363v189z" />
    </font>
</defs>
</svg>
